<?xml version="1.0" encoding="UTF-8" standalone="no"?>
<svg
   width="460.8pt"
   height="345.6pt"
   viewBox="0 0 460.8 345.6"
   version="1.1"
   id="svg7126"
   sodipodi:docname="trial_day_participants_edit.svg"
   inkscape:version="1.2.1 (9c6d41e4, 2022-07-14)"
   xmlns:inkscape="http://www.inkscape.org/namespaces/inkscape"
   xmlns:sodipodi="http://sodipodi.sourceforge.net/DTD/sodipodi-0.dtd"
   xmlns:xlink="http://www.w3.org/1999/xlink"
   xmlns="http://www.w3.org/2000/svg"
   xmlns:svg="http://www.w3.org/2000/svg"
   xmlns:rdf="http://www.w3.org/1999/02/22-rdf-syntax-ns#"
   xmlns:cc="http://creativecommons.org/ns#"
   xmlns:dc="http://purl.org/dc/elements/1.1/">
  <sodipodi:namedview
     id="namedview7128"
     pagecolor="#ffffff"
     bordercolor="#666666"
     borderopacity="1.0"
     inkscape:showpageshadow="2"
     inkscape:pageopacity="0.0"
     inkscape:pagecheckerboard="0"
     inkscape:deskcolor="#d1d1d1"
     inkscape:document-units="pt"
     showgrid="false"
     inkscape:zoom="0.8338236"
     inkscape:cx="185.89064"
     inkscape:cy="398.16575"
     inkscape:current-layer="svg7126" />
  <metadata
     id="metadata6760">
    <rdf:RDF>
      <cc:Work>
        <dc:type
           rdf:resource="http://purl.org/dc/dcmitype/StillImage" />
        <dc:date>2022-10-31T17:22:11.895130</dc:date>
        <dc:format>image/svg+xml</dc:format>
        <dc:creator>
          <cc:Agent>
            <dc:title>Matplotlib v3.5.2, https://matplotlib.org/</dc:title>
          </cc:Agent>
        </dc:creator>
      </cc:Work>
    </rdf:RDF>
  </metadata>
  <defs
     id="defs6764">
    <style
       type="text/css"
       id="style6762">*{stroke-linejoin: round; stroke-linecap: butt}</style>
  </defs>
  <g
     id="line2d_7">
    <defs
       id="defs6986">
      <path
         id="m7f0de1b238"
         d="M 0,0 H -3.5"
         style="stroke:#000000;stroke-width:0.8" />
    </defs>
    <g
       id="g6990">
      <use
         xlink:href="#m7f0de1b238"
         x="57.599998"
         y="307.58401"
         style="stroke:#000000;stroke-width:0.8"
         id="use6988" />
    </g>
  </g>
  <g
     id="text_7">
    <!-- 0 -->
    <g
       transform="matrix(0.1,0,0,-0.1,44.2375,311.38322)"
       id="g6995">
      <path
         id="use6993"
         d="m 31.78125,66.40625 q -7.609375,0 -11.453125,-7.5 Q 16.5,51.421875 16.5,36.375 q 0,-14.984375 3.828125,-22.484375 3.84375,-7.5 11.453125,-7.5 7.671875,0 11.5,7.5 3.84375,7.5 3.84375,22.484375 0,15.046875 -3.84375,22.53125 -3.828125,7.5 -11.5,7.5 z m 0,7.8125 q 12.265625,0 18.734375,-9.703125 6.46875,-9.6875 6.46875,-28.140625 0,-18.40625 -6.46875,-28.109375 -6.46875,-9.6875 -18.734375,-9.6875 -12.25,0 -18.71875,9.6875 Q 6.59375,17.96875 6.59375,36.375 q 0,18.453125 6.46875,28.140625 6.46875,9.703125 18.71875,9.703125 z"
         style="stroke-width:0.015625" />
    </g>
  </g>
  <g
     id="text_8">
    <!-- 10 -->
    <g
       transform="matrix(0.1,0,0,-0.1,37.875,267.68667)"
       id="g7008">
      <path
         id="use7004"
         d="m 12.40625,8.296875 h 16.109375 v 55.625 L 10.984375,60.40625 v 8.984375 l 17.4375,3.515625 H 38.28125 V 8.296875 H 54.390625 V 0 H 12.40625 Z"
         style="stroke-width:0.015625" />
      <path
         id="use7006"
         d="m 95.404297,66.40625 q -7.609375,0 -11.453125,-7.5 -3.828125,-7.484375 -3.828125,-22.53125 0,-14.984375 3.828125,-22.484375 3.84375,-7.5 11.453125,-7.5 7.671873,0 11.500003,7.5 3.84375,7.5 3.84375,22.484375 0,15.046875 -3.84375,22.53125 -3.82813,7.5 -11.500003,7.5 z m 0,7.8125 q 12.265623,0 18.734373,-9.703125 6.46875,-9.6875 6.46875,-28.140625 0,-18.40625 -6.46875,-28.109375 -6.46875,-9.6875 -18.734373,-9.6875 -12.25,0 -18.71875,9.6875 -6.46875,9.703125 -6.46875,28.109375 0,18.453125 6.46875,28.140625 6.46875,9.703125 18.71875,9.703125 z"
         style="stroke-width:0.015625" />
    </g>
  </g>
  <g
     id="text_9">
    <!-- 20 -->
    <g
       transform="matrix(0.1,0,0,-0.1,37.875,223.99011)"
       id="g7021">
      <path
         id="use7017"
         d="M 19.1875,8.296875 H 53.609375 V 0 H 7.328125 v 8.296875 q 5.609375,5.8125 15.296875,15.59375 9.703125,9.796875 12.1875,12.640625 4.734375,5.3125 6.609375,9 1.890625,3.6875 1.890625,7.25 0,5.8125 -4.078125,9.46875 -4.078125,3.671875 -10.625,3.671875 -4.640625,0 -9.796875,-1.609375 -5.140625,-1.609375 -11,-4.890625 v 9.96875 Q 13.765625,71.78125 18.9375,73 q 5.1875,1.21875 9.484375,1.21875 11.328125,0 18.0625,-5.671875 6.734375,-5.65625 6.734375,-15.125 0,-4.5 -1.6875,-8.53125 Q 49.859375,40.875 45.40625,35.40625 44.1875,33.984375 37.640625,27.21875 31.109375,20.453125 19.1875,8.296875 Z"
         style="stroke-width:0.015625" />
      <path
         id="use7019"
         d="m 95.404297,66.40625 q -7.609375,0 -11.453125,-7.5 -3.828125,-7.484375 -3.828125,-22.53125 0,-14.984375 3.828125,-22.484375 3.84375,-7.5 11.453125,-7.5 7.671873,0 11.500003,7.5 3.84375,7.5 3.84375,22.484375 0,15.046875 -3.84375,22.53125 -3.82813,7.5 -11.500003,7.5 z m 0,7.8125 q 12.265623,0 18.734373,-9.703125 6.46875,-9.6875 6.46875,-28.140625 0,-18.40625 -6.46875,-28.109375 -6.46875,-9.6875 -18.734373,-9.6875 -12.25,0 -18.71875,9.6875 -6.46875,9.703125 -6.46875,28.109375 0,18.453125 6.46875,28.140625 6.46875,9.703125 18.71875,9.703125 z"
         style="stroke-width:0.015625" />
    </g>
  </g>
  <g
     id="text_10">
    <!-- 30 -->
    <g
       transform="matrix(0.1,0,0,-0.1,37.875,180.29356)"
       id="g7034">
      <path
         id="use7030"
         d="M 40.578125,39.3125 Q 47.65625,37.796875 51.625,33 q 3.984375,-4.78125 3.984375,-11.8125 0,-10.78125 -7.421875,-16.703125 -7.421875,-5.90625 -21.09375,-5.90625 -4.578125,0 -9.4375,0.90625 -4.859375,0.90625 -10.03125,2.71875 v 9.515625 q 4.09375,-2.390625 8.96875,-3.609375 4.890625,-1.21875 10.21875,-1.21875 9.265625,0 14.125,3.65625 4.859375,3.65625 4.859375,10.640625 0,6.453125 -4.515625,10.078125 -4.515625,3.640625 -12.5625,3.640625 h -8.5 v 8.109375 h 8.890625 q 7.265625,0 11.125,2.90625 3.859375,2.90625 3.859375,8.375 0,5.609375 -3.984375,8.609375 -3.96875,3.015625 -11.390625,3.015625 -4.0625,0 -8.703125,-0.890625 Q 15.375,64.15625 9.8125,62.3125 v 8.78125 q 5.625,1.5625 10.53125,2.34375 4.90625,0.78125 9.25,0.78125 11.234375,0 17.765625,-5.109375 6.546875,-5.09375 6.546875,-13.78125 0,-6.0625 -3.46875,-10.234375 -3.46875,-4.171875 -9.859375,-5.78125 z"
         style="stroke-width:0.015625" />
      <path
         id="use7032"
         d="m 95.404297,66.40625 q -7.609375,0 -11.453125,-7.5 -3.828125,-7.484375 -3.828125,-22.53125 0,-14.984375 3.828125,-22.484375 3.84375,-7.5 11.453125,-7.5 7.671873,0 11.500003,7.5 3.84375,7.5 3.84375,22.484375 0,15.046875 -3.84375,22.53125 -3.82813,7.5 -11.500003,7.5 z m 0,7.8125 q 12.265623,0 18.734373,-9.703125 6.46875,-9.6875 6.46875,-28.140625 0,-18.40625 -6.46875,-28.109375 -6.46875,-9.6875 -18.734373,-9.6875 -12.25,0 -18.71875,9.6875 -6.46875,9.703125 -6.46875,28.109375 0,18.453125 6.46875,28.140625 6.46875,9.703125 18.71875,9.703125 z"
         style="stroke-width:0.015625" />
    </g>
  </g>
  <g
     id="text_11">
    <!-- 40 -->
    <g
       transform="matrix(0.1,0,0,-0.1,37.875,136.59701)"
       id="g7047">
      <path
         id="use7043"
         d="M 37.796875,64.3125 12.890625,25.390625 h 24.90625 z m -2.59375,8.59375 h 12.40625 V 25.390625 h 10.40625 V 17.1875 H 47.609375 V 0 h -9.8125 V 17.1875 H 4.890625 v 9.515625 z"
         style="stroke-width:0.015625" />
      <path
         id="use7045"
         d="m 95.404297,66.40625 q -7.609375,0 -11.453125,-7.5 -3.828125,-7.484375 -3.828125,-22.53125 0,-14.984375 3.828125,-22.484375 3.84375,-7.5 11.453125,-7.5 7.671873,0 11.500003,7.5 3.84375,7.5 3.84375,22.484375 0,15.046875 -3.84375,22.53125 -3.82813,7.5 -11.500003,7.5 z m 0,7.8125 q 12.265623,0 18.734373,-9.703125 6.46875,-9.6875 6.46875,-28.140625 0,-18.40625 -6.46875,-28.109375 -6.46875,-9.6875 -18.734373,-9.6875 -12.25,0 -18.71875,9.6875 -6.46875,9.703125 -6.46875,28.109375 0,18.453125 6.46875,28.140625 6.46875,9.703125 18.71875,9.703125 z"
         style="stroke-width:0.015625" />
    </g>
  </g>
  <g
     id="text_12">
    <!-- 50 -->
    <g
       transform="matrix(0.1,0,0,-0.1,37.875,92.90046)"
       id="g7063">
      <defs
         id="defs7057">
        <path
           id="DejaVuSans-35"
           d="M 691,4666 H 3169 V 4134 H 1269 V 2991 q 137,47 274,70 138,23 276,23 781,0 1237,-428 457,-428 457,-1159 Q 3513,744 3044,326 2575,-91 1722,-91 1428,-91 1123,-41 819,9 494,109 v 635 q 281,-153 581,-228 300,-75 634,-75 541,0 856,284 316,284 316,772 0,487 -316,771 -315,285 -856,285 -253,0 -505,-56 -251,-56 -513,-175 z"
           transform="scale(0.015625)" />
      </defs>
      <use
         xlink:href="#DejaVuSans-35"
         id="use7059" />
      <path
         id="use7061"
         d="m 95.404297,66.40625 q -7.609375,0 -11.453125,-7.5 -3.828125,-7.484375 -3.828125,-22.53125 0,-14.984375 3.828125,-22.484375 3.84375,-7.5 11.453125,-7.5 7.671873,0 11.500003,7.5 3.84375,7.5 3.84375,22.484375 0,15.046875 -3.84375,22.53125 -3.82813,7.5 -11.500003,7.5 z m 0,7.8125 q 12.265623,0 18.734373,-9.703125 6.46875,-9.6875 6.46875,-28.140625 0,-18.40625 -6.46875,-28.109375 -6.46875,-9.6875 -18.734373,-9.6875 -12.25,0 -18.71875,9.6875 -6.46875,9.703125 -6.46875,28.109375 0,18.453125 6.46875,28.140625 6.46875,9.703125 18.71875,9.703125 z"
         style="stroke-width:0.015625" />
    </g>
  </g>
  <g
     id="text_13">
    <!-- 60 -->
    <g
       transform="matrix(0.1,0,0,-0.1,37.875,49.203908)"
       id="g7076">
      <path
         id="use7072"
         d="m 33.015625,40.375 q -6.640625,0 -10.53125,-4.546875 -3.875,-4.53125 -3.875,-12.4375 0,-7.859375 3.875,-12.4375 3.890625,-4.5625 10.53125,-4.5625 6.640625,0 10.515625,4.5625 3.875,4.578125 3.875,12.4375 0,7.90625 -3.875,12.4375 Q 39.65625,40.375 33.015625,40.375 Z M 52.59375,71.296875 V 62.3125 q -3.71875,1.75 -7.5,2.671875 -3.78125,0.9375 -7.5,0.9375 -9.765625,0 -14.921875,-6.59375 -5.140625,-6.59375 -5.875,-19.921875 2.875,4.25 7.21875,6.515625 4.359375,2.265625 9.578125,2.265625 10.984375,0 17.359375,-6.671875 6.375,-6.65625 6.375,-18.125 0,-11.234375 -6.640625,-18.03125 -6.640625,-6.78125 -17.671875,-6.78125 -12.65625,0 -19.34375,9.6875 -6.6875,9.703125 -6.6875,28.109375 0,17.28125 8.203125,27.5625 8.203125,10.28125 22.015625,10.28125 3.71875,0 7.5,-0.734375 3.78125,-0.734375 7.890625,-2.1875 z"
         style="stroke-width:0.015625" />
      <path
         id="use7074"
         d="m 95.404297,66.40625 q -7.609375,0 -11.453125,-7.5 -3.828125,-7.484375 -3.828125,-22.53125 0,-14.984375 3.828125,-22.484375 3.84375,-7.5 11.453125,-7.5 7.671873,0 11.500003,7.5 3.84375,7.5 3.84375,22.484375 0,15.046875 -3.84375,22.53125 -3.82813,7.5 -11.500003,7.5 z m 0,7.8125 q 12.265623,0 18.734373,-9.703125 6.46875,-9.6875 6.46875,-28.140625 0,-18.40625 -6.46875,-28.109375 -6.46875,-9.6875 -18.734373,-9.6875 -12.25,0 -18.71875,9.6875 -6.46875,9.703125 -6.46875,28.109375 0,18.453125 6.46875,28.140625 6.46875,9.703125 18.71875,9.703125 z"
         style="stroke-width:0.015625" />
    </g>
  </g>
  <g
     id="text_14"
     transform="translate(-6)">
    <!-- Participants -->
    <g
       transform="matrix(0,-0.1,-0.1,0,31.795312,203.89675)"
       id="g7115">
      <defs
         id="defs7089">
        <path
           id="DejaVuSans-50"
           d="M 1259,4147 V 2394 h 794 q 441,0 681,228 241,228 241,650 0,419 -241,647 -240,228 -681,228 z m -631,519 h 1425 q 785,0 1186,-355 402,-355 402,-1039 0,-691 -402,-1044 -401,-353 -1186,-353 H 1259 V 0 H 628 Z"
           transform="scale(0.015625)" />
        <path
           id="DejaVuSans-61"
           d="m 2194,1759 q -697,0 -966,-159 -269,-159 -269,-544 0,-306 202,-486 202,-179 548,-179 479,0 768,339 289,339 289,901 v 128 z m 1147,238 V 0 H 2766 V 531 Q 2569,213 2275,61 1981,-91 1556,-91 q -537,0 -855,302 -317,302 -317,808 0,590 395,890 396,300 1180,300 h 807 v 57 q 0,397 -261,614 -261,217 -733,217 -300,0 -585,-72 -284,-72 -546,-216 v 532 q 315,122 612,182 297,61 578,61 760,0 1135,-394 375,-393 375,-1193 z"
           transform="scale(0.015625)" />
        <path
           id="DejaVuSans-72"
           d="m 2631,2963 q -97,56 -211,82 -114,27 -251,27 -488,0 -749,-317 -261,-317 -261,-911 V 0 H 581 v 3500 h 578 v -544 q 182,319 472,473 291,155 707,155 59,0 131,-8 72,-7 159,-23 z"
           transform="scale(0.015625)" />
        <path
           id="DejaVuSans-74"
           d="M 1172,4494 V 3500 H 2356 V 3053 H 1172 V 1153 q 0,-428 117,-550 117,-122 477,-122 h 590 V 0 H 1766 Q 1100,0 847,248 594,497 594,1153 V 3053 H 172 v 447 h 422 v 994 z"
           transform="scale(0.015625)" />
        <path
           id="DejaVuSans-69"
           d="m 603,3500 h 575 V 0 H 603 Z m 0,1363 h 575 V 4134 H 603 Z"
           transform="scale(0.015625)" />
        <path
           id="DejaVuSans-63"
           d="m 3122,3366 v -538 q -244,135 -489,202 -245,67 -495,67 -560,0 -870,-355 -309,-354 -309,-995 0,-641 309,-996 310,-354 870,-354 250,0 495,67 245,67 489,202 V 134 Q 2881,22 2623,-34 2366,-91 2075,-91 1284,-91 818,406 353,903 353,1747 q 0,856 470,1346 471,491 1290,491 265,0 518,-55 253,-54 491,-163 z"
           transform="scale(0.015625)" />
        <path
           id="DejaVuSans-70"
           d="M 1159,525 V -1331 H 581 v 4831 h 578 v -531 q 182,312 458,463 277,152 661,152 638,0 1036,-506 399,-506 399,-1331 0,-825 -399,-1332 -398,-506 -1036,-506 -384,0 -661,152 -276,152 -458,464 z m 1957,1222 q 0,634 -261,995 -261,361 -717,361 -457,0 -718,-361 -261,-361 -261,-995 0,-634 261,-995 261,-361 718,-361 456,0 717,361 261,361 261,995 z"
           transform="scale(0.015625)" />
        <path
           id="DejaVuSans-6e"
           d="M 3513,2113 V 0 h -575 v 2094 q 0,497 -194,743 -194,247 -581,247 -466,0 -735,-297 -269,-296 -269,-809 V 0 H 581 v 3500 h 578 v -544 q 207,316 486,472 280,156 646,156 603,0 912,-373 310,-373 310,-1098 z"
           transform="scale(0.015625)" />
        <path
           id="DejaVuSans-73"
           d="m 2834,3397 v -544 q -243,125 -506,187 -262,63 -544,63 -428,0 -642,-131 -214,-131 -214,-394 0,-200 153,-314 153,-114 616,-217 l 197,-44 q 612,-131 870,-370 258,-239 258,-667 0,-488 -386,-773 Q 2250,-91 1575,-91 1294,-91 989,-36 684,19 347,128 v 594 q 319,-166 628,-249 309,-82 613,-82 406,0 624,139 219,139 219,392 0,234 -158,359 -157,125 -692,241 l -200,47 q -534,112 -772,345 -237,233 -237,639 0,494 350,762 350,269 994,269 318,0 599,-47 282,-46 519,-140 z"
           transform="scale(0.015625)" />
      </defs>
      <use
         xlink:href="#DejaVuSans-50"
         id="use7091" />
      <use
         xlink:href="#DejaVuSans-61"
         x="55.802734"
         id="use7093" />
      <use
         xlink:href="#DejaVuSans-72"
         x="117.08203"
         id="use7095" />
      <use
         xlink:href="#DejaVuSans-74"
         x="158.19531"
         id="use7097" />
      <use
         xlink:href="#DejaVuSans-69"
         x="197.4043"
         id="use7099" />
      <use
         xlink:href="#DejaVuSans-63"
         x="225.1875"
         id="use7101" />
      <use
         xlink:href="#DejaVuSans-69"
         x="280.16797"
         id="use7103" />
      <use
         xlink:href="#DejaVuSans-70"
         x="307.95117"
         id="use7105" />
      <use
         xlink:href="#DejaVuSans-61"
         x="371.42773"
         id="use7107" />
      <use
         xlink:href="#DejaVuSans-6e"
         x="432.70703"
         id="use7109" />
      <use
         xlink:href="#DejaVuSans-74"
         x="496.08594"
         id="use7111" />
      <use
         xlink:href="#DejaVuSans-73"
         x="535.29492"
         id="use7113" />
    </g>
  </g>
  <defs
     id="defs7124">
    <clipPath
       id="p972785c398">
      <rect
         x="57.6"
         y="41.472"
         width="357.12"
         height="266.112"
         id="rect7121" />
    </clipPath>
  </defs>
  <g
     id="g8433"
     transform="translate(4.5)">
    <text
       xml:space="preserve"
       style="font-size:15px;line-height:1.25;font-family:'Foundry Sterling';-inkscape-font-specification:'Foundry Sterling';stroke-width:0.75"
       x="89.638222"
       y="333.01956"
       id="text7672"><tspan
         sodipodi:role="line"
         id="tspan7670"
         style="font-size:15px;stroke-width:0.75"
         x="89.638222"
         y="333.01956">27-28 Apr</tspan></text>
    <g
       id="g8420"
       transform="translate(0.06300762)">
      <g
         id="patch_2"
         style="fill:#e6e6e6">
        <path
           d="M 73.832727,307.584 H 118.61267 V 84.731586 H 73.832727 Z"
           clip-path="url(#p972785c398)"
           style="fill:#e6e6e6"
           id="path6769" />
      </g>
      <g
         id="patch_3"
         style="fill:#e6e6e6">
        <path
           d="m 129.80765,307.584 h 44.77994 V 97.840552 h -44.77994 z"
           clip-path="url(#p972785c398)"
           style="fill:#e6e6e6"
           id="path6772" />
      </g>
      <text
         xml:space="preserve"
         style="font-size:13.5px;line-height:1.25;font-family:'Foundry Sterling';-inkscape-font-specification:'Foundry Sterling';stroke-width:0.75"
         x="74.970146"
         y="303.3515"
         id="text7694"><tspan
           sodipodi:role="line"
           id="tspan7692"
           style="font-size:13.5px;stroke-width:0.75"
           x="74.970146"
           y="303.3515">Control</tspan></text>
      <text
         xml:space="preserve"
         style="font-size:13.5px;line-height:1.25;font-family:'Foundry Sterling';-inkscape-font-specification:'Foundry Sterling';stroke-width:0.75"
         x="139.92612"
         y="303.3515"
         id="text7936"><tspan
           sodipodi:role="line"
           id="tspan7934"
           style="font-size:13.5px;stroke-width:0.75"
           x="139.92612"
           y="303.3515">Trial</tspan></text>
    </g>
  </g>
  <g
     id="g8271"
     transform="translate(18.906052)">
    <text
       xml:space="preserve"
       style="font-size:15px;line-height:1.25;font-family:'Foundry Sterling';-inkscape-font-specification:'Foundry Sterling';stroke-width:0.75"
       x="205.35301"
       y="333.01956"
       id="text7676"><tspan
         sodipodi:role="line"
         id="tspan7674"
         style="font-size:15px;stroke-width:0.75"
         x="205.35301"
         y="333.01956">29-30 Jun</tspan></text>
    <g
       id="g8258"
       transform="translate(2.8754509)">
      <g
         id="patch_4"
         style="fill:#b3b3b3">
        <path
           d="m 185.78257,307.584 h 44.77994 V 54.144 h -44.77994 z"
           clip-path="url(#p972785c398)"
           style="fill:#b3b3b3"
           id="path6775" />
      </g>
      <g
         id="patch_5"
         style="fill:#b3b3b3">
        <path
           d="m 241.75749,307.584 h 44.77994 V 71.622621 h -44.77994 z"
           clip-path="url(#p972785c398)"
           style="fill:#b3b3b3"
           id="path6778" />
      </g>
      <text
         xml:space="preserve"
         style="font-size:13.5px;line-height:1.25;font-family:'Foundry Sterling';-inkscape-font-specification:'Foundry Sterling';stroke-width:0.75"
         x="186.8821"
         y="303.3515"
         id="text7698"><tspan
           sodipodi:role="line"
           id="tspan7696"
           style="font-size:13.5px;stroke-width:0.75"
           x="186.8821"
           y="303.3515">Control</tspan></text>
      <text
         xml:space="preserve"
         style="font-size:13.5px;line-height:1.25;font-family:'Foundry Sterling';-inkscape-font-specification:'Foundry Sterling';stroke-width:0.75"
         x="254.55438"
         y="303.3515"
         id="text7940"><tspan
           sodipodi:role="line"
           id="tspan7938"
           style="font-size:13.5px;stroke-width:0.75"
           x="254.55438"
           y="303.3515">Trial</tspan></text>
    </g>
  </g>
  <g
     id="g8284"
     transform="translate(4.5)">
    <text
       xml:space="preserve"
       style="font-size:15px;line-height:1.25;font-family:'Foundry Sterling';-inkscape-font-specification:'Foundry Sterling';stroke-width:0.75"
       x="347.24744"
       y="333.01956"
       id="text7690"><tspan
         sodipodi:role="line"
         id="tspan7688"
         style="font-size:15px;stroke-width:0.75"
         x="347.24744"
         y="333.01956">19-20 Oct</tspan></text>
    <g
       id="g8248"
       transform="translate(34.5)">
      <g
         id="patch_6"
         style="fill:#e6e6e6">
        <path
           d="m 297.73241,307.584 h 44.77994 V 97.840552 h -44.77994 z"
           clip-path="url(#p972785c398)"
           style="fill:#e6e6e6"
           id="path6781" />
      </g>
      <g
         id="patch_7"
         style="fill:#e6e6e6">
        <path
           d="m 353.70733,307.584 h 44.77994 V 97.840552 h -44.77994 z"
           clip-path="url(#p972785c398)"
           style="fill:#e6e6e6"
           id="path6784" />
      </g>
      <text
         xml:space="preserve"
         style="font-size:13.5px;line-height:1.25;font-family:'Foundry Sterling';-inkscape-font-specification:'Foundry Sterling';stroke-width:0.75"
         x="300.01035"
         y="303.3515"
         id="text7702"><tspan
           sodipodi:role="line"
           id="tspan7700"
           style="font-size:13.5px;stroke-width:0.75"
           x="300.01035"
           y="303.3515">Control</tspan></text>
      <text
         xml:space="preserve"
         style="font-size:13.5px;line-height:1.25;font-family:'Foundry Sterling';-inkscape-font-specification:'Foundry Sterling';stroke-width:0.75"
         x="364.83655"
         y="303.3515"
         id="text7944"><tspan
           sodipodi:role="line"
           id="tspan7942"
           style="font-size:13.5px;stroke-width:0.75"
           x="364.83655"
           y="303.3515">Trial</tspan></text>
    </g>
  </g>
  <g
     id="line2d_8"
     transform="matrix(102.60405,0,0,1,-5472.4832,0)"
     style="stroke-width:0.0987229;stroke:#ffffff;fill:none;fill-opacity:1">
    <g
       id="g7001"
       style="stroke-width:0.0987229;stroke:#ffffff;fill:none;fill-opacity:1">
      <path
         id="use6999"
         d="m 57.599998,263.88745 h -3.5"
         style="fill:none;fill-opacity:1;stroke:#ffffff;stroke-width:0.8" />
    </g>
  </g>
  <g
     id="line2d_9"
     transform="matrix(102.60405,0,0,1,-5472.4832,0)"
     style="stroke-width:0.0987229;stroke:#ffffff;fill:none;fill-opacity:1">
    <g
       id="g7014"
       style="stroke-width:0.0987229;stroke:#ffffff;fill:none;fill-opacity:1">
      <path
         id="use7012"
         d="m 57.599998,220.1909 h -3.5"
         style="fill:none;fill-opacity:1;stroke:#ffffff;stroke-width:0.8" />
    </g>
  </g>
  <g
     id="line2d_10"
     transform="matrix(102.60405,0,0,1,-5472.4832,0)"
     style="stroke-width:0.0987229;stroke:#ffffff;fill:none;fill-opacity:1">
    <g
       id="g7027"
       style="stroke-width:0.0987229;stroke:#ffffff;fill:none;fill-opacity:1">
      <path
         id="use7025"
         d="m 57.599998,176.49434 h -3.5"
         style="fill:none;fill-opacity:1;stroke:#ffffff;stroke-width:0.8" />
    </g>
  </g>
  <g
     id="line2d_11"
     transform="matrix(102.60405,0,0,1,-5472.4832,0)"
     style="stroke-width:0.0987229;stroke:#ffffff;fill:none;fill-opacity:1">
    <g
       id="g7040"
       style="stroke-width:0.0987229;stroke:#ffffff;fill:none;fill-opacity:1">
      <path
         id="use7038"
         d="m 57.599998,132.79779 h -3.5"
         style="fill:none;fill-opacity:1;stroke:#ffffff;stroke-width:0.8" />
    </g>
  </g>
  <path
     id="use7051"
     d="M 437.50992,89.101242 H 78.395748"
     style="stroke:#ffffff;stroke-width:1;stroke-dasharray:none" />
  <g
     id="g7069"
     style="fill:none;fill-opacity:1;stroke:#ffffff;stroke-width:0.0987229;stroke-opacity:0.995138"
     transform="matrix(102.60405,0,0,1,-5472.4832,0)">
    <use
       xlink:href="#m7f0de1b238"
       x="57.599998"
       y="45.40469"
       style="display:none;fill:none;fill-opacity:1;stroke:#ffffff;stroke-width:0.0789783;stroke-opacity:0.995138"
       id="use7067" />
  </g>
</svg>
