<?xml version="1.0" encoding="UTF-8" standalone="no"?>
<svg
   width="533.49261pt"
   height="312.39471pt"
   viewBox="0 0 533.49263 312.39471"
   version="1.1"
   id="svg2754"
   sodipodi:docname="22_10_trial_profiles_edit.svg"
   inkscape:version="1.2.1 (9c6d41e4, 2022-07-14)"
   xmlns:inkscape="http://www.inkscape.org/namespaces/inkscape"
   xmlns:sodipodi="http://sodipodi.sourceforge.net/DTD/sodipodi-0.dtd"
   xmlns:xlink="http://www.w3.org/1999/xlink"
   xmlns="http://www.w3.org/2000/svg"
   xmlns:svg="http://www.w3.org/2000/svg"
   xmlns:rdf="http://www.w3.org/1999/02/22-rdf-syntax-ns#"
   xmlns:cc="http://creativecommons.org/ns#"
   xmlns:dc="http://purl.org/dc/elements/1.1/">
  <sodipodi:namedview
     id="namedview2756"
     pagecolor="#ffffff"
     bordercolor="#666666"
     borderopacity="1.0"
     inkscape:showpageshadow="2"
     inkscape:pageopacity="0.0"
     inkscape:pagecheckerboard="0"
     inkscape:deskcolor="#d1d1d1"
     inkscape:document-units="pt"
     showgrid="false"
     inkscape:zoom="1.1356456"
     inkscape:cx="348.70033"
     inkscape:cy="195.48352"
     inkscape:current-layer="svg2754" />
  <metadata
     id="metadata2261">
    <rdf:RDF>
      <cc:Work>
        <dc:type
           rdf:resource="http://purl.org/dc/dcmitype/StillImage" />
        <dc:date>2022-10-31T21:01:40.689852</dc:date>
        <dc:format>image/svg+xml</dc:format>
        <dc:creator>
          <cc:Agent>
            <dc:title>Matplotlib v3.5.2, https://matplotlib.org/</dc:title>
          </cc:Agent>
        </dc:creator>
      </cc:Work>
    </rdf:RDF>
  </metadata>
  <defs
     id="defs2265">
    <marker
       style="overflow:visible"
       id="TriangleStart"
       refX="0"
       refY="0"
       orient="auto-start-reverse"
       inkscape:stockid="TriangleStart"
       markerWidth="3.230202"
       markerHeight="3.6670001"
       viewBox="0 0 4.9916334 5.6666178"
       inkscape:isstock="true"
       inkscape:collect="always"
       preserveAspectRatio="xMidYMid"
       markerUnits="strokeWidth">
      <path
         transform="scale(0.5)"
         style="fill:context-stroke;fill-rule:evenodd;stroke:context-stroke;stroke-width:1pt"
         d="M 5.77,0 -2.88,5 V -5 Z"
         id="path135" />
    </marker>
    <style
       type="text/css"
       id="style2263">*{stroke-linejoin: round; stroke-linecap: butt}</style>
  </defs>
  <g
     id="PolyCollection_1"
     transform="matrix(1,0,0,0.91564456,0,-8.2795216)"
     style="stroke-width:1.04504;stroke:none">
    <defs
       id="defs2271">
      <path
         id="m3689ef1459"
         d="m 306.73707,-292.032 v 241.92 h 28.23083 v -241.92 0 z"
         style="stroke:#808080;stroke-opacity:0.2" />
    </defs>
    <g
       clip-path="url(#pe3618b19f9)"
       id="g2275"
       style="stroke-width:1.04504;stroke:none">
      <use
         xlink:href="#m3689ef1459"
         x="0"
         y="345.60001"
         style="fill:#808080;fill-opacity:0.2;stroke:none;stroke-width:1.04504;stroke-opacity:0.2"
         id="use2273" />
    </g>
  </g>
  <g
     id="xtick_1"
     transform="translate(0,-33.205279)">
    <g
       id="line2d_1">
      <defs
         id="defs2279">
        <path
           id="mc5fa090a8d"
           d="M 0,0 V 3.5"
           style="stroke:#000000;stroke-width:0.8" />
      </defs>
      <g
         id="g2283">
        <use
           xlink:href="#mc5fa090a8d"
           x="73.832726"
           y="307.58401"
           style="stroke:#000000;stroke-width:0.8"
           id="use2281" />
      </g>
    </g>
  </g>
  <g
     id="xtick_2"
     transform="translate(0,-33.205279)">
    <g
       id="line2d_2">
      <g
         id="g2289">
        <use
           xlink:href="#mc5fa090a8d"
           x="158.52522"
           y="307.58401"
           style="stroke:#000000;stroke-width:0.8"
           id="use2287" />
      </g>
    </g>
    <g
       id="text_1">
      <!-- 6am -->
      <g
         transform="matrix(0.1,0,0,-0.1,147.40959,322.18244)"
         id="g2303">
        <defs
           id="defs2295">
          <path
             id="DejaVuSans-36"
             d="m 2113,2584 q -425,0 -674,-291 -248,-290 -248,-796 0,-503 248,-796 249,-292 674,-292 425,0 673,292 248,293 248,796 0,506 -248,796 -248,291 -673,291 z m 1253,1979 v -575 q -238,112 -480,171 -242,60 -480,60 -625,0 -955,-422 -329,-422 -376,-1275 184,272 462,417 279,145 613,145 703,0 1111,-427 408,-426 408,-1160 0,-719 -425,-1154 -425,-434 -1131,-434 -810,0 -1238,620 -428,621 -428,1799 0,1106 525,1764 525,658 1409,658 238,0 480,-47 242,-47 505,-140 z"
             transform="scale(0.015625)" />
          <path
             id="DejaVuSans-61"
             d="m 2194,1759 q -697,0 -966,-159 -269,-159 -269,-544 0,-306 202,-486 202,-179 548,-179 479,0 768,339 289,339 289,901 v 128 z m 1147,238 V 0 H 2766 V 531 Q 2569,213 2275,61 1981,-91 1556,-91 q -537,0 -855,302 -317,302 -317,808 0,590 395,890 396,300 1180,300 h 807 v 57 q 0,397 -261,614 -261,217 -733,217 -300,0 -585,-72 -284,-72 -546,-216 v 532 q 315,122 612,182 297,61 578,61 760,0 1135,-394 375,-393 375,-1193 z"
             transform="scale(0.015625)" />
          <path
             id="DejaVuSans-6d"
             d="m 3328,2828 q 216,388 516,572 300,184 706,184 547,0 844,-383 297,-382 297,-1088 V 0 h -578 v 2094 q 0,503 -179,746 -178,244 -543,244 -447,0 -707,-297 -259,-296 -259,-809 V 0 h -578 v 2094 q 0,506 -178,748 -178,242 -550,242 -441,0 -701,-298 -259,-298 -259,-808 V 0 H 581 v 3500 h 578 v -544 q 197,322 472,475 275,153 653,153 382,0 649,-194 267,-193 395,-562 z"
             transform="scale(0.015625)" />
        </defs>
        <use
           xlink:href="#DejaVuSans-36"
           id="use2297" />
        <use
           xlink:href="#DejaVuSans-61"
           x="63.623047"
           id="use2299" />
        <use
           xlink:href="#DejaVuSans-6d"
           x="124.90234"
           id="use2301" />
      </g>
    </g>
  </g>
  <g
     id="xtick_3"
     transform="translate(0,-33.205279)">
    <g
       id="line2d_3">
      <g
         id="g2309">
        <use
           xlink:href="#mc5fa090a8d"
           x="200.87146"
           y="307.58401"
           style="stroke:#000000;stroke-width:0.8"
           id="use2307" />
      </g>
    </g>
    <g
       id="text_2">
      <!-- 9am -->
      <g
         transform="matrix(0.1,0,0,-0.1,189.75584,322.18244)"
         id="g2321">
        <defs
           id="defs2313">
          <path
             id="DejaVuSans-39"
             d="m 703,97 v 575 q 238,-113 481,-172 244,-59 479,-59 625,0 954,420 330,420 377,1277 -181,-269 -460,-413 -278,-144 -615,-144 -700,0 -1108,423 -408,424 -408,1159 0,718 425,1152 425,435 1131,435 810,0 1236,-621 427,-620 427,-1801 Q 3622,1225 3098,567 2575,-91 1691,-91 1453,-91 1209,-44 966,3 703,97 Z m 1256,1978 q 425,0 673,290 249,291 249,798 0,503 -249,795 -248,292 -673,292 -425,0 -673,-292 -248,-292 -248,-795 0,-507 248,-798 248,-290 673,-290 z"
             transform="scale(0.015625)" />
        </defs>
        <use
           xlink:href="#DejaVuSans-39"
           id="use2315" />
        <use
           xlink:href="#DejaVuSans-61"
           x="63.623047"
           id="use2317" />
        <use
           xlink:href="#DejaVuSans-6d"
           x="124.90234"
           id="use2319" />
      </g>
    </g>
  </g>
  <g
     id="xtick_4"
     transform="translate(0,-33.205279)">
    <g
       id="line2d_4">
      <g
         id="g2327">
        <use
           xlink:href="#mc5fa090a8d"
           x="243.21771"
           y="307.58401"
           style="stroke:#000000;stroke-width:0.8"
           id="use2325" />
      </g>
    </g>
    <g
       id="text_3">
      <!-- noon -->
      <g
         transform="matrix(0.1,0,0,-0.1,230.76146,322.18244)"
         id="g2342">
        <defs
           id="defs2332">
          <path
             id="DejaVuSans-6e"
             d="M 3513,2113 V 0 h -575 v 2094 q 0,497 -194,743 -194,247 -581,247 -466,0 -735,-297 -269,-296 -269,-809 V 0 H 581 v 3500 h 578 v -544 q 207,316 486,472 280,156 646,156 603,0 912,-373 310,-373 310,-1098 z"
             transform="scale(0.015625)" />
          <path
             id="DejaVuSans-6f"
             d="m 1959,3097 q -462,0 -731,-361 -269,-361 -269,-989 0,-628 267,-989 268,-361 733,-361 460,0 728,362 269,363 269,988 0,622 -269,986 -268,364 -728,364 z m 0,487 q 750,0 1178,-488 429,-487 429,-1349 Q 3566,888 3137,398 2709,-91 1959,-91 1206,-91 779,398 353,888 353,1747 q 0,862 426,1349 427,488 1180,488 z"
             transform="scale(0.015625)" />
        </defs>
        <use
           xlink:href="#DejaVuSans-6e"
           id="use2334" />
        <use
           xlink:href="#DejaVuSans-6f"
           x="63.378906"
           id="use2336" />
        <use
           xlink:href="#DejaVuSans-6f"
           x="124.56055"
           id="use2338" />
        <use
           xlink:href="#DejaVuSans-6e"
           x="185.74219"
           id="use2340" />
      </g>
    </g>
  </g>
  <g
     id="xtick_5"
     transform="translate(0,-33.205279)">
    <g
       id="line2d_5">
      <g
         id="g2348">
        <use
           xlink:href="#mc5fa090a8d"
           x="285.56396"
           y="307.58401"
           style="stroke:#000000;stroke-width:0.8"
           id="use2346" />
      </g>
    </g>
    <g
       id="text_4">
      <!-- 3pm -->
      <g
         transform="matrix(0.1,0,0,-0.1,274.33817,322.18244)"
         id="g2361">
        <defs
           id="defs2353">
          <path
             id="DejaVuSans-33"
             d="m 2597,2516 q 453,-97 707,-404 255,-306 255,-756 0,-690 -475,-1069 -475,-378 -1350,-378 -293,0 -604,58 -311,58 -642,174 v 609 q 262,-153 574,-231 313,-78 654,-78 593,0 904,234 311,234 311,681 0,413 -289,645 -289,233 -804,233 h -544 v 519 h 569 q 465,0 712,186 247,186 247,536 0,359 -255,551 -254,193 -729,193 -260,0 -557,-57 -297,-56 -653,-174 v 562 q 360,100 674,150 314,50 592,50 719,0 1137,-327 419,-326 419,-882 0,-388 -222,-655 -222,-267 -631,-370 z"
             transform="scale(0.015625)" />
          <path
             id="DejaVuSans-70"
             d="M 1159,525 V -1331 H 581 v 4831 h 578 v -531 q 182,312 458,463 277,152 661,152 638,0 1036,-506 399,-506 399,-1331 0,-825 -399,-1332 -398,-506 -1036,-506 -384,0 -661,152 -276,152 -458,464 z m 1957,1222 q 0,634 -261,995 -261,361 -717,361 -457,0 -718,-361 -261,-361 -261,-995 0,-634 261,-995 261,-361 718,-361 456,0 717,361 261,361 261,995 z"
             transform="scale(0.015625)" />
        </defs>
        <use
           xlink:href="#DejaVuSans-33"
           id="use2355" />
        <use
           xlink:href="#DejaVuSans-70"
           x="63.623047"
           id="use2357" />
        <use
           xlink:href="#DejaVuSans-6d"
           x="127.09961"
           id="use2359" />
      </g>
    </g>
  </g>
  <g
     id="xtick_6"
     transform="translate(0,-33.205279)">
    <g
       id="line2d_6">
      <g
         id="g2367">
        <use
           xlink:href="#mc5fa090a8d"
           x="327.91019"
           y="307.58401"
           style="stroke:#000000;stroke-width:0.8"
           id="use2365" />
      </g>
    </g>
    <g
       id="text_5">
      <!-- 6pm -->
      <g
         transform="matrix(0.1,0,0,-0.1,316.68442,322.18244)"
         id="g2376">
        <use
           xlink:href="#DejaVuSans-36"
           id="use2370" />
        <use
           xlink:href="#DejaVuSans-70"
           x="63.623047"
           id="use2372" />
        <use
           xlink:href="#DejaVuSans-6d"
           x="127.09961"
           id="use2374" />
      </g>
    </g>
  </g>
  <g
     id="xtick_7"
     transform="translate(0,-33.205279)">
    <g
       id="line2d_7">
      <g
         id="g2382">
        <use
           xlink:href="#mc5fa090a8d"
           x="370.25644"
           y="307.58401"
           style="stroke:#000000;stroke-width:0.8"
           id="use2380" />
      </g>
    </g>
    <g
       id="text_6">
      <!-- 9pm -->
      <g
         transform="matrix(0.1,0,0,-0.1,359.03066,322.18244)"
         id="g2391">
        <use
           xlink:href="#DejaVuSans-39"
           id="use2385" />
        <use
           xlink:href="#DejaVuSans-70"
           x="63.623047"
           id="use2387" />
        <use
           xlink:href="#DejaVuSans-6d"
           x="127.09961"
           id="use2389" />
      </g>
    </g>
  </g>
  <g
     id="ytick_1"
     transform="translate(0,-33.205279)">
    <g
       id="line2d_8">
      <defs
         id="defs2431">
        <path
           id="mdbc75fe92c"
           d="M 0,0 H -3.5"
           style="stroke:#000000;stroke-width:0.8" />
      </defs>
      <g
         id="g2435">
        <use
           xlink:href="#mdbc75fe92c"
           x="57.599998"
           y="295.48801"
           style="stroke:#000000;stroke-width:0.8"
           id="use2433" />
      </g>
    </g>
    <g
       id="text_8">
      <!-- 0 -->
      <g
         transform="matrix(0.1,0,0,-0.1,44.2375,299.28722)"
         id="g2443">
        <defs
           id="defs2439">
          <path
             id="DejaVuSans-30"
             d="m 2034,4250 q -487,0 -733,-480 -245,-479 -245,-1442 0,-959 245,-1439 246,-480 733,-480 491,0 736,480 246,480 246,1439 0,963 -246,1442 -245,480 -736,480 z m 0,500 q 785,0 1199,-621 414,-620 414,-1801 0,-1178 -414,-1799 -414,-620 -1199,-620 -784,0 -1198,620 -414,621 -414,1799 0,1181 414,1801 414,621 1198,621 z"
             transform="scale(0.015625)" />
        </defs>
        <use
           xlink:href="#DejaVuSans-30"
           id="use2441" />
      </g>
    </g>
  </g>
  <g
     id="ytick_3"
     transform="translate(0,-33.205279)">
    <g
       id="line2d_10">
      <g
         id="g2467">
        <use
           xlink:href="#mdbc75fe92c"
           x="57.599998"
           y="222.10654"
           style="stroke:#000000;stroke-width:0.8"
           id="use2465" />
      </g>
    </g>
    <g
       id="text_10">
      <!-- 200 -->
      <g
         transform="matrix(0.1,0,0,-0.1,31.5125,225.90576)"
         id="g2479">
        <defs
           id="defs2471">
          <path
             id="DejaVuSans-32"
             d="M 1228,531 H 3431 V 0 H 469 v 531 q 359,372 979,998 621,627 780,809 303,340 423,576 121,236 121,464 0,372 -261,606 -261,235 -680,235 -297,0 -627,-103 -329,-103 -704,-313 v 638 q 381,153 712,231 332,78 607,78 725,0 1156,-363 431,-362 431,-968 0,-288 -108,-546 -107,-257 -392,-607 -78,-91 -497,-524 Q 1991,1309 1228,531 Z"
             transform="scale(0.015625)" />
        </defs>
        <use
           xlink:href="#DejaVuSans-32"
           id="use2473" />
        <use
           xlink:href="#DejaVuSans-30"
           x="63.623047"
           id="use2475" />
        <use
           xlink:href="#DejaVuSans-30"
           x="127.24609"
           id="use2477" />
      </g>
    </g>
  </g>
  <g
     id="ytick_5"
     transform="translate(0,-33.205279)">
    <g
       id="line2d_12">
      <g
         id="g2500">
        <use
           xlink:href="#mdbc75fe92c"
           x="57.599998"
           y="148.72508"
           style="stroke:#000000;stroke-width:0.8"
           id="use2498" />
      </g>
    </g>
    <g
       id="text_12">
      <!-- 400 -->
      <g
         transform="matrix(0.1,0,0,-0.1,31.5125,152.5243)"
         id="g2512">
        <defs
           id="defs2504">
          <path
             id="DejaVuSans-34"
             d="M 2419,4116 825,1625 h 1594 z m -166,550 h 794 V 1625 h 666 V 1100 H 3047 V 0 H 2419 V 1100 H 313 v 609 z"
             transform="scale(0.015625)" />
        </defs>
        <use
           xlink:href="#DejaVuSans-34"
           id="use2506" />
        <use
           xlink:href="#DejaVuSans-30"
           x="63.623047"
           id="use2508" />
        <use
           xlink:href="#DejaVuSans-30"
           x="127.24609"
           id="use2510" />
      </g>
    </g>
  </g>
  <g
     id="ytick_7"
     transform="translate(0,-33.205279)">
    <g
       id="line2d_14">
      <g
         id="g2536">
        <use
           xlink:href="#mdbc75fe92c"
           x="57.599998"
           y="75.343613"
           style="stroke:#000000;stroke-width:0.8"
           id="use2534" />
      </g>
    </g>
    <g
       id="text_14">
      <!-- 600 -->
      <g
         transform="matrix(0.1,0,0,-0.1,31.5125,79.142835)"
         id="g2545">
        <use
           xlink:href="#DejaVuSans-36"
           id="use2539" />
        <use
           xlink:href="#DejaVuSans-30"
           x="63.623047"
           id="use2541" />
        <use
           xlink:href="#DejaVuSans-30"
           x="127.24609"
           id="use2543" />
      </g>
    </g>
  </g>
  <g
     id="text_15"
     transform="translate(0,-33.205279)">
    <!-- Watt -->
    <g
       transform="matrix(0,-0.1,-0.1,0,25.432812,186.13737)"
       id="g2561">
      <defs
         id="defs2551">
        <path
           id="DejaVuSans-57"
           d="m 213,4666 h 637 l 981,-3944 978,3944 h 710 l 981,-3944 978,3944 h 641 L 4947,0 H 4153 L 3169,4050 2175,0 h -794 z"
           transform="scale(0.015625)" />
        <path
           id="DejaVuSans-74"
           d="M 1172,4494 V 3500 H 2356 V 3053 H 1172 V 1153 q 0,-428 117,-550 117,-122 477,-122 h 590 V 0 H 1766 Q 1100,0 847,248 594,497 594,1153 V 3053 H 172 v 447 h 422 v 994 z"
           transform="scale(0.015625)" />
      </defs>
      <use
         xlink:href="#DejaVuSans-57"
         id="use2553" />
      <use
         xlink:href="#DejaVuSans-61"
         x="92.501953"
         id="use2555" />
      <use
         xlink:href="#DejaVuSans-74"
         x="153.78125"
         id="use2557" />
      <use
         xlink:href="#DejaVuSans-74"
         x="192.99023"
         id="use2559" />
    </g>
  </g>
  <g
     id="line2d_15"
     transform="translate(0,-33.205279)">
    <path
       d="m 73.832727,222.14687 14.115415,-4.56234 14.115418,13.91257 14.11541,4.61621 14.11542,0.55682 14.11541,-1.83174 14.11542,-20.54237 14.11541,-33.58916 14.11542,7.42811 14.11541,8.03838 14.11542,-10.08181 14.11541,1.08248 14.11542,-8.1293 14.11541,11.1671 14.11542,-0.99803 14.11541,12.78154 14.11542,-47.62216 14.11541,33.55327 14.11542,-12.5773 14.11541,-73.8472 14.11542,28.1847 14.11541,10.85289 14.11542,32.77465 14.11541,30.40394"
       clip-path="url(#pe3618b19f9)"
       style="fill:none;stroke:#ff0000;stroke-width:1.5;stroke-linecap:square;stroke-opacity:0.5"
       id="path2565" />
    <defs
       id="defs2568">
      <path
         id="mdaff9797e3"
         d="M 0,1.5 C 0.397805,1.5 0.77937,1.341951 1.06066,1.06066 1.341951,0.77937 1.5,0.397805 1.5,0 1.5,-0.397805 1.341951,-0.77937 1.06066,-1.06066 0.77937,-1.341951 0.397805,-1.5 0,-1.5 c -0.397805,0 -0.77937,0.158049 -1.06066,0.43934 C -1.341951,-0.77937 -1.5,-0.397805 -1.5,0 c 0,0.397805 0.158049,0.77937 0.43934,1.06066 C -0.77937,1.341951 -0.397805,1.5 0,1.5 Z"
         style="stroke:#ff0000;stroke-opacity:0.5" />
    </defs>
    <g
       clip-path="url(#pe3618b19f9)"
       id="g2618">
      <use
         xlink:href="#mdaff9797e3"
         x="73.832726"
         y="222.14688"
         style="fill:#ff0000;fill-opacity:0.5;stroke:#ff0000;stroke-opacity:0.5"
         id="use2570" />
      <use
         xlink:href="#mdaff9797e3"
         x="87.948143"
         y="217.58453"
         style="fill:#ff0000;fill-opacity:0.5;stroke:#ff0000;stroke-opacity:0.5"
         id="use2572" />
      <use
         xlink:href="#mdaff9797e3"
         x="102.06356"
         y="231.4971"
         style="fill:#ff0000;fill-opacity:0.5;stroke:#ff0000;stroke-opacity:0.5"
         id="use2574" />
      <use
         xlink:href="#mdaff9797e3"
         x="116.17897"
         y="236.11331"
         style="fill:#ff0000;fill-opacity:0.5;stroke:#ff0000;stroke-opacity:0.5"
         id="use2576" />
      <use
         xlink:href="#mdaff9797e3"
         x="130.29439"
         y="236.67014"
         style="fill:#ff0000;fill-opacity:0.5;stroke:#ff0000;stroke-opacity:0.5"
         id="use2578" />
      <use
         xlink:href="#mdaff9797e3"
         x="144.40981"
         y="234.83839"
         style="fill:#ff0000;fill-opacity:0.5;stroke:#ff0000;stroke-opacity:0.5"
         id="use2580" />
      <use
         xlink:href="#mdaff9797e3"
         x="158.52522"
         y="214.29602"
         style="fill:#ff0000;fill-opacity:0.5;stroke:#ff0000;stroke-opacity:0.5"
         id="use2582" />
      <use
         xlink:href="#mdaff9797e3"
         x="172.64062"
         y="180.70686"
         style="fill:#ff0000;fill-opacity:0.5;stroke:#ff0000;stroke-opacity:0.5"
         id="use2584" />
      <use
         xlink:href="#mdaff9797e3"
         x="186.75604"
         y="188.13496"
         style="fill:#ff0000;fill-opacity:0.5;stroke:#ff0000;stroke-opacity:0.5"
         id="use2586" />
      <use
         xlink:href="#mdaff9797e3"
         x="200.87146"
         y="196.17334"
         style="fill:#ff0000;fill-opacity:0.5;stroke:#ff0000;stroke-opacity:0.5"
         id="use2588" />
      <use
         xlink:href="#mdaff9797e3"
         x="214.98688"
         y="186.09154"
         style="fill:#ff0000;fill-opacity:0.5;stroke:#ff0000;stroke-opacity:0.5"
         id="use2590" />
      <use
         xlink:href="#mdaff9797e3"
         x="229.10229"
         y="187.17401"
         style="fill:#ff0000;fill-opacity:0.5;stroke:#ff0000;stroke-opacity:0.5"
         id="use2592" />
      <use
         xlink:href="#mdaff9797e3"
         x="243.21771"
         y="179.04472"
         style="fill:#ff0000;fill-opacity:0.5;stroke:#ff0000;stroke-opacity:0.5"
         id="use2594" />
      <use
         xlink:href="#mdaff9797e3"
         x="257.33313"
         y="190.21182"
         style="fill:#ff0000;fill-opacity:0.5;stroke:#ff0000;stroke-opacity:0.5"
         id="use2596" />
      <use
         xlink:href="#mdaff9797e3"
         x="271.44855"
         y="189.21379"
         style="fill:#ff0000;fill-opacity:0.5;stroke:#ff0000;stroke-opacity:0.5"
         id="use2598" />
      <use
         xlink:href="#mdaff9797e3"
         x="285.56396"
         y="201.99533"
         style="fill:#ff0000;fill-opacity:0.5;stroke:#ff0000;stroke-opacity:0.5"
         id="use2600" />
      <use
         xlink:href="#mdaff9797e3"
         x="299.67938"
         y="154.37317"
         style="fill:#ff0000;fill-opacity:0.5;stroke:#ff0000;stroke-opacity:0.5"
         id="use2602" />
      <use
         xlink:href="#mdaff9797e3"
         x="313.79477"
         y="187.92644"
         style="fill:#ff0000;fill-opacity:0.5;stroke:#ff0000;stroke-opacity:0.5"
         id="use2604" />
      <use
         xlink:href="#mdaff9797e3"
         x="327.91019"
         y="175.34914"
         style="fill:#ff0000;fill-opacity:0.5;stroke:#ff0000;stroke-opacity:0.5"
         id="use2606" />
      <use
         xlink:href="#mdaff9797e3"
         x="342.0256"
         y="101.50195"
         style="fill:#ff0000;fill-opacity:0.5;stroke:#ff0000;stroke-opacity:0.5"
         id="use2608" />
      <use
         xlink:href="#mdaff9797e3"
         x="356.14102"
         y="129.68663"
         style="fill:#ff0000;fill-opacity:0.5;stroke:#ff0000;stroke-opacity:0.5"
         id="use2610" />
      <use
         xlink:href="#mdaff9797e3"
         x="370.25644"
         y="140.53954"
         style="fill:#ff0000;fill-opacity:0.5;stroke:#ff0000;stroke-opacity:0.5"
         id="use2612" />
      <use
         xlink:href="#mdaff9797e3"
         x="384.37186"
         y="173.31418"
         style="fill:#ff0000;fill-opacity:0.5;stroke:#ff0000;stroke-opacity:0.5"
         id="use2614" />
      <use
         xlink:href="#mdaff9797e3"
         x="398.48727"
         y="203.71812"
         style="fill:#ff0000;fill-opacity:0.5;stroke:#ff0000;stroke-opacity:0.5"
         id="use2616" />
    </g>
  </g>
  <g
     id="line2d_16"
     transform="translate(0,-33.205279)">
    <path
       d="m 73.832727,225.96968 14.115415,2.31537 14.115418,8.41992 14.11541,1.58527 14.11542,-1.35438 14.11541,1.67957 14.11542,-36.99898 14.11541,-22.91779 14.11542,16.64616 14.11541,10.77485 14.11542,-7.56064 14.11541,-11.87644 14.11542,-11.56412 14.11541,25.85267 14.11542,-4.3304 14.11541,-5.86745 14.11542,-41.35197 14.11541,-47.67749 14.11542,-26.183103 14.11541,58.133683 14.11542,13.34988 14.11541,16.41214 14.11542,11.32401 14.11541,28.84304"
       clip-path="url(#pe3618b19f9)"
       style="fill:none;stroke:#000000;stroke-width:1.5;stroke-linecap:square;stroke-opacity:0.5"
       id="path2621" />
  </g>
  <g
     id="line2d_17"
     transform="translate(0,-33.205279)">
    <path
       d="m 73.832727,194.81684 14.115415,-26.78399 14.115418,16.4187 14.11541,12.52371 14.11542,12.12232 14.11541,-5.44903 14.11542,-41.04261 14.11541,17.80704 14.11542,2.82818 14.11541,1.98409 14.11542,20.55108 14.11541,-16.54236 14.11542,-0.89246 14.11541,16.40175 14.11542,7.07885 14.11541,-11.72969 14.11542,-29.41293 14.11541,-46.75152 14.11542,-17.52635 14.11541,28.55461 14.11542,7.59017 14.11541,-6.00961 14.11542,7.70135 14.11541,44.53724"
       clip-path="url(#pe3618b19f9)"
       style="fill:none;stroke:#008000;stroke-width:1.5;stroke-dasharray:9.6, 2.4, 1.5, 2.4;stroke-dashoffset:0;stroke-opacity:0.5"
       id="path2624" />
  </g>
  <g
     id="text_16"
     transform="translate(249.33882,100.33846)">
    <!-- Treat -->
    <g
       transform="matrix(0.1,0,0,-0.1,94.6,58.070438)"
       id="g2647">
      <defs
         id="defs2635">
        <path
           id="DejaVuSans-72"
           d="m 2631,2963 q -97,56 -211,82 -114,27 -251,27 -488,0 -749,-317 -261,-317 -261,-911 V 0 H 581 v 3500 h 578 v -544 q 182,319 472,473 291,155 707,155 59,0 131,-8 72,-7 159,-23 z"
           transform="scale(0.015625)" />
      </defs>
      <path
         id="use2637"
         d="M -0.296875,72.90625 H 61.375 v -8.3125 H 35.5 V 0 H 25.59375 V 64.59375 H -0.296875 Z"
         style="stroke-width:0.015625" />
      <use
         xlink:href="#DejaVuSans-72"
         x="46.333984"
         id="use2639" />
      <path
         id="use2641"
         d="m 141.40039,29.59375 v -4.390625 h -41.3125 q 0.59375,-9.28125 5.59375,-14.140625 5,-4.859375 13.9375,-4.859375 5.17188,0 10.03125,1.265625 4.85938,1.265625 9.65625,3.8125 v -8.5 q -4.84375,-2.046875 -9.92187,-3.125 -5.07813,-1.078125 -10.29688,-1.078125 -13.09375,0 -20.734374,7.609375 -7.640625,7.625 -7.640625,20.625 0,13.421875 7.25,21.296875 Q 105.21289,56 117.52539,56 q 11.03125,0 17.45313,-7.109375 6.42187,-7.09375 6.42187,-19.296875 z m -8.98437,2.640625 q -0.0937,7.359375 -4.125,11.75 -4.03125,4.40625 -10.67188,4.40625 -7.51562,0 -12.03125,-4.25 -4.51562,-4.25 -5.20312,-11.96875 z"
         style="stroke-width:0.015625" />
      <use
         xlink:href="#DejaVuSans-61"
         x="146.7207"
         id="use2643" />
      <use
         xlink:href="#DejaVuSans-74"
         x="208"
         id="use2645" />
    </g>
  </g>
  <g
     id="text_17"
     transform="translate(263.19479,-19.702625)">
    <!-- Control -->
    <g
       transform="matrix(0.1,0,0,-0.1,94.6,72.748563)"
       id="g2671">
      <defs
         id="defs2655">
        <path
           id="DejaVuSans-43"
           d="m 4122,4306 v -665 q -319,297 -680,443 -361,147 -767,147 -800,0 -1225,-489 -425,-489 -425,-1414 0,-922 425,-1411 425,-489 1225,-489 406,0 767,147 361,147 680,444 V 359 Q 3791,134 3420,21 3050,-91 2638,-91 1578,-91 968,557 359,1206 359,2328 q 0,1125 609,1773 610,649 1670,649 418,0 788,-111 371,-111 696,-333 z"
           transform="scale(0.015625)" />
        <path
           id="DejaVuSans-6c"
           d="m 603,4863 h 575 V 0 H 603 Z"
           transform="scale(0.015625)" />
      </defs>
      <use
         xlink:href="#DejaVuSans-43"
         id="use2657" />
      <use
         xlink:href="#DejaVuSans-6f"
         x="69.824219"
         id="use2659" />
      <use
         xlink:href="#DejaVuSans-6e"
         x="131.00586"
         id="use2661" />
      <use
         xlink:href="#DejaVuSans-74"
         x="194.38477"
         id="use2663" />
      <use
         xlink:href="#DejaVuSans-72"
         x="233.59375"
         id="use2665" />
      <use
         xlink:href="#DejaVuSans-6f"
         x="272.45703"
         id="use2667" />
      <use
         xlink:href="#DejaVuSans-6c"
         x="333.63867"
         id="use2669" />
    </g>
  </g>
  <g
     id="text_18"
     transform="translate(121.83958,-126.27376)">
    <!-- Non-participants (trial days) -->
    <g
       transform="matrix(0.1,0,0,-0.1,94.6,87.426688)"
       id="g2743">
      <defs
         id="defs2683">
        <path
           id="DejaVuSans-4e"
           d="m 628,4666 h 850 L 3547,763 v 3903 h 612 V 0 H 3309 L 1241,3903 V 0 H 628 Z"
           transform="scale(0.015625)" />
        <path
           id="DejaVuSans-2d"
           d="M 313,2009 H 1997 V 1497 H 313 Z"
           transform="scale(0.015625)" />
        <path
           id="DejaVuSans-63"
           d="m 3122,3366 v -538 q -244,135 -489,202 -245,67 -495,67 -560,0 -870,-355 -309,-354 -309,-995 0,-641 309,-996 310,-354 870,-354 250,0 495,67 245,67 489,202 V 134 Q 2881,22 2623,-34 2366,-91 2075,-91 1284,-91 818,406 353,903 353,1747 q 0,856 470,1346 471,491 1290,491 265,0 518,-55 253,-54 491,-163 z"
           transform="scale(0.015625)" />
        <path
           id="DejaVuSans-73"
           d="m 2834,3397 v -544 q -243,125 -506,187 -262,63 -544,63 -428,0 -642,-131 -214,-131 -214,-394 0,-200 153,-314 153,-114 616,-217 l 197,-44 q 612,-131 870,-370 258,-239 258,-667 0,-488 -386,-773 Q 2250,-91 1575,-91 1294,-91 989,-36 684,19 347,128 v 594 q 319,-166 628,-249 309,-82 613,-82 406,0 624,139 219,139 219,392 0,234 -158,359 -157,125 -692,241 l -200,47 q -534,112 -772,345 -237,233 -237,639 0,494 350,762 350,269 994,269 318,0 599,-47 282,-46 519,-140 z"
           transform="scale(0.015625)" />
        <path
           id="DejaVuSans-28"
           d="m 1984,4856 q -418,-718 -622,-1422 -203,-703 -203,-1425 0,-721 205,-1429 205,-708 620,-1424 h -500 q -468,735 -701,1444 -233,709 -233,1409 0,697 231,1403 232,707 703,1444 z"
           transform="scale(0.015625)" />
        <path
           id="DejaVuSans-29"
           d="m 513,4856 h 500 q 468,-737 701,-1444 233,-706 233,-1403 0,-700 -233,-1409 -233,-709 -701,-1444 H 513 q 415,716 620,1424 205,708 205,1429 0,722 -205,1425 -205,704 -620,1422 z"
           transform="scale(0.015625)" />
      </defs>
      <g
         id="g3464"
         transform="translate(-733.71427,-1638.8571)">
        <use
           xlink:href="#DejaVuSans-4e"
           id="use2685" />
        <use
           xlink:href="#DejaVuSans-6f"
           x="74.804688"
           id="use2687" />
        <use
           xlink:href="#DejaVuSans-6e"
           x="135.98633"
           id="use2689" />
        <use
           xlink:href="#DejaVuSans-2d"
           x="199.36523"
           id="use2691" />
        <use
           xlink:href="#DejaVuSans-70"
           x="235.44922"
           id="use2693" />
        <use
           xlink:href="#DejaVuSans-61"
           x="298.92578"
           id="use2695" />
        <use
           xlink:href="#DejaVuSans-72"
           x="360.20508"
           id="use2697" />
        <use
           xlink:href="#DejaVuSans-74"
           x="401.31836"
           id="use2699" />
        <path
           id="use2701"
           d="m 449.94922,54.6875 h 8.98437 V 0 h -8.98437 z m 0,21.296875 h 8.98437 V 64.59375 h -8.98437 z"
           style="stroke-width:0.015625" />
        <use
           xlink:href="#DejaVuSans-63"
           x="468.31055"
           id="use2703" />
        <path
           id="use2705"
           d="m 532.71289,54.6875 h 8.98438 V 0 h -8.98438 z m 0,21.296875 h 8.98438 V 64.59375 h -8.98438 z"
           style="stroke-width:0.015625" />
        <use
           xlink:href="#DejaVuSans-70"
           x="551.07422"
           id="use2707" />
        <use
           xlink:href="#DejaVuSans-61"
           x="614.55078"
           id="use2709" />
        <use
           xlink:href="#DejaVuSans-6e"
           x="675.83008"
           id="use2711" />
        <use
           xlink:href="#DejaVuSans-74"
           x="739.20898"
           id="use2713" />
        <use
           xlink:href="#DejaVuSans-73"
           x="778.41797"
           id="use2715" />
      </g>
      <path
         id="use2717"
         d=""
         style="stroke-width:0.015625" />
      <path
         id="use2731"
         d=""
         style="stroke-width:0.015625" />
    </g>
  </g>
  <defs
     id="defs2752">
    <clipPath
       id="pe3618b19f9">
      <rect
         x="57.599998"
         y="41.472"
         width="357.12"
         height="266.112"
         id="rect2749" />
    </clipPath>
  </defs>
  <text
     xml:space="preserve"
     style="font-size:12px;line-height:1.25;font-family:'Foundry Sterling';-inkscape-font-specification:'Foundry Sterling';stroke-width:0.75"
     x="454.34735"
     y="63.531467"
     id="text3468"><tspan
       sodipodi:role="line"
       id="tspan3466"
       style="font-size:12px;stroke-width:0.75"
       x="454.34735"
       y="63.531467">564 W</tspan></text>
  <text
     xml:space="preserve"
     style="font-size:12px;line-height:1.25;font-family:'Foundry Sterling';-inkscape-font-specification:'Foundry Sterling';stroke-width:0.75"
     x="454.34735"
     y="92.838097"
     id="text3522"><tspan
       sodipodi:role="line"
       id="tspan3520"
       style="font-size:12px;stroke-width:0.75"
       x="454.34735"
       y="92.838097">491 W</tspan></text>
  <text
     xml:space="preserve"
     style="font-size:12px;line-height:1.25;font-family:'Foundry Sterling';-inkscape-font-specification:'Foundry Sterling';stroke-width:0.75"
     x="454.34735"
     y="152.99863"
     id="text3526"><tspan
       sodipodi:role="line"
       id="tspan3524"
       style="font-size:12px;stroke-width:0.75"
       x="454.34735"
       y="152.99863">310 W</tspan></text>
  <path
     style="fill:none;stroke:#cccccc;stroke-width:4;stroke-linecap:butt;stroke-linejoin:bevel;stroke-dasharray:none;stroke-dashoffset:0;stroke-opacity:1;marker-end:url(#TriangleStart);paint-order:normal"
     d="M 442.7342,88.386325 V 139.23442"
     id="path3794"
     sodipodi:nodetypes="cc" />
  <path
     style="fill:none;stroke:#cccccc;stroke-width:4;stroke-linecap:butt;stroke-linejoin:bevel;stroke-dasharray:none;stroke-dashoffset:0;stroke-opacity:1;marker-end:url(#TriangleStart);paint-order:normal"
     d="M 424.64487,59.756239 V 139.23442"
     id="path4753"
     sodipodi:nodetypes="cc" />
  <text
     xml:space="preserve"
     style="font-size:12px;line-height:1.25;font-family:'Foundry Sterling';-inkscape-font-specification:'Foundry Sterling';stroke-width:0.75"
     x="-126.91633"
     y="439.16986"
     id="text3725"
     transform="rotate(-90)"
     inkscape:transform-center-x="9.3030799"
     inkscape:transform-center-y="-0.51683777"><tspan
       sodipodi:role="line"
       id="tspan3723"
       style="font-size:12px;stroke-width:0.75"
       x="-126.91633"
       y="439.16986">22.6%</tspan></text>
  <text
     xml:space="preserve"
     style="font-size:12px;line-height:1.25;font-family:'Foundry Sterling';-inkscape-font-specification:'Foundry Sterling';stroke-width:0.75"
     x="-126.91633"
     y="420.61877"
     id="text3729"
     transform="rotate(-90)"><tspan
       sodipodi:role="line"
       id="tspan3727"
       style="font-size:12px;stroke-width:0.75"
       x="-126.91633"
       y="420.61877">29.0%</tspan></text>
  <path
     d="m 452.02788,148.47944 -144.96237,0"
     style="opacity:0.5;fill:none;stroke:#ff0000;stroke-width:1;stroke-linecap:square;stroke-dasharray:none;stroke-opacity:0.5"
     id="path4804"
     sodipodi:nodetypes="cc" />
  <g
     id="g4818"
     transform="translate(306.50027,3.8232906)"
     style="opacity:0.5">
    <path
       d="M 0.32915686,83.926688 H 76.6 l 61.3599,0"
       style="fill:none;stroke:#008000;stroke-width:1;stroke-dasharray:6.4, 1.6, 1, 1.6;stroke-dashoffset:0;stroke-opacity:0.5"
       id="path4816"
       sodipodi:nodetypes="ccc" />
  </g>
  <g
     id="line2d_19"
     transform="translate(347.24326,-9.8909944)"
     style="opacity:0.5">
    <path
       d="M -40.261735,69.248563 H 76.6 l 28.77674,0"
       style="fill:none;stroke:#000000;stroke-width:1;stroke-linecap:square;stroke-dasharray:none;stroke-opacity:0.5"
       id="path2650"
       sodipodi:nodetypes="ccc" />
  </g>
</svg>
