<?xml version="1.0" encoding="UTF-8" standalone="no"?>
<!-- Created with Inkscape (http://www.inkscape.org/) -->

<svg
   width="207.69792mm"
   height="223.04376mm"
   viewBox="0 0 207.69792 223.04376"
   version="1.1"
   id="svg55979"
   xml:space="preserve"
   inkscape:version="1.2.1 (9c6d41e4, 2022-07-14)"
   sodipodi:docname="oms.svg"
   xmlns:inkscape="http://www.inkscape.org/namespaces/inkscape"
   xmlns:sodipodi="http://sodipodi.sourceforge.net/DTD/sodipodi-0.dtd"
   xmlns="http://www.w3.org/2000/svg"
   xmlns:svg="http://www.w3.org/2000/svg"><sodipodi:namedview
     id="namedview55981"
     pagecolor="#ffffff"
     bordercolor="#666666"
     borderopacity="1.0"
     inkscape:showpageshadow="2"
     inkscape:pageopacity="0.0"
     inkscape:pagecheckerboard="0"
     inkscape:deskcolor="#d1d1d1"
     inkscape:document-units="mm"
     showgrid="false"
     inkscape:zoom="0.42696601"
     inkscape:cx="1009.448"
     inkscape:cy="394.645"
     inkscape:current-layer="layer1" /><defs
     id="defs55976" /><g
     inkscape:label="Layer 1"
     inkscape:groupmode="layer"
     id="layer1"
     transform="translate(262.70138,-120.76754)"><path
       style="fill:#0f1f47;stroke:none;stroke-width:0.264583;fill-opacity:1"
       d="m -262.70138,120.76754 v 207.96251 h 74.6125 21.16667 c 2.45824,0 6.70031,-0.82497 8.95668,0.15954 1.26126,0.5506 1.50018,4.14655 2.01136,5.39671 1.2102,2.96148 3.72586,5.73167 6.49446,7.31917 6.92362,3.96981 17.85514,2.50798 21.69583,-5.2025 l 0.52917,0.79375 5.82083,-5.29167 10.84792,-10.84792 6.08542,-6.61458 c -2.53392,-0.99139 -4.99137,2.8747 -6.61459,4.49792 l -16.93333,16.93333 -0.26458,-0.79375 h -0.52917 c -3.11203,4.55613 -8.09122,7.66551 -13.75833,7.09851 -9.86393,-0.9869 -16.25151,-12.29784 -11.55621,-21.12143 3.88699,-7.30408 13.49402,-10.40024 20.55204,-5.72664 1.94098,1.28508 4.5593,3.22316 4.7625,5.72664 2.88978,-2.0357 6.16638,-5.3123 8.20208,-8.20208 -2.81066,1.17634 -5.26229,3.23585 -6.87916,5.82083 h -0.26459 c -5.22975,-8.36109 -17.52388,-9.46838 -24.59593,-2.86438 -3.23876,3.02419 -4.49844,7.07073 -5.0374,11.33105 H -261.11388 V 122.09046 h 204.522918 v 205.05209 h -14.2875 c -0.0397,-14.43593 -22.17473,-22.55917 -29.368748,-8.46667 l -0.52917,-0.52916 -6.61458,6.08541 -10.84792,10.84792 -5.29166,5.82083 c 2.31933,0.80804 4.59978,-2.74769 6.08541,-4.23333 l 15.61042,-15.61042 c -0.75935,3.28057 -2.9845,5.10064 -5.29167,7.40834 l -9.26041,9.26041 c -1.45098,1.45098 -3.35783,2.88502 -4.23334,4.7625 2.28574,0.4699 3.83223,-1.98014 5.29167,-3.43958 l 12.17083,-12.17083 c -0.0106,2.80537 -2.10079,4.21666 -3.96875,6.08541 -3.38031,3.38032 -7.56602,6.67571 -10.31875,10.58334 2.60509,0.17489 3.82217,-1.70551 5.55625,-3.43959 2.96016,-2.96015 5.83671,-6.58442 9.26042,-8.99583 0.10583,2.05819 -1.58485,3.12261 -2.89983,4.49792 -2.51434,2.62943 -5.59435,5.23637 -7.6835,8.20208 4.54766,-0.36248 8.57779,-6.46165 11.64166,-9.525 0.59267,3.13187 -4.42383,5.84279 -6.08541,8.20208 2.71462,-1.13003 5.50333,-3.16732 6.87916,-5.82083 3.116798,2.3831 5.016498,5.22843 8.995838,6.42382 9.63083,2.89242 20.68512,-3.85392 20.90208,-14.36132 h 15.875 V 120.76754 H -262.70138 m 41.53958,51.18762 c -14.3129,2.58074 -11.55171,29.79949 3.96875,27.00602 14.65157,-2.63683 11.76047,-29.84235 -3.96875,-27.00602 m 70.37917,7.9e-4 c -14.25707,2.67124 -11.46492,29.78309 3.96875,27.00523 14.70264,-2.6461 11.80227,-29.96062 -3.96875,-27.00523 m -52.3875,0.40534 5.3049,8.73125 2.05025,3.70417 -2.06348,3.96875 -5.82084,9.78959 c 2.32119,-0.0275 2.96942,-1.60814 4.07432,-3.43959 1.73276,-2.87258 3.76502,-5.69092 5.1861,-8.73125 1.83383,2.77151 3.51499,5.64965 5.27844,8.46667 1.29169,2.06375 1.85896,3.69491 4.51114,3.70417 l -5.99466,-9.525 -2.36591,-4.12115 1.90474,-3.55177 5.3975,-8.99584 c -3.85366,0.0138 -6.80614,7.72822 -8.46667,10.84792 -2.52597,-3.05117 -4.58337,-10.83231 -8.99583,-10.84792 m 24.60625,0 v 26.19376 h 1.85208 v -12.96459 c 2.28018,0 10.36479,1.21656 10.58334,-1.5875 h -10.58334 v -10.31875 h 11.1125 v -1.32292 h -12.96458 m 48.68334,0 v 26.19376 h 1.5875 V 186.6488 c 3.01122,0 6.51695,-0.64347 8.52249,2.11772 1.81107,2.49317 2.82152,9.67476 6.29417,9.78853 -0.93477,-3.41736 -3.40915,-11.0871 -6.87916,-12.43542 4.89664,-2.18414 8.1444,-9.39483 2.1164,-12.86748 -3.13611,-1.80684 -8.14282,-0.89086 -11.6414,-0.89086 m 22.75416,0 v 26.19376 c 4.94242,0 11.014608,1.00356 15.345838,-1.87987 7.08025,-4.71434 7.24164,-18.17026 -0.26459,-22.63299 -4.33916,-2.58074 -10.252598,-1.6809 -15.081248,-1.6809 m -113.77083,1.13798 c 13.45327,-1.98702 15.80409,22.09165 3.43958,23.9178 -13.06936,1.9304 -15.5575,-22.12816 -3.43958,-23.9178 m 70.37917,0 c 13.55063,-2.00158 15.80621,22.13504 3.43958,23.91807 -13.02015,1.87695 -15.53554,-22.13161 -3.43958,-23.91807 m 22.225,11.56203 v -11.37709 c 2.72573,0 6.22723,-0.57811 8.73098,0.71014 3.39302,1.74599 3.62162,7.17153 0.51885,9.31546 -2.64001,1.8243 -6.21824,1.35149 -9.24983,1.35149 m 22.75416,12.17083 v -23.54792 c 4.18836,0 9.379478,-0.63421 12.964588,2.01427 5.91344,4.36933 5.76527,15.99751 -0.52917,19.95912 -3.56658,2.24472 -8.416388,1.57453 -12.435418,1.57453 m -122.76667,14.55208 c -0.35824,8.34179 -0.85778,17.45827 -2.38125,25.66459 h 5.02709 l 1.05833,-17.72709 h 0.26458 c 0.60775,4.11454 2.62996,8.24363 3.96796,12.17084 0.49795,1.46156 0.81888,3.9833 1.87563,5.13212 0.66516,0.72311 3.29618,0.65299 4.13703,0.26458 1.22475,-0.56594 1.46182,-3.18346 1.83832,-4.33837 1.42505,-4.3725 3.28401,-8.74898 4.32065,-13.22917 h 0.26458 l 1.32292,17.72709 h 5.02708 l -2.38125,-25.66459 -5.6859,0.272 -1.89891,4.75509 -4.32144,13.22916 -4.67439,-12.96458 -2.07222,-5.01967 -5.68881,-0.272 m 31.48542,25.66459 c 1.34673,0 4.59423,0.59558 5.59779,-0.42413 1.4949,-1.51924 0.59664,-4.73948 3.3991,-4.86251 1.79864,-0.0789 5.78776,-0.70194 7.33372,0.26696 1.44357,0.90435 1.11099,3.40016 2.21298,4.59555 0.94059,1.02023 4.23254,0.42413 5.53349,0.42413 -1.31154,-5.66923 -3.94652,-11.19241 -5.90232,-16.66875 -0.89535,-2.50746 -1.54411,-6.25846 -3.15304,-8.38253 -0.73395,-0.96917 -4.34552,-0.96335 -5.38586,-0.45376 -1.43087,0.70114 -2.21192,5.0038 -2.74267,6.45504 -2.31854,6.33941 -4.46379,12.75239 -6.89319,19.05 m 29.36875,-25.66459 v 25.66459 h 5.29167 v -10.05417 c 4.7498,5.3e-4 6.77175,6.00631 7.9375,10.05417 h 5.82083 c -0.80671,-3.39619 -3.35385,-10.44311 -6.87916,-11.64167 1.33297,-0.71067 2.79691,-1.16549 3.75999,-2.40586 2.61699,-3.37158 1.32424,-8.84052 -2.43708,-10.72329 -3.76502,-1.88463 -9.39562,-0.89377 -13.49375,-0.89377 m 22.48959,0 v 4.23334 h 6.87916 v 21.43125 h 5.55625 v -21.43125 h 6.87917 v -4.23334 h -19.31458 m 24.60625,0 v 25.66459 h 5.55625 v -25.66459 h -5.55625 m 12.17083,0 v 25.66459 h 5.02708 v -16.66875 h 0.26459 l 7.318368,11.90625 3.08769,4.49051 4.67519,0.27199 v -25.66459 h -5.02709 l 0.26459,16.66875 -7.39511,-11.64166 -3.243788,-4.75509 -4.97152,-0.272 m -53.975,11.37709 v -7.14375 c 1.6301,0 3.81979,-0.36592 5.26309,0.55271 1.98967,1.26683 1.61317,4.64609 -0.24765,5.83512 -1.41367,0.90303 -3.41365,0.75592 -5.01544,0.75592 m -22.48959,-5.29167 2.91042,10.05417 h -6.08542 c 0.24792,-2.84321 1.46183,-7.7642 3.175,-10.05417 m -32.27916,36.24792 c 1.80789,-1.56554 -0.65114,-2.73765 -2.11667,-3.25464 -2.54265,-0.89667 -6.22062,-0.78846 -8.4627,0.82047 -2.97762,2.13651 -3.42582,6.95166 -0.76994,9.52897 3.28983,3.19273 12.8016,4.10792 10.91592,10.63228 -1.71873,5.94598 -7.57238,3.92113 -11.47181,2.3196 -0.61912,-0.25426 -1.73328,-0.16113 -1.46658,0.81175 0.53261,1.94071 4.8514,2.64795 6.49261,2.68552 5.19959,0.11959 9.37921,-3.5097 8.34284,-8.99187 -1.2356,-6.53706 -13.51862,-5.48878 -12.81192,-12.43541 0.59928,-5.89148 8.23145,-4.76621 11.34825,-2.11667 m 27.51666,21.43125 -0.79375,-1.5875 h -0.26458 c -1.33906,0.91519 -2.89481,1.50627 -4.49792,1.77641 -13.44639,2.26801 -18.08638,-18.87484 -5.55625,-23.11188 3.92907,-1.32874 6.57649,0.29765 10.31875,0.96255 l 0.52917,-1.32291 c -1.85896,-1.21444 -3.86159,-1.84124 -6.08542,-1.85182 -3.03979,-0.0148 -5.90894,0.13282 -8.46666,2.014 -10.27325,7.55571 -5.36364,25.8109 7.9375,25.2275 2.41353,-0.10584 4.80271,-0.89906 6.87916,-2.10635 m 39.95209,-25.01265 c -14.22109,2.56408 -11.42021,29.73599 3.96875,26.96633 14.71401,-2.64795 11.88773,-29.82515 -3.96875,-26.96633 m 28.575,0 c -14.16632,2.55429 -11.39111,29.7307 3.96875,26.96633 14.77169,-2.65827 11.92477,-29.83177 -3.96875,-26.96633 m -62.44167,0.14182 v 26.45833 h 1.5875 v -12.96458 h 14.2875 v 12.96458 h 1.85208 v -20.37292 c 0,-2.08968 0.96864,-5.99281 -1.85208,-6.08541 v 11.90625 h -14.2875 v -11.90625 h -1.5875 m 83.07917,0 v 26.45833 h 13.493748 c -0.14817,-1.89204 -1.62983,-1.5875 -3.175,-1.5875 h -8.73125 v -24.87083 h -1.587498 m -49.2125,1.40996 c 13.76601,-2.41406 16.23536,21.85617 3.70417,23.87362 -12.77964,2.05766 -15.494,-21.80643 -3.70417,-23.87362 m 28.83958,-0.007 c 13.7967,-2.03782 15.83532,22.25702 3.175,23.92098 -12.69047,1.66767 -15.05188,-22.16679 -3.175,-23.92098 m -9.525,74.79745 7.9375,-7.67292 7.40834,-7.67292 c -2.31828,0.0497 -3.45546,1.33879 -5.02709,2.91042 -3.11785,3.11759 -10.11555,7.78378 -10.31875,12.43542 m 0.26459,4.23333 9.78958,-9.525 9.525,-9.78958 c -2.57228,-0.29475 -3.86424,1.74757 -5.55625,3.43958 l -10.31875,10.31875 c -1.73408,1.73408 -3.61447,2.95116 -3.43958,5.55625 m 1.05833,3.175 6.35,-5.82083 10.31875,-10.31875 4.7625,-5.29167 c -2.45057,-0.81359 -4.25132,2.13466 -5.82083,3.70417 -4.10422,4.10421 -8.06583,8.3304 -12.17084,12.43541 -1.45944,1.45945 -3.90948,3.00593 -3.43958,5.29167 m 26.72292,-17.4625 c -1.81504,-2.09524 -5.27288,2.89163 -6.61459,4.23333 l -12.96458,12.96459 c -0.85037,0.85037 -4.29736,3.36841 -3.8772,4.71831 0.43709,1.4052 2.11005,-0.31565 2.55428,-0.75089 2.1381,-2.09364 4.23387,-4.23254 6.35,-6.34867 1.9947,-1.99496 3.92351,-4.02326 5.84439,-6.08542 2.79691,-3.00249 5.80522,-5.82956 8.7077,-8.73125 z"
       id="path56112" /></g></svg>
