<?xml version="1.0" encoding="UTF-8" standalone="no"?>
<!-- Created with Inkscape (http://www.inkscape.org/) -->

<svg
   width="25.571293mm"
   height="23.442474mm"
   viewBox="0 0 25.571293 23.442474"
   version="1.1"
   id="svg46361"
   inkscape:version="1.2.1 (9c6d41e4, 2022-07-14)"
   sodipodi:docname="mcs.svg"
   xmlns:inkscape="http://www.inkscape.org/namespaces/inkscape"
   xmlns:sodipodi="http://sodipodi.sourceforge.net/DTD/sodipodi-0.dtd"
   xmlns="http://www.w3.org/2000/svg"
   xmlns:svg="http://www.w3.org/2000/svg">
  <sodipodi:namedview
     id="namedview46363"
     pagecolor="#ffffff"
     bordercolor="#666666"
     borderopacity="1.0"
     inkscape:showpageshadow="2"
     inkscape:pageopacity="0.0"
     inkscape:pagecheckerboard="0"
     inkscape:deskcolor="#d1d1d1"
     inkscape:document-units="mm"
     showgrid="false"
     inkscape:zoom="1.03011"
     inkscape:cx="-131.05397"
     inkscape:cy="249.97331"
     inkscape:current-layer="layer1" />
  <defs
     id="defs46358" />
  <g
     inkscape:label="Layer 1"
     inkscape:groupmode="layer"
     id="layer1"
     transform="translate(-5.2492879,-58.143382)">
    <path
       style="fill:#adcede;fill-opacity:1;stroke-width:0.0590752"
       d="m 22.51859,80.167771 c 4.347416,-4.695729 6.897614,-11.284562 5.467194,-14.125349 -0.832031,-1.652399 -3.483205,-2.55473 -5.756432,-1.959212 -0.408294,0.106961 -0.415066,0.106837 -0.535213,-0.0098 -0.06693,-0.06498 -0.312828,-0.300086 -0.546445,-0.522453 -0.506766,-0.482361 -0.495909,-0.408241 -0.09716,-0.663316 2.899784,-1.85497 7.002147,-1.692374 8.937753,0.354245 2.656174,2.808512 -1.411325,12.517911 -7.024119,16.767057 -0.806667,0.610685 -0.892094,0.641139 -0.445576,0.158847 z m -5.906994,-1.369888 c -0.112537,-0.132919 -0.112537,-0.132919 0.02038,-0.02038 0.124911,0.105758 0.159812,0.153301 0.112537,0.153301 -0.01121,0 -0.07102,-0.05981 -0.132919,-0.132919 z m -1.417804,-1.417805 c -0.112538,-0.132919 -0.112538,-0.132919 0.02038,-0.02038 0.124911,0.105757 0.159813,0.153301 0.112538,0.153301 -0.01121,0 -0.07102,-0.05981 -0.132919,-0.13292 z M 11.49967,75.63736 c -0.07348,-0.0937 -0.07139,-0.09579 0.0223,-0.0223 0.05686,0.04459 0.103382,0.09111 0.103382,0.103381 0,0.04862 -0.04851,0.01733 -0.125686,-0.08108 z m 10.552456,-2.732227 c 0.05881,-0.06498 0.120217,-0.118151 0.136463,-0.118151 0.01625,0 -0.01858,0.05317 -0.07739,0.118151 -0.05881,0.06498 -0.120217,0.11815 -0.136463,0.11815 -0.01625,0 0.01858,-0.05317 0.07739,-0.11815 z m -5.275712,-0.206764 c 0.0012,-0.09747 0.01444,-0.130198 0.02942,-0.07272 0.01498,0.05748 0.01399,0.13723 -0.0022,0.177225 -0.01618,0.04 -0.02844,-0.007 -0.02723,-0.104506 z m -2.360819,-0.265838 c 0,-0.11372 0.01216,-0.160241 0.02702,-0.103382 0.01486,0.05686 0.01486,0.149904 0,0.206764 -0.01486,0.05686 -0.02702,0.01034 -0.02702,-0.103382 z m -0.417904,0 c 0,-0.08123 0.01341,-0.114458 0.0298,-0.07384 0.01639,0.04061 0.01639,0.107074 0,0.147688 -0.01639,0.04061 -0.0298,0.0074 -0.0298,-0.07384 z m 3.192249,-0.02954 c 0.0012,-0.09747 0.01444,-0.130198 0.02942,-0.07272 0.01498,0.05748 0.01399,0.13723 -0.0022,0.177225 -0.01618,0.04 -0.02844,-0.007 -0.02723,-0.104506 z m 1.280602,0.04431 c -0.07348,-0.0937 -0.07139,-0.09579 0.0223,-0.0223 0.0984,0.07717 0.129699,0.125686 0.08108,0.125686 -0.01227,0 -0.05879,-0.04652 -0.103381,-0.103381 z m 3.443224,-0.25107 c 0,-0.08123 0.01341,-0.114458 0.0298,-0.07384 0.01639,0.04062 0.01639,0.107074 0,0.147688 -0.01639,0.04061 -0.0298,0.0074 -0.0298,-0.07384 z m -0.194089,-0.457832 c -0.07348,-0.0937 -0.07139,-0.09579 0.02231,-0.02231 0.0984,0.07717 0.129698,0.125686 0.08108,0.125686 -0.01227,0 -0.05879,-0.04652 -0.103382,-0.103381 z m -4.063988,-0.04923 c 0.0028,-0.06882 0.01683,-0.08282 0.03569,-0.03569 0.01707,0.04264 0.01497,0.0936 -0.0047,0.113228 -0.01963,0.01963 -0.03359,-0.01526 -0.03103,-0.07754 z m -0.93497,-0.172302 c 6.56e-4,-0.129966 0.01275,-0.176177 0.02688,-0.102693 0.01413,0.07348 0.01359,0.179819 -0.0012,0.236301 -0.01479,0.05648 -0.02635,-0.0036 -0.02569,-0.133608 z m -2.663953,-0.08861 c 0,-0.08123 0.01341,-0.114458 0.0298,-0.07384 0.01639,0.04061 0.01639,0.107074 0,0.147688 -0.01639,0.04061 -0.0298,0.0074 -0.0298,-0.07384 z m 0.415715,-0.08861 c 0.0012,-0.09747 0.01444,-0.130198 0.02942,-0.07272 0.01498,0.05748 0.01399,0.13723 -0.0022,0.177226 -0.01618,0.04 -0.02844,-0.007 -0.02723,-0.104506 z m 2.656195,0.02954 c 0,-0.08123 0.01341,-0.114459 0.0298,-0.07384 0.01639,0.04061 0.01639,0.107073 0,0.147688 -0.01639,0.04061 -0.0298,0.0074 -0.0298,-0.07384 z m -3.012835,-0.886128 c 0,-0.08123 0.01341,-0.114458 0.0298,-0.07384 0.01639,0.04061 0.01639,0.107074 0,0.147688 -0.01639,0.04061 -0.0298,0.0074 -0.0298,-0.07384 z m 2.955949,-0.206763 c 0.0012,-0.09748 0.01444,-0.130199 0.02942,-0.07272 0.01498,0.05748 0.01399,0.13723 -0.0022,0.177225 -0.01618,0.04 -0.02844,-0.007 -0.02723,-0.104505 z m 3.59207,-0.406294 c 0,-0.01227 0.04652,-0.05879 0.103381,-0.103381 0.0937,-0.07348 0.09579,-0.07139 0.0223,0.0223 -0.07717,0.0984 -0.125686,0.129699 -0.125686,0.08108 z m -3.544512,-2.003164 c 0,-0.08429 0.141107,-0.337539 0.18807,-0.337539 0.02802,0 0.0052,0.07311 -0.05068,0.162457 -0.13271,0.212132 -0.137392,0.218099 -0.137392,0.175082 z m 0.462778,-0.96647 c 0.484349,-0.962992 1.329041,-2.160914 1.940177,-2.75151 0.227566,-0.219917 0.227566,-0.219917 0.684561,0.08189 0.538885,0.355893 0.534456,0.342945 0.176388,0.515714 -0.870572,0.420054 -1.975799,1.353303 -2.622868,2.214739 -0.484893,0.645533 -0.526408,0.631365 -0.178258,-0.06084 z m 6.003735,0.141561 -0.293156,-0.310145 0.310145,0.293155 c 0.288192,0.272406 0.337237,0.327135 0.293155,0.327135 -0.0093,0 -0.148909,-0.139566 -0.310144,-0.310145 z M 5.2498988,62.768823 c 0.003,-0.06882 0.0168,-0.08282 0.0357,-0.03569 0.0171,0.04264 0.015,0.0936 -0.005,0.113228 -0.0196,0.01963 -0.0336,-0.01526 -0.031,-0.07754 z m 0.94054,-3.414205 c 0,-0.01227 0.0465,-0.05879 0.10338,-0.103381 0.0937,-0.07348 0.0958,-0.07139 0.0223,0.0223 -0.0772,0.0984 -0.12569,0.129698 -0.12569,0.08108 z m 3.3532,-1.200981 c 0.0735,-0.01413 0.17982,-0.01359 0.23631,0.0012 0.0565,0.01479 -0.004,0.02635 -0.13361,0.02569 -0.12997,-6.56e-4 -0.17618,-0.01275 -0.1027,-0.02688 z"
       id="path46507" />
    <path
       style="fill:#519fbe;fill-opacity:1;stroke-width:0.0590752"
       d="m 19.620198,81.503172 c 0,-0.04731 0.02259,-0.07206 0.05019,-0.05499 0.02761,0.01706 0.0349,0.05577 0.0162,0.08601 -0.04777,0.07729 -0.0664,0.06859 -0.0664,-0.03102 z m -0.255993,-0.08587 c 0,-0.03339 -0.04424,-0.04373 -0.0983,-0.02299 -0.07184,0.02757 -0.08513,0.01641 -0.04939,-0.04143 0.03605,-0.05832 0.02224,-0.06892 -0.05245,-0.04025 -0.06832,0.02621 -0.08758,0.01658 -0.05908,-0.02954 0.0285,-0.04612 0.0092,-0.05575 -0.05907,-0.02954 -0.06832,0.02622 -0.08758,0.01658 -0.05908,-0.02954 0.0285,-0.04612 0.0092,-0.05575 -0.05908,-0.02954 -0.06831,0.02622 -0.08758,0.01658 -0.05908,-0.02954 0.0285,-0.04612 0.0092,-0.05575 -0.05907,-0.02954 -0.06832,0.02622 -0.08758,0.01658 -0.05908,-0.02954 0.0285,-0.04612 0.0092,-0.05575 -0.05907,-0.02954 -0.06832,0.02621 -0.08758,0.01658 -0.05908,-0.02954 0.0285,-0.04612 0.0092,-0.05575 -0.05907,-0.02954 -0.06832,0.02622 -0.08758,0.01658 -0.05908,-0.02954 0.0285,-0.04612 0.0092,-0.05575 -0.05907,-0.02954 -0.06832,0.02621 -0.08758,0.01658 -0.05908,-0.02954 0.0285,-0.04612 0.0092,-0.05575 -0.05908,-0.02954 -0.06831,0.02622 -0.08758,0.01658 -0.05907,-0.02954 0.0285,-0.04612 0.0092,-0.05575 -0.05908,-0.02954 -0.06021,0.02311 -0.08672,0.01519 -0.06528,-0.0195 0.01985,-0.03212 0.0079,-0.0584 -0.02647,-0.0584 -0.03441,0 -0.07585,0 -0.0921,0 -0.01625,0 -0.08476,-0.05522 -0.152256,-0.122718 -0.0675,-0.06749 -0.161919,-0.107675 -0.209832,-0.08929 -0.04791,0.01838 -0.07352,0.01144 -0.05691,-0.01544 0.01661,-0.02688 -0.07907,-0.110283 -0.212616,-0.185343 -0.145532,-0.08179 -0.222749,-0.103363 -0.192724,-0.05384 0.02755,0.04545 -0.03842,-0.0052 -0.146618,-0.112664 -0.110863,-0.110066 -0.2333,-0.181262 -0.280544,-0.163133 -0.04638,0.0178 -0.06771,0.0061 -0.04774,-0.02623 0.0331,-0.05357 -0.04815,-0.08462 -0.167266,-0.06393 -0.02678,0.0047 -0.03186,-0.01878 -0.01128,-0.05208 0.03422,-0.05537 -0.0453,-0.08703 -0.165943,-0.06607 -0.02678,0.0047 -0.03186,-0.01878 -0.01128,-0.05208 0.03422,-0.05537 -0.0453,-0.08703 -0.165944,-0.06607 -0.02678,0.0047 -0.03186,-0.01878 -0.01128,-0.05208 0.03422,-0.05537 -0.0453,-0.08703 -0.165943,-0.06607 -0.02678,0.0047 -0.03515,-0.01346 -0.01859,-0.04026 0.01656,-0.02679 -0.02412,-0.08258 -0.0904,-0.123975 -0.09903,-0.06185 -0.112249,-0.06132 -0.07415,0.0029 0.0255,0.04301 -0.03745,-0.01022 -0.139872,-0.118287 -0.102425,-0.10807 -0.21171,-0.180742 -0.242856,-0.161493 -0.03114,0.01925 -0.07586,0.0039 -0.09938,-0.03417 -0.0267,-0.0432 -0.01714,-0.05334 0.02546,-0.02702 0.140434,0.08679 0.06191,-0.01443 -0.08676,-0.111843 -0.102112,-0.06691 -0.138488,-0.07426 -0.106657,-0.02156 0.02657,0.04399 -0.04863,-0.02208 -0.167106,-0.146805 -0.118476,-0.124728 -0.241439,-0.210692 -0.27325,-0.191031 -0.03181,0.01966 -0.07708,0.0046 -0.100587,-0.03342 -0.02844,-0.04601 -0.01497,-0.05451 0.04022,-0.02537 0.04563,0.02409 0.01726,-0.0096 -0.06306,-0.07486 -0.08032,-0.06526 -0.163706,-0.107737 -0.185301,-0.09439 -0.0216,0.01335 -0.07551,-0.02196 -0.119802,-0.07847 -0.07005,-0.08935 -0.06864,-0.09504 0.01086,-0.04366 0.05027,0.03249 0.02523,8.44e-4 -0.05564,-0.07033 -0.08087,-0.07117 -0.165512,-0.117986 -0.188091,-0.104032 -0.02258,0.01395 -0.07729,-0.02086 -0.121589,-0.07736 -0.07005,-0.08935 -0.06864,-0.09504 0.01087,-0.04366 0.05027,0.03249 0.02523,8.44e-4 -0.05564,-0.07033 -0.08087,-0.07117 -0.16466,-0.118513 -0.186197,-0.105202 -0.02154,0.01331 -0.102836,-0.04809 -0.180665,-0.136435 -0.141506,-0.160633 -0.141506,-0.160633 0.0094,-0.04248 0.08299,0.06498 0.03052,0.0073 -0.116605,-0.128233 -0.147125,-0.135511 -0.283311,-0.236612 -0.302635,-0.224669 -0.04517,0.02792 -1.428401,-1.357021 -1.391854,-1.393569 0.01511,-0.01511 -0.08367,-0.148365 -0.219517,-0.29612 -0.135846,-0.147755 -0.207116,-0.213835 -0.158379,-0.146843 0.08787,0.120787 0.08751,0.120874 -0.04291,0.01053 -0.07234,-0.0612 -0.118877,-0.131743 -0.103418,-0.156756 0.01546,-0.02501 -0.05947,-0.121151 -0.166507,-0.213637 -0.107037,-0.09249 -0.153543,-0.145297 -0.103345,-0.117355 0.0502,0.02794 -0.02836,-0.06281 -0.174568,-0.201675 -0.146211,-0.138862 -0.212671,-0.215695 -0.147688,-0.17074 0.09231,0.06386 0.08604,0.04337 -0.02865,-0.0937 -0.220555,-0.263576 -0.260648,-0.304332 -0.207187,-0.210617 0.03197,0.05605 0.02489,0.0691 -0.02183,0.04022 -0.03804,-0.02351 -0.05447,-0.06652 -0.03651,-0.09558 0.01796,-0.02906 -0.07876,-0.164251 -0.214927,-0.300422 -0.13617,-0.13617 -0.2102462,-0.228261 -0.1646122,-0.204645 0.04564,0.02362 0.0032,-0.02836 -0.09425,-0.115506 -0.09751,-0.08714 -0.141235,-0.138962 -0.09728,-0.11515 0.0542,0.02932 0.0472,-0.0067 -0.0216,-0.111667 -0.10151,-0.154922 -0.19175,-0.220577 -0.1115,-0.08112 0.0247,0.0429 0.02,0.05322 -0.0113,0.02461 -0.0296,-0.02708 -0.0571,-0.0736 -0.0612,-0.103381 -0.004,-0.02978 -0.0107,-0.07985 -0.0148,-0.111259 -0.004,-0.03141 -0.10686,-0.156576 -0.22843,-0.278152 -0.12158,-0.121575 -0.18607,-0.199431 -0.14333,-0.173013 0.0637,0.03939 0.0642,0.02636 0.002,-0.07248 -0.0414,-0.06628 -0.0972,-0.106963 -0.12398,-0.0904 -0.0268,0.01656 -0.0449,0.0082 -0.0403,-0.01859 0.0219,-0.125858 -0.0118,-0.199478 -0.0737,-0.161207 -0.0422,0.02606 -0.0522,0.01621 -0.0262,-0.02579 0.0237,-0.03831 -0.0303,-0.136673 -0.12379,-0.225554 -0.0912,-0.08669 -0.12591,-0.138 -0.0772,-0.11403 0.0788,0.03874 0.0788,0.03487 0,-0.03486 -0.0487,-0.04314 -0.0959,-0.113476 -0.10479,-0.1563 -0.0254,-0.122189 -0.19826,-0.364775 -0.25994,-0.364775 -0.0307,0 -0.0399,-0.02562 -0.0206,-0.05692 0.0193,-0.03131 -0.019,-0.111057 -0.0851,-0.177226 -0.0662,-0.06617 -0.12031,-0.133596 -0.12031,-0.149842 0,-0.01625 0,-0.05769 0,-0.0921 0,-0.03441 -0.0307,-0.04359 -0.0682,-0.02041 -0.0451,0.02786 -0.052,0.01599 -0.0205,-0.03501 0.0297,-0.04805 0.009,-0.105182 -0.0539,-0.151435 -0.0559,-0.04085 -0.0998,-0.08998 -0.0976,-0.109189 0.0133,-0.118269 -0.003,-0.155683 -0.0545,-0.123948 -0.0328,0.02029 -0.0438,-0.002 -0.025,-0.05102 0.0184,-0.04791 -0.0196,-0.140122 -0.0844,-0.204909 -0.0648,-0.06479 -0.10228,-0.133302 -0.0833,-0.152255 0.019,-0.01895 0.002,-0.03446 -0.0379,-0.03446 -0.0398,0 -0.056,-0.02658 -0.0359,-0.05908 0.0201,-0.03249 0.007,-0.05907 -0.0295,-0.05907 -0.0363,0 -0.0496,-0.02658 -0.0295,-0.05908 0.0201,-0.03249 0.008,-0.05908 -0.026,-0.05908 -0.0344,0 -0.0573,-0.01994 -0.0509,-0.04431 0.024,-0.09088 -0.0813,-0.310613 -0.13343,-0.278397 -0.0298,0.01841 -0.0396,-0.0044 -0.0219,-0.0506 0.0178,-0.04623 -0.008,-0.124202 -0.0569,-0.173261 -0.0491,-0.04906 -0.0727,-0.105654 -0.0526,-0.125767 0.0201,-0.02011 0.004,-0.03657 -0.0358,-0.03657 -0.0398,0 -0.056,-0.02658 -0.0359,-0.05908 0.0201,-0.03249 0.007,-0.05907 -0.0295,-0.05907 -0.0363,0 -0.0496,-0.02658 -0.0295,-0.05908 0.0201,-0.03249 0.007,-0.05908 -0.0295,-0.05908 -0.0363,0 -0.0511,-0.02418 -0.0328,-0.05374 0.0469,-0.07589 -0.0279,-0.247614 -0.0908,-0.208687 -0.0287,0.01775 -0.0347,-0.01335 -0.0133,-0.0691 0.0262,-0.06831 0.0166,-0.08758 -0.0295,-0.05908 -0.0447,0.02763 -0.0562,0.01051 -0.0332,-0.04938 0.0194,-0.05055 0.004,-0.09168 -0.0337,-0.09168 -0.0379,0 -0.0539,-0.02419 -0.0357,-0.05374 0.0469,-0.07588 -0.0279,-0.247614 -0.0908,-0.208686 -0.0287,0.01775 -0.0364,-0.009 -0.017,-0.05942 0.0194,-0.05042 0.007,-0.09168 -0.0284,-0.09168 -0.035,0 -0.0466,-0.04416 -0.0258,-0.0983 0.0252,-0.06565 0.015,-0.08425 -0.0307,-0.05601 -0.0447,0.02763 -0.0562,0.01052 -0.0333,-0.04938 0.0194,-0.05042 0.007,-0.09168 -0.0284,-0.09168 -0.035,0 -0.0466,-0.04416 -0.0258,-0.0983 0.0239,-0.06218 0.0144,-0.08386 -0.0259,-0.05899 -0.0412,0.02544 -0.0518,-0.0057 -0.0303,-0.08816 0.0227,-0.0867 0.0117,-0.114087 -0.0344,-0.08563 -0.0439,0.02713 -0.0553,0.0096 -0.0325,-0.04984 0.0194,-0.05043 0.007,-0.09168 -0.0284,-0.09168 -0.035,0 -0.0466,-0.04416 -0.0258,-0.0983 0.0268,-0.0699 0.0159,-0.08483 -0.0377,-0.05168 -0.0565,0.03494 -0.0649,0.01329 -0.0332,-0.08632 0.0268,-0.08431 0.0203,-0.119405 -0.0177,-0.09593 -0.0367,0.02271 -0.047,-0.01227 -0.0266,-0.09045 0.0214,-0.08168 0.0108,-0.113511 -0.0295,-0.08861 -0.0403,0.0249 -0.0509,-0.0069 -0.0295,-0.08861 0.0214,-0.08168 0.0108,-0.113512 -0.0295,-0.08861 -0.0403,0.0249 -0.0509,-0.0069 -0.0295,-0.08861 0.0214,-0.08168 0.0108,-0.113512 -0.0295,-0.08861 -0.0403,0.0249 -0.0509,-0.0069 -0.0295,-0.08861 0.0243,-0.09283 0.013,-0.114921 -0.0414,-0.0813 -0.0557,0.0344 -0.064,0.01226 -0.0325,-0.08677 0.0295,-0.09294 0.0218,-0.120343 -0.0256,-0.09106 -0.048,0.02965 -0.0559,-0.0053 -0.0273,-0.119563 0.0294,-0.117 0.0212,-0.149529 -0.0295,-0.118151 -0.0508,0.03138 -0.0589,-0.0012 -0.0295,-0.11815 0.0268,-0.106808 0.0195,-0.148443 -0.0217,-0.123019 -0.0395,0.02439 -0.05,-0.0081 -0.0289,-0.08904 0.0226,-0.0865 0.0116,-0.114062 -0.0342,-0.08576 -0.0479,0.02962 -0.0565,-0.0132 -0.0296,-0.147636 0.0243,-0.121396 0.0164,-0.176093 -0.0219,-0.152412 -0.037,0.02285 -0.0485,-0.02206 -0.0302,-0.117745 0.0202,-0.105476 0.008,-0.141557 -0.0372,-0.113426 -0.047,0.02905 -0.0555,-0.01477 -0.0289,-0.148093 0.026,-0.130246 0.0176,-0.176849 -0.0269,-0.149301 -0.0445,0.02751 -0.0551,-0.02972 -0.0339,-0.182809 0.0237,-0.171043 0.0159,-0.202254 -0.0339,-0.134243 -0.049,0.06699 -0.0562,0.02375 -0.0297,-0.177226 0.0259,-0.195681 0.0187,-0.242452 -0.0273,-0.177225 -0.0454,0.06446 -0.055,-0.02408 -0.0351,-0.324914 0.0186,-0.28242 0.0107,-0.366702 -0.0251,-0.265838 -0.0348,0.09808 -0.0529,-0.149931 -0.0541,-0.73844 -10e-4,-0.595517 0.0165,-0.84738 0.0537,-0.767977 0.0404,0.08598 0.0497,0.03425 0.0343,-0.190003 -0.0135,-0.19657 2.9e-4,-0.294853 0.0382,-0.271422 0.0379,0.02343 0.0457,-0.03185 0.0216,-0.152616 -0.0267,-0.133398 -0.0181,-0.177149 0.0289,-0.148062 0.0468,0.02892 0.0547,-0.0071 0.0263,-0.120164 -0.0287,-0.114285 -0.0207,-0.149213 0.0273,-0.119564 0.0474,0.02928 0.0551,0.0019 0.0256,-0.09106 -0.0316,-0.09961 -0.0233,-0.121255 0.0333,-0.08632 0.0536,0.03315 0.0645,0.01822 0.0377,-0.05168 -0.0208,-0.05414 -0.009,-0.0983 0.0258,-0.0983 0.0349,0 0.0477,-0.04126 0.0284,-0.09168 -0.023,-0.0599 -0.0115,-0.07702 0.0332,-0.04939 0.0461,0.02851 0.0558,0.0092 0.0295,-0.05907 -0.0262,-0.06831 -0.0166,-0.08758 0.0295,-0.05907 0.0461,0.0285 0.0558,0.0092 0.0295,-0.05907 -0.0231,-0.06021 -0.0152,-0.08672 0.0195,-0.06528 0.0536,0.0331 0.0846,-0.04815 0.0639,-0.167266 -0.005,-0.02678 0.0121,-0.03617 0.0373,-0.02085 0.0252,0.01531 0.0977,-0.04253 0.16117,-0.128528 0.075,-0.101673 0.0842,-0.135706 0.0263,-0.0973 -0.049,0.03249 -0.01,-0.0074 0.0871,-0.08861 0.27778,-0.232709 0.38587,-0.336769 0.27612,-0.265839 -0.0792,0.05118 -0.0808,0.0455 -0.0119,-0.04242 0.0437,-0.05582 0.0969,-0.0992 0.11815,-0.09639 0.11722,0.01549 0.18869,-0.01634 0.15589,-0.06942 -0.0206,-0.0333 -0.0155,-0.05673 0.0113,-0.05208 0.11912,0.02069 0.20037,-0.01037 0.16727,-0.06393 -0.0214,-0.03469 0.005,-0.0426 0.0653,-0.0195 0.0683,0.02622 0.0876,0.01658 0.0591,-0.02954 -0.0285,-0.04612 -0.009,-0.05575 0.0591,-0.02954 0.0742,0.02848 0.0884,0.01794 0.053,-0.03934 -0.0307,-0.04969 -0.0254,-0.06406 0.0145,-0.03939 0.0873,0.05396 0.25821,-0.01984 0.21349,-0.0922 -0.023,-0.03717 0.0129,-0.04351 0.0964,-0.01702 0.0843,0.02676 0.11941,0.02029 0.0959,-0.0177 -0.0227,-0.03674 0.0123,-0.04701 0.0905,-0.02656 0.0781,0.02043 0.11316,0.01017 0.0905,-0.02651 -0.0228,-0.03686 0.0247,-0.05 0.12368,-0.03422 0.12664,0.0202 0.1419,0.01215 0.0721,-0.03799 -0.0673,-0.04828 -0.0388,-0.05532 0.11816,-0.02919 0.15893,0.02647 0.18626,0.01942 0.11815,-0.03046 -0.0673,-0.0493 -0.0247,-0.05736 0.17722,-0.03354 0.19371,0.02284 0.23378,0.0161 0.14769,-0.02486 -0.0834,-0.03966 -0.005,-0.04889 0.26584,-0.03135 0.26919,0.01743 0.33983,0.0092 0.2363,-0.02749 -0.0991,-0.03513 0.1147,-0.05235 0.64983,-0.05235 0.5320352,0 0.7483362,0.01732 0.6498072,0.05203 -0.102919,0.03626 -0.02429,0.04528 0.2594,0.02978 0.276542,-0.01511 0.380736,-0.0037 0.324914,0.03557 -0.05613,0.03949 0.01144,0.04809 0.213201,0.02713 0.212461,-0.02207 0.26221,-0.01488 0.177226,0.02564 -0.08667,0.04132 -0.05009,0.04782 0.137267,0.02442 0.187375,-0.02341 0.243943,-0.01334 0.212346,0.03779 -0.03131,0.05065 0.0087,0.05935 0.146277,0.03182 0.133398,-0.02668 0.177148,-0.01813 0.148063,0.02893 -0.02892,0.04679 0.0071,0.05466 0.120163,0.02628 0.117001,-0.02936 0.149529,-0.02123 0.118151,0.02954 -0.03138,0.05077 0.0012,0.0589 0.11815,0.02954 0.117,-0.02936 0.149528,-0.02123 0.11815,0.02954 -0.03138,0.05077 0.0012,0.0589 0.118151,0.02954 0.117785,-0.02956 0.149623,-0.02139 0.117724,0.03023 -0.0307,0.04968 -0.0058,0.06083 0.08366,0.03744 0.07006,-0.01832 0.127388,-0.0074 0.127388,0.02421 0,0.03177 0.05621,0.03969 0.125548,0.01768 0.09015,-0.02861 0.113049,-0.01962 0.08122,0.03189 -0.0322,0.0521 -0.008,0.06019 0.08861,0.02954 0.09656,-0.03065 0.120815,-0.02257 0.08861,0.02954 -0.0322,0.0521 -0.008,0.06019 0.08861,0.02954 0.09656,-0.03065 0.120814,-0.02257 0.08861,0.02954 -0.0322,0.0521 -0.008,0.06019 0.08861,0.02954 0.09656,-0.03065 0.120814,-0.02257 0.08861,0.02954 -0.0322,0.0521 -0.008,0.06019 0.08861,0.02954 0.09961,-0.03162 0.121256,-0.02328 0.08632,0.03325 -0.03315,0.05364 -0.01822,0.06454 0.05168,0.03772 0.05414,-0.02078 0.0983,-0.0092 0.0983,0.02582 0,0.03495 0.04126,0.04771 0.09168,0.02836 0.05746,-0.02205 0.07675,-0.01102 0.05168,0.02955 -0.02704,0.04375 0.0031,0.05105 0.09294,0.02253 0.09961,-0.03162 0.121256,-0.02328 0.08632,0.03325 -0.03315,0.05364 -0.01822,0.06454 0.05168,0.03772 0.05407,-0.02075 0.0983,-0.01281 0.0983,0.01764 0,0.03045 0.04424,0.03839 0.0983,0.01765 0.06165,-0.02366 0.0838,-0.01426 0.05942,0.0252 -0.0438,0.07087 0.119173,0.152776 0.202064,0.101547 0.02956,-0.01827 0.05374,-0.0022 0.05374,0.03567 0,0.03798 0.04113,0.0531 0.09168,0.0337 0.05042,-0.01935 0.07716,-0.01169 0.05941,0.01703 -0.03893,0.06299 0.132801,0.137731 0.208687,0.09083 0.02956,-0.01827 0.05374,-0.0035 0.05374,0.03283 0,0.03633 0.02658,0.04962 0.05908,0.02954 0.03249,-0.02008 0.05907,-0.0068 0.05907,0.02954 0,0.03633 0.02658,0.04962 0.05908,0.02954 0.03249,-0.02008 0.05907,-0.0068 0.05907,0.02954 0,0.03633 0.02658,0.04962 0.05908,0.02954 0.03249,-0.02008 0.05907,-0.01158 0.05907,0.01889 0,0.05891 0.353578,0.225612 0.428295,0.201925 0.02437,-0.0077 0.04431,0.01411 0.04431,0.04852 0,0.03441 0.02658,0.04613 0.05907,0.02605 0.03249,-0.02008 0.05908,-0.0068 0.05908,0.02954 0,0.03633 0.02658,0.04962 0.05907,0.02954 0.03249,-0.02008 0.05908,-0.0068 0.05908,0.02954 0,0.03633 0.0238,0.05134 0.05289,0.03336 0.02909,-0.01798 0.06919,0.0098 0.08911,0.06172 0.02131,0.05554 0.07377,0.08 0.127409,0.05941 0.05218,-0.02002 0.07575,-0.01001 0.05509,0.02341 -0.03173,0.05135 0.0057,0.06779 0.123948,0.05447 0.0192,-0.0022 0.06834,0.04177 0.109188,0.09764 0.04625,0.06326 0.103381,0.08358 0.151436,0.05388 0.05101,-0.03152 0.06288,-0.02457 0.03501,0.02051 -0.03704,0.05993 -0.0039,0.07799 0.11789,0.06427 0.0192,-0.0022 0.06573,0.03456 0.103381,0.0816 0.108102,0.13506 0.4299,0.326128 0.366662,0.217706 -0.02843,-0.04874 0.01924,-0.01401 0.105927,0.07717 0.08888,0.09349 0.187239,0.147471 0.225554,0.123791 0.042,-0.02596 0.05185,-0.01595 0.02579,0.02621 -0.03827,0.06193 0.03535,0.0956 0.161207,0.07373 0.02678,-0.0046 0.03186,0.01878 0.01128,0.05208 -0.03422,0.05537 0.0453,0.08703 0.165944,0.06607 0.02678,-0.0046 0.03515,0.01346 0.01859,0.04025 -0.01656,0.02679 0.02412,0.08258 0.0904,0.123976 0.09896,0.0618 0.112964,0.06128 0.07831,-0.0029 -0.02321,-0.04301 0.02053,-0.0098 0.0972,0.07378 0.198903,0.216856 0.385274,0.351353 0.321485,0.232003 -0.02605,-0.04874 0.02394,-0.0089 0.111084,0.08861 0.08714,0.09747 0.140312,0.13735 0.11815,0.08861 -0.02216,-0.04874 0.03101,-0.0089 0.118151,0.08861 0.08714,0.09747 0.139724,0.13735 0.116844,0.08861 -0.02288,-0.04874 0.03501,-0.0074 0.128647,0.09186 0.257045,0.272484 0.543105,0.501136 0.439384,0.351207 -0.04495,-0.06498 0.03188,0.0015 0.170741,0.147688 0.138862,0.146211 0.218614,0.21267 0.177225,0.147688 -0.04139,-0.06498 0.03723,0.0015 0.174708,0.147688 0.137477,0.146211 0.230765,0.225962 0.207307,0.177225 -0.05986,-0.124358 0.241067,0.146492 1.109654,0.998754 0.412525,0.404771 0.738151,0.755192 0.723614,0.778713 -0.01454,0.02352 0.10654,0.154096 0.269059,0.290165 0.16252,0.136069 0.284439,0.26528 0.270932,0.287135 -0.01351,0.02186 0.04628,0.120084 0.132862,0.218287 0.08658,0.0982 0.130837,0.137638 0.09835,0.08763 -0.05133,-0.079 -0.04561,-0.08036 0.04366,-0.01038 0.0565,0.0443 0.08809,0.104233 0.07019,0.133193 -0.0179,0.02896 0.108561,0.192098 0.281021,0.362526 0.17246,0.170429 0.260503,0.273699 0.195651,0.229488 -0.06485,-0.04421 -0.02487,0.0058 0.08885,0.11117 0.11372,0.105354 0.166888,0.172833 0.11815,0.149954 -0.04874,-0.02288 -0.0089,0.0297 0.08861,0.116845 0.09747,0.08714 0.13735,0.140312 0.08861,0.11815 -0.04874,-0.02216 -0.0089,0.03101 0.08861,0.118151 0.09747,0.08714 0.141238,0.138962 0.09725,0.11515 -0.05415,-0.02932 -0.04719,0.0067 0.02156,0.111667 0.09741,0.148673 0.198635,0.227192 0.111842,0.08676 -0.02632,-0.0426 -0.01618,-0.05215 0.02702,-0.02546 0.03804,0.02351 0.05342,0.06823 0.03417,0.09938 -0.01925,0.03114 0.05342,0.140431 0.161494,0.242856 0.10807,0.102426 0.156615,0.165842 0.107878,0.140927 -0.04874,-0.02492 -0.02215,0.01248 0.05907,0.0831 0.08123,0.07062 0.107813,0.110497 0.05908,0.08861 -0.04874,-0.02188 -0.02215,0.01799 0.05908,0.08861 0.08123,0.07062 0.107812,0.110498 0.05907,0.08861 -0.04874,-0.02188 -0.02215,0.01799 0.05908,0.08861 0.08123,0.07062 0.107812,0.110497 0.05907,0.08861 -0.04874,-0.02188 -0.02215,0.01799 0.05908,0.08861 0.08123,0.07062 0.107813,0.110832 0.05908,0.08936 -0.05245,-0.02311 -0.04482,-0.0033 0.0187,0.04857 0.05902,0.04819 0.105545,0.103327 0.103382,0.122531 -0.01311,0.116331 0.0025,0.156037 0.04996,0.126735 0.02964,-0.01832 0.04791,0.0074 0.0406,0.05721 -0.01761,0.119966 -0.112853,0.116225 -0.130664,-0.0051 -0.0077,-0.05261 -0.02268,-0.09986 -0.03324,-0.105006 -0.157259,-0.07662 -0.255907,-0.150539 -0.257596,-0.19302 -0.0038,-0.09501 -0.154384,-0.329377 -0.189252,-0.294509 -0.04561,0.0456 -0.198692,-0.08454 -0.164506,-0.139849 0.01476,-0.02388 -0.09852,-0.175535 -0.25172,-0.337008 -0.153206,-0.161472 -0.212097,-0.212026 -0.130868,-0.112342 0.147688,0.181245 0.147688,0.181245 -0.04221,0.0097 -0.104442,-0.09432 -0.178928,-0.189241 -0.165525,-0.210928 0.03133,-0.0507 -1.117274,-1.197101 -1.158299,-1.156076 -0.01697,0.01697 -0.108664,-0.05527 -0.203769,-0.160527 -0.172919,-0.191374 -0.172919,-0.191374 0.0081,-0.04369 0.09955,0.08123 0.0509,0.02116 -0.108113,-0.133481 -0.159013,-0.154643 -0.310016,-0.268251 -0.335562,-0.252463 -0.02555,0.01579 -0.09652,-0.03048 -0.157725,-0.102819 -0.110308,-0.130381 -0.11022,-0.130755 0.01012,-0.04291 0.06677,0.04874 0.04251,0.01661 -0.05391,-0.07139 -0.09642,-0.088 -0.19456,-0.148111 -0.218088,-0.13357 -0.02353,0.01454 -0.07902,-0.01979 -0.123316,-0.07629 -0.07005,-0.08935 -0.06864,-0.09504 0.01086,-0.04366 0.05027,0.03249 0.02524,8.45e-4 -0.05564,-0.07033 -0.08087,-0.07117 -0.166687,-0.11726 -0.190702,-0.102418 -0.02402,0.01484 -0.0629,-0.0041 -0.08641,-0.04218 -0.02844,-0.04601 -0.01497,-0.05451 0.04022,-0.02537 0.04563,0.02408 0.01726,-0.0096 -0.06306,-0.07487 -0.08032,-0.06526 -0.164881,-0.10701 -0.187912,-0.09278 -0.02303,0.01423 -0.06111,-0.0052 -0.08462,-0.04328 -0.02835,-0.04587 -0.0148,-0.05467 0.04023,-0.02612 0.04563,0.02367 0.03253,0.002 -0.02911,-0.04806 -0.06165,-0.05011 -0.132915,-0.07823 -0.158375,-0.06249 -0.02546,0.01573 -0.06553,-0.0025 -0.08904,-0.04056 -0.0267,-0.0432 -0.01714,-0.05334 0.02546,-0.02701 0.180574,0.1116 0.03631,-0.02654 -0.212404,-0.203399 -0.154334,-0.109742 -0.254023,-0.159516 -0.221532,-0.110607 0.03249,0.04891 -0.0037,0.02121 -0.08033,-0.06155 -0.07667,-0.08276 -0.118392,-0.112019 -0.09271,-0.06502 0.06391,0.116985 -0.323328,-0.150867 -0.498037,-0.344493 -0.07667,-0.08497 -0.120887,-0.11462 -0.09825,-0.06588 0.02263,0.04874 -0.01664,0.02215 -0.08726,-0.05907 -0.07062,-0.08123 -0.110498,-0.107812 -0.08861,-0.05908 0.02188,0.04874 -0.009,0.03212 -0.06872,-0.03692 -0.146894,-0.169944 -0.47769,-0.380159 -0.406705,-0.258455 0.02843,0.04874 -0.01785,0.01551 -0.102846,-0.07384 -0.162551,-0.17089 -0.252462,-0.213254 -0.188069,-0.08861 0.02098,0.04061 -0.01368,0.01021 -0.07702,-0.06757 -0.07367,-0.09046 -0.142667,-0.124422 -0.191479,-0.09425 -0.05017,0.03101 -0.06187,0.0238 -0.03416,-0.02104 0.02318,-0.03751 0.014,-0.0682 -0.02041,-0.0682 -0.03441,0 -0.07585,0 -0.0921,0 -0.01625,0 -0.08476,-0.05522 -0.152256,-0.122718 -0.06749,-0.06749 -0.161919,-0.107676 -0.209831,-0.08929 -0.05593,0.02146 -0.07197,0.0089 -0.04482,-0.03501 0.0285,-0.04612 0.0092,-0.05575 -0.05907,-0.02954 -0.06832,0.02622 -0.08758,0.01658 -0.05908,-0.02954 0.0285,-0.04612 0.0092,-0.05575 -0.05907,-0.02954 -0.06832,0.02621 -0.08758,0.01658 -0.05908,-0.02954 0.0285,-0.04612 0.0092,-0.05575 -0.05907,-0.02954 -0.06832,0.02622 -0.08758,0.01658 -0.05908,-0.02954 0.0285,-0.04612 0.0092,-0.05575 -0.05908,-0.02954 -0.06832,0.02621 -0.08758,0.01658 -0.05908,-0.02954 0.0285,-0.04612 0.0092,-0.05575 -0.05907,-0.02954 -0.06832,0.02622 -0.08758,0.01658 -0.05908,-0.02954 0.0285,-0.04612 0.0092,-0.05575 -0.05907,-0.02954 -0.05576,0.02139 -0.08685,0.01541 -0.06911,-0.01331 0.03893,-0.06299 -0.132801,-0.137731 -0.208687,-0.09083 -0.02956,0.01827 -0.05374,0.0022 -0.05374,-0.03567 0,-0.03798 -0.04113,-0.0531 -0.09168,-0.0337 -0.05042,0.01935 -0.07716,0.01169 -0.05941,-0.01703 0.03893,-0.06299 -0.132801,-0.137732 -0.208687,-0.09083 -0.02956,0.01827 -0.05374,0.0022 -0.05374,-0.03567 0,-0.03798 -0.04113,-0.0531 -0.09168,-0.0337 -0.0599,0.02299 -0.07702,0.01146 -0.04938,-0.03326 0.02825,-0.0457 0.0096,-0.05591 -0.05601,-0.03072 -0.05414,0.02078 -0.0983,0.0092 -0.0983,-0.02582 0,-0.03495 -0.04126,-0.04771 -0.09168,-0.02836 -0.05944,0.02281 -0.07697,0.01137 -0.04984,-0.03252 0.02846,-0.04605 0.0011,-0.05704 -0.08563,-0.03437 -0.07819,0.02045 -0.113157,0.01018 -0.09045,-0.02656 0.02348,-0.03798 -0.01162,-0.04446 -0.09593,-0.0177 -0.09656,0.03065 -0.120815,0.02257 -0.08861,-0.02954 0.0322,-0.0521 0.008,-0.06019 -0.08861,-0.02954 -0.09656,0.03065 -0.120814,0.02257 -0.08861,-0.02954 0.0322,-0.0521 0.008,-0.06019 -0.08861,-0.02954 -0.09903,0.03143 -0.121168,0.02314 -0.08677,-0.03251 0.03362,-0.05441 0.01153,-0.06565 -0.0813,-0.04138 -0.0809,0.02116 -0.11343,0.01062 -0.08904,-0.02885 0.02542,-0.04114 -0.01621,-0.04847 -0.123019,-0.02166 -0.117,0.02936 -0.149528,0.02123 -0.118151,-0.02954 0.03138,-0.05077 -0.0012,-0.0589 -0.11815,-0.02954 -0.117,0.02936 -0.149528,0.02123 -0.11815,-0.02954 0.03138,-0.05077 -0.0012,-0.0589 -0.118151,-0.02954 -0.116492,0.02924 -0.149468,0.02114 -0.118421,-0.0291 0.03168,-0.05127 -0.01762,-0.0591 -0.187045,-0.02971 -0.176497,0.03061 -0.209437,0.02453 -0.141459,-0.02613 0.06786,-0.05057 0.02634,-0.05781 -0.177225,-0.03089 -0.146211,0.01933 -0.235147,0.01483 -0.197636,-0.01 0.03751,-0.02483 -0.380192,-0.04514 -0.92823,-0.04514 -0.548039,0 -0.950904,0.01931 -0.895256,0.04291 0.05565,0.0236 -0.0024,0.02657 -0.128894,0.0066 -0.168639,-0.02662 -0.218583,-0.01773 -0.187044,0.0333 0.03105,0.05023 -0.0019,0.05834 -0.118422,0.0291 -0.121306,-0.03045 -0.150074,-0.02212 -0.115702,0.0335 0.03351,0.05422 0.01216,0.06336 -0.0798,0.03417 -0.07287,-0.02313 -0.125548,-0.01417 -0.125548,0.02135 0,0.03366 -0.04424,0.04423 -0.0983,0.02348 -0.07184,-0.02757 -0.08513,-0.01641 -0.04938,0.04143 0.03575,0.05784 0.02245,0.069 -0.04939,0.04143 -0.05407,-0.02075 -0.0983,-0.0104 -0.0983,0.02298 0,0.03339 -0.02604,0.04462 -0.05785,0.02495 -0.07604,-0.04699 -0.298419,0.0695 -0.434643,0.227692 -0.05968,0.0693 -0.0906,0.08613 -0.06872,0.03739 0.02188,-0.04874 -0.01799,-0.02215 -0.08861,0.05907 -0.07062,0.08123 -0.108004,0.10923 -0.08307,0.06223 0.02634,-0.04965 -0.0334,-0.0294 -0.142562,0.04833 -0.103341,0.07359 -0.187893,0.148528 -0.187893,0.166539 0,0.01801 0.04652,-0.0037 0.103382,-0.04833 0.09355,-0.07337 0.09573,-0.07131 0.02284,0.02165 -0.0443,0.0565 -0.09979,0.09083 -0.123319,0.07629 -0.02353,-0.01454 -0.1467912,0.08418 -0.2739002,0.219384 -0.12712,0.135204 -0.19022,0.2205 -0.14022,0.189547 0.05,-0.03095 0.0101,0.01907 -0.0886,0.111155 -0.0987,0.09209 -0.13965,0.149594 -0.0909,0.127793 0.0487,-0.0218 0.0222,0.01814 -0.0591,0.08877 -0.0812,0.07062 -0.10781,0.110833 -0.0591,0.08936 0.0586,-0.02581 0.0539,-0.01055 -0.0139,0.04502 -0.0563,0.04624 -0.0851,0.101376 -0.064,0.122532 0.0211,0.02116 0.006,0.03847 -0.034,0.03847 -0.0398,0 -0.056,0.02658 -0.0359,0.05908 0.0201,0.03249 0.007,0.05907 -0.0295,0.05907 -0.0363,0 -0.0496,0.02658 -0.0295,0.05908 0.0201,0.03249 0.007,0.05908 -0.0295,0.05908 -0.0363,0 -0.0496,0.02658 -0.0295,0.05908 0.0201,0.03249 0.006,0.05907 -0.0324,0.05907 -0.0379,0 -0.0536,0.03988 -0.0349,0.08861 0.0187,0.04874 0.005,0.08861 -0.0295,0.08861 -0.035,0 -0.0482,0.03987 -0.0295,0.08861 0.0187,0.04874 0.006,0.08861 -0.0272,0.08861 -0.0355,0 -0.0445,0.05268 -0.0213,0.125549 0.0286,0.09014 0.0196,0.113046 -0.0319,0.08122 -0.0536,-0.0331 -0.061,0.0043 -0.0295,0.147681 0.0311,0.141715 0.0237,0.180599 -0.0283,0.148454 -0.0529,-0.03272 -0.0618,0.04263 -0.0355,0.302754 0.0238,0.236005 0.0174,0.308675 -0.0203,0.228157 -0.0391,-0.08364 -0.0548,0.0285 -0.0535,0.383989 10e-4,0.355383 0.0165,0.458975 0.0522,0.354451 0.0325,-0.09518 0.0395,-6.62e-4 0.0197,0.265838 -0.0234,0.314401 -0.0149,0.392286 0.0357,0.324914 0.0511,-0.06799 0.0573,-0.02844 0.0271,0.169933 -0.0287,0.187811 -0.0209,0.247065 0.0284,0.216582 0.0477,-0.02948 0.0565,0.0035 0.0296,0.110674 -0.0242,0.09653 -0.0138,0.152638 0.0283,0.152638 0.0426,0 0.0524,0.05653 0.0273,0.156499 -0.0283,0.112867 -0.0198,0.144428 0.0308,0.1132 0.0508,-0.03138 0.0589,0.0012 0.0295,0.118151 -0.0304,0.121306 -0.0221,0.150074 0.0335,0.115702 0.0542,-0.03351 0.0634,-0.01216 0.0342,0.0798 -0.022,0.06934 -0.0141,0.125548 0.0177,0.125548 0.0316,0 0.0425,0.05733 0.0242,0.127388 -0.0243,0.09276 -0.013,0.114835 0.0414,0.08121 0.0556,-0.03439 0.064,-0.01226 0.0325,0.08677 -0.0307,0.09656 -0.0226,0.120814 0.0295,0.08861 0.0521,-0.0322 0.0602,-0.008 0.0295,0.08861 -0.0306,0.09656 -0.0226,0.120814 0.0295,0.08861 0.0521,-0.0322 0.0602,-0.008 0.0295,0.08861 -0.0285,0.08986 -0.0212,0.119981 0.0225,0.09294 0.0406,-0.02507 0.0516,-0.0058 0.0295,0.05168 -0.0194,0.05043 -0.007,0.09168 0.0284,0.09168 0.035,0 0.0466,0.04416 0.0258,0.0983 -0.0268,0.06989 -0.0159,0.08483 0.0377,0.05168 0.0565,-0.03494 0.0649,-0.01329 0.0332,0.08632 -0.0285,0.08986 -0.0212,0.11998 0.0225,0.09294 0.0406,-0.02507 0.0516,-0.0058 0.0296,0.05168 -0.0194,0.05055 -0.004,0.09168 0.0337,0.09168 0.0379,0 0.0539,0.02418 0.0357,0.05374 -0.0512,0.08289 0.0307,0.245866 0.10154,0.202064 0.0395,-0.02439 0.0489,-0.0022 0.0252,0.05941 -0.0208,0.05407 -0.0104,0.0983 0.023,0.0983 0.0334,0 0.0443,0.02658 0.0242,0.05908 -0.0201,0.03249 -0.007,0.05907 0.0295,0.05907 0.0363,0 0.0511,0.02419 0.0328,0.05375 -0.0469,0.07588 0.0278,0.247614 0.09082,0.208686 0.02871,-0.01775 0.0347,0.01335 0.01331,0.06911 -0.02621,0.06831 -0.01658,0.08758 0.02954,0.05907 0.04612,-0.0285 0.05575,-0.0092 0.02954,0.05908 -0.02848,0.07422 -0.01794,0.08842 0.03934,0.05302 0.05012,-0.03098 0.06408,-0.02544 0.03883,0.01542 -0.04976,0.08051 0.08025,0.374968 0.147273,0.333547 0.02737,-0.01691 0.03226,0.01486 0.01086,0.07062 -0.02622,0.06831 -0.01658,0.08758 0.02954,0.05907 0.04612,-0.0285 0.05575,-0.0092 0.02954,0.05908 -0.02621,0.06831 -0.01658,0.08758 0.02954,0.05907 0.04394,-0.02716 0.05647,-0.01112 0.03501,0.04482 -0.01839,0.04791 0.02179,0.142337 0.08929,0.209831 0.0675,0.0675 0.104345,0.122718 0.08189,0.122718 -0.02246,0 0.01077,0.04185 0.07384,0.09299 0.06307,0.05115 0.07879,0.07452 0.03493,0.05195 -0.06426,-0.03308 -0.06672,-0.01673 -0.01269,0.08423 0.03688,0.0689 0.09426,0.125279 0.127531,0.125279 0.03327,0 0.04465,0.02562 0.0253,0.05692 -0.01935,0.03131 0.01231,0.106627 0.07036,0.16738 0.05805,0.06075 0.113805,0.148119 0.123911,0.194148 0.01011,0.04603 0.07656,0.132519 0.147688,0.192199 0.07112,0.05968 0.09226,0.08898 0.04697,0.0651 -0.05818,-0.03066 -0.05066,0.01024 0.02561,0.139349 0.05938,0.100515 0.13377,0.166802 0.165319,0.147303 0.03159,-0.01953 0.0385,-0.0049 0.01537,0.03249 -0.02368,0.03831 0.0303,0.136673 0.123791,0.225554 0.09118,0.08669 0.125906,0.137664 0.07717,0.113285 -0.04874,-0.02438 -0.02215,0.01345 0.05908,0.08408 0.08123,0.07062 0.107812,0.110497 0.05907,0.08861 -0.04874,-0.02188 -0.02215,0.01799 0.05908,0.08861 0.08123,0.07062 0.107812,0.107701 0.05907,0.0824 -0.118655,-0.0616 0.01378,0.122681 0.232003,0.322842 0.08359,0.07667 0.11211,0.11809 0.06337,0.09204 -0.119351,-0.06379 0.01515,0.122582 0.232003,0.321485 0.08359,0.07667 0.11211,0.12127 0.06337,0.09911 -0.04874,-0.02216 -0.0089,0.03101 0.08861,0.11815 0.09747,0.08714 0.140394,0.138441 0.09538,0.113991 -0.04501,-0.02445 -0.02008,0.03909 0.05542,0.141205 0.1322,0.178812 0.225721,0.257871 0.13894,0.117455 -0.02633,-0.0426 -0.01618,-0.05215 0.02701,-0.02546 0.03804,0.02351 0.05257,0.06961 0.03228,0.102433 -0.02029,0.03283 0.09226,0.183114 0.250106,0.33397 0.157846,0.150856 0.233826,0.238725 0.168843,0.195265 -0.06498,-0.04346 -0.01181,0.02096 0.118151,0.143157 0.129965,0.122198 0.183133,0.188633 0.11815,0.147635 -0.06498,-0.041 0.0024,0.04152 0.149707,0.183386 0.147321,0.14186 0.225114,0.231345 0.172874,0.198854 -0.05224,-0.03249 0.03989,0.06751 0.204744,0.222224 0.16485,0.154714 0.294394,0.303634 0.287875,0.330933 -0.0065,0.0273 0.133452,0.17508 0.311047,0.328404 0.177594,0.153324 0.309534,0.300394 0.2932,0.326822 -0.01633,0.02643 0.08701,0.155626 0.229643,0.287104 0.142637,0.131479 0.248832,0.249561 0.235987,0.262406 -0.01284,0.01284 0.222354,0.257344 0.522664,0.543331 0.30031,0.285987 0.653236,0.624242 0.784279,0.751677 0.131043,0.127434 0.252608,0.217351 0.270145,0.199814 0.01754,-0.01754 0.109698,0.05423 0.204803,0.159493 0.172919,0.191379 0.172919,0.191379 -0.0076,0.04369 -0.09929,-0.08123 -0.03332,-0.01036 0.146595,0.157491 0.179918,0.167849 0.343999,0.294749 0.364627,0.282 0.02063,-0.01275 0.08758,0.03601 0.148781,0.108347 0.11024,0.130301 0.110152,0.130701 -0.0095,0.04291 -0.06641,-0.04874 -0.0135,0.0087 0.117584,0.127629 0.131083,0.118932 0.255513,0.205622 0.276512,0.192645 0.021,-0.01298 0.07442,0.02263 0.118717,0.07913 0.07288,0.09296 0.07071,0.09502 -0.02284,0.02165 -0.229033,-0.17962 -0.08447,-0.01692 0.177226,0.199464 0.154334,0.12761 0.243021,0.179761 0.197083,0.115891 -0.04594,-0.06387 0.03009,0.0035 0.168952,0.149711 0.138863,0.146211 0.229616,0.224708 0.201675,0.174436 -0.02794,-0.05027 0.0087,-0.02369 0.08134,0.05908 0.07268,0.08276 0.159077,0.150477 0.191994,0.150477 0.03292,0 0.05758,0.02361 0.0548,0.05247 -0.0028,0.02886 0.02665,0.07206 0.06538,0.096 0.05054,0.03124 0.05197,0.05494 0.005,0.08393 -0.03596,0.02223 -0.06538,0.01309 -0.06538,-0.0203 z M 13.16131,77.20189 c 0,-0.0087 -0.31236,-0.321013 -0.694133,-0.694133 l -0.694133,-0.678401 0.678401,0.694133 c 0.630138,0.644752 0.709865,0.720945 0.709865,0.678401 z m 1.713181,-0.120903 c 0,-0.01017 -0.0864,-0.09656 -0.191994,-0.191994 -0.191995,-0.17351 -0.191995,-0.17351 -0.01849,0.01848 0.161735,0.178966 0.21048,0.219148 0.21048,0.173509 z m -0.590752,-0.651723 c 0,-0.01121 -0.05981,-0.07102 -0.132919,-0.13292 -0.132919,-0.112537 -0.132919,-0.112537 -0.02038,0.02038 0.105758,0.124911 0.153301,0.159813 0.153301,0.112538 z m 8.743128,-10.869836 c 0,-0.01121 -0.05981,-0.07102 -0.132919,-0.132919 -0.132919,-0.112538 -0.132919,-0.112538 -0.02038,0.02038 0.105758,0.124911 0.153301,0.159812 0.153301,0.112537 z M 22.49519,64.972582 c 0,-0.0091 -0.179441,-0.188502 -0.398757,-0.398757 l -0.398758,-0.382282 0.382282,0.398757 c 0.355081,0.370383 0.415233,0.425763 0.415233,0.382282 z m -1.063353,-1.065363 c 0,-0.01017 -0.0864,-0.09656 -0.191994,-0.191994 -0.191995,-0.173509 -0.191995,-0.173509 -0.01849,0.01848 0.161735,0.178966 0.21048,0.219148 0.21048,0.173509 z m -8.10807,-2.56517 c -0.154334,-0.01217 -0.40688,-0.01217 -0.561214,0 -0.154334,0.01217 -0.02806,0.02213 0.280607,0.02213 0.308668,0 0.434941,-0.01 0.280607,-0.02213 z m 2.553296,16.77647 -0.382283,-0.398757 0.398758,0.382282 c 0.219317,0.210255 0.398758,0.389696 0.398758,0.398757 0,0.04348 -0.06015,-0.0119 -0.415233,-0.382282 z M 15.509549,73.10231 c 0.04061,-0.01639 0.107074,-0.01639 0.147688,0 0.04061,0.01639 0.0074,0.0298 -0.07384,0.0298 -0.08123,0 -0.114458,-0.01341 -0.07384,-0.0298 z m 1.678202,-0.433477 c 0,-0.08123 0.01341,-0.114458 0.0298,-0.07384 0.01639,0.04061 0.01639,0.107074 0,0.147688 -0.01639,0.04061 -0.0298,0.0074 -0.0298,-0.07384 z m -3.194724,-0.03446 c 0.0028,-0.06882 0.01683,-0.08282 0.03569,-0.03569 0.01707,0.04265 0.01497,0.0936 -0.0047,0.113228 -0.01963,0.01963 -0.03359,-0.01526 -0.03103,-0.07754 z m 2.783387,-0.231379 c 0.0012,-0.09747 0.01444,-0.130198 0.02942,-0.07272 0.01498,0.05748 0.01399,0.13723 -0.0022,0.177225 -0.01618,0.04 -0.02844,-0.007 -0.02723,-0.104506 z m -2.365197,-0.265838 c 0,-0.08123 0.01341,-0.114458 0.0298,-0.07384 0.01639,0.04061 0.01639,0.107074 0,0.147688 -0.01639,0.04061 -0.0298,0.0074 -0.0298,-0.07384 z m -0.354451,-0.472601 c 0,-0.08123 0.01341,-0.114459 0.0298,-0.07384 0.01639,0.04061 0.01639,0.107073 0,0.147688 -0.01639,0.04061 -0.0298,0.0074 -0.0298,-0.07384 z m 3.07191,-0.05908 c 0,-0.08123 0.01341,-0.114458 0.0298,-0.07384 0.01639,0.04061 0.01639,0.107074 0,0.147688 -0.01639,0.04062 -0.0298,0.0074 -0.0298,-0.07384 z m 0.538439,-0.2363 c 0,-0.146211 0.01152,-0.206025 0.0256,-0.13292 0.01408,0.07311 0.01408,0.192733 0,0.265839 -0.01408,0.0731 -0.0256,0.01329 -0.0256,-0.132919 z m -0.949776,-0.206764 c 0.0012,-0.09747 0.01444,-0.130198 0.02942,-0.07272 0.01498,0.05748 0.01399,0.13723 -0.0022,0.177225 -0.01618,0.04 -0.02844,-0.007 -0.02723,-0.104506 z m -2.244858,-0.11815 c 0.0012,-0.09747 0.01444,-0.130198 0.02942,-0.07272 0.01498,0.05748 0.01399,0.13723 -0.0022,0.177226 -0.01618,0.04 -0.02844,-0.007 -0.02723,-0.104506 z m -0.35664,-0.324914 c 0,-0.08123 0.01341,-0.114458 0.0298,-0.07384 0.01639,0.04061 0.01639,0.107073 0,0.147687 -0.01639,0.04062 -0.0298,0.0074 -0.0298,-0.07384 z M 17.0696,70.542122 c 0,-0.08123 0.01341,-0.114458 0.0298,-0.07384 0.01639,0.04061 0.01639,0.107074 0,0.147688 -0.01639,0.04061 -0.0298,0.0074 -0.0298,-0.07384 z m 3.430739,-0.05907 c 0,-0.11372 0.01216,-0.160242 0.02702,-0.103382 0.01486,0.05686 0.01486,0.149903 0,0.206763 -0.01486,0.05686 -0.02702,0.01034 -0.02702,-0.103381 z m 5.743697,-0.358382 c -0.02142,-0.03465 -0.02627,-0.07567 -0.01078,-0.09116 0.01548,-0.01549 0.0439,0.01287 0.06314,0.06301 0.03995,0.104097 0.0059,0.122407 -0.05235,0.02815 z M 14.170253,69.739689 c 0.0028,-0.06882 0.01683,-0.08282 0.03569,-0.03569 0.01707,0.04264 0.01497,0.0936 -0.0047,0.113227 -0.01963,0.01963 -0.03359,-0.01526 -0.03103,-0.07754 z m 11.724284,-0.07961 c -0.01869,-0.03025 -0.0114,-0.06895 0.0162,-0.08601 0.02761,-0.01706 0.05019,0.0077 0.05019,0.05499 0,0.09961 -0.01863,0.108314 -0.0664,0.03102 z M 14.328045,69.555231 c 0.07311,-0.01408 0.192733,-0.01408 0.265839,0 0.0731,0.01408 0.01329,0.0256 -0.132919,0.0256 -0.146211,0 -0.206025,-0.01152 -0.13292,-0.0256 z m 2.303933,0 c 0.0731,-0.01408 0.192733,-0.01408 0.265838,0 0.07311,0.01408 0.01329,0.0256 -0.132919,0.0256 -0.146211,0 -0.206025,-0.01152 -0.132919,-0.0256 z m 2.628846,-0.05811 c 0.05686,-0.01486 0.149903,-0.01486 0.206763,0 0.05686,0.01486 0.01034,0.02702 -0.103382,0.02702 -0.113719,0 -0.160241,-0.01216 -0.103381,-0.02702 z m 2.245981,-2.36e-4 c 0.05748,-0.01498 0.13723,-0.01399 0.177226,0.0022 0.04,0.01618 -0.007,0.02844 -0.104506,0.02723 -0.09747,-0.0012 -0.130198,-0.01444 -0.07272,-0.02942 z m 2.103278,-3.252483 c -0.07348,-0.0937 -0.07139,-0.09579 0.02231,-0.02231 0.0984,0.07717 0.129698,0.125686 0.08108,0.125686 -0.01227,0 -0.05879,-0.04652 -0.103382,-0.103381 z"
       id="path46503" />
    <path
       style="fill:#525459;fill-opacity:1;stroke-width:0.0590752"
       d="m 18.532977,72.978977 c -1.145543,-0.580229 -1.087801,-2.676682 0.09028,-3.277692 0.523216,-0.266925 1.48565,-0.185444 1.412525,0.119586 -0.05015,0.209206 -0.05091,0.209743 -0.190029,0.135288 -0.383861,-0.205436 -1.17042,-0.0071 -1.443422,0.363889 -0.899884,1.223018 0.254727,3.07079 1.501823,2.403428 0.07795,-0.04171 0.101926,-0.01748 0.122695,0.124028 0.0495,0.33726 -0.919257,0.422519 -1.493869,0.131473 z m 2.207635,0.09712 c -0.230102,-0.06655 -0.268633,-0.121539 -0.220243,-0.314345 0.03601,-0.14346 0.04348,-0.145649 0.207553,-0.0608 0.278165,0.143844 0.65841,0.171674 0.867599,0.0635 0.580899,-0.300395 0.462006,-0.996732 -0.220808,-1.293236 -1.427716,-0.61997 -0.885568,-2.284689 0.608907,-1.869709 0.207406,0.05759 0.223465,0.07656 0.187193,0.221081 -0.05144,0.204946 -0.05744,0.20899 -0.198356,0.133576 -0.265685,-0.14219 -0.753104,-0.07968 -0.919358,0.117897 -0.329039,0.391041 -0.174817,0.70578 0.529716,1.081057 1.412974,0.752635 0.704622,2.368316 -0.842203,1.920982 z M 14.03022,72.890366 c 0.0285,-0.301761 0.194444,-2.989966 0.194444,-3.149871 0,-0.129602 0.02443,-0.143523 0.251069,-0.143073 0.274696,5.32e-4 0.335142,0.146323 0.899153,2.168509 0.218664,0.783994 0.240471,0.81645 0.322884,0.480571 0.353207,-1.439521 0.842045,-2.649578 1.070375,-2.649578 0.128179,0 0.233479,0.0066 0.233999,0.01477 0.217823,3.399389 0.218007,3.470667 0.0089,3.470667 -0.09243,0 -0.169136,-0.03307 -0.171301,-0.07384 -0.0022,-0.04061 -0.02408,-0.731794 -0.04871,-1.535955 -0.04781,-1.560805 -0.07044,-1.669813 -0.226848,-1.092891 -0.382086,1.40935 -0.845899,2.673369 -0.987244,2.690512 -0.142161,0.01724 -0.700592,-1.613113 -0.941792,-2.749587 -0.114709,-0.540483 -0.154621,-0.344203 -0.196469,0.966218 -0.0544,1.7033 -0.06823,1.795547 -0.269257,1.795547 -0.141841,0 -0.155548,-0.01891 -0.139202,-0.191994 z"
       id="path46497" />
  </g>
</svg>
