<?xml version="1.0" encoding="UTF-8" standalone="no"?>
<svg
   width="460.8pt"
   height="345.6pt"
   viewBox="0 0 460.8 345.6"
   version="1.1"
   id="svg328"
   sodipodi:docname="E_years_priceByHour.svg"
   inkscape:version="1.2.1 (9c6d41e4, 2022-07-14)"
   xmlns:inkscape="http://www.inkscape.org/namespaces/inkscape"
   xmlns:sodipodi="http://sodipodi.sourceforge.net/DTD/sodipodi-0.dtd"
   xmlns:xlink="http://www.w3.org/1999/xlink"
   xmlns="http://www.w3.org/2000/svg"
   xmlns:svg="http://www.w3.org/2000/svg"
   xmlns:rdf="http://www.w3.org/1999/02/22-rdf-syntax-ns#"
   xmlns:cc="http://creativecommons.org/ns#"
   xmlns:dc="http://purl.org/dc/elements/1.1/">
  <sodipodi:namedview
     id="namedview330"
     pagecolor="#ffffff"
     bordercolor="#666666"
     borderopacity="1.0"
     inkscape:showpageshadow="2"
     inkscape:pageopacity="0.0"
     inkscape:pagecheckerboard="0"
     inkscape:deskcolor="#d1d1d1"
     inkscape:document-units="pt"
     showgrid="false"
     inkscape:zoom="1.4323732"
     inkscape:cx="296.01224"
     inkscape:cy="260.40699"
     inkscape:current-layer="svg328" />
  <metadata
     id="metadata2">
    <rdf:RDF>
      <cc:Work>
        <dc:type
           rdf:resource="http://purl.org/dc/dcmitype/StillImage" />
        <dc:date>2022-08-04T11:44:07.824054</dc:date>
        <dc:format>image/svg+xml</dc:format>
        <dc:creator>
          <cc:Agent>
            <dc:title>Matplotlib v3.5.2, https://matplotlib.org/</dc:title>
          </cc:Agent>
        </dc:creator>
      </cc:Work>
    </rdf:RDF>
  </metadata>
  <defs
     id="defs6">
    <style
       type="text/css"
       id="style4">*{stroke-linejoin: round; stroke-linecap: butt}</style>
  </defs>
  <g
     id="matplotlib.axis_1">
    <g
       id="xtick_1">
      <g
         id="line2d_1">
        <defs
           id="defs12">
          <path
             id="mab4b545424"
             d="M 0,0 V 3.5"
             style="stroke:#000000;stroke-width:0.8" />
        </defs>
        <g
           id="g16">
          <use
             xlink:href="#mab4b545424"
             x="73.832726"
             y="307.58401"
             style="stroke:#000000;stroke-width:0.8"
             id="use14" />
        </g>
      </g>
    </g>
    <g
       id="xtick_2">
      <g
         id="line2d_2">
        <g
           id="g22">
          <use
             xlink:href="#mab4b545424"
             x="156.72325"
             y="307.58401"
             style="stroke:#000000;stroke-width:0.8"
             id="use20" />
        </g>
      </g>
      <g
         id="text_1">
        <!-- 6am -->
        <g
           transform="matrix(0.1,0,0,-0.1,145.60763,322.18244)"
           id="g36">
          <defs
             id="defs28">
            <path
               id="DejaVuSans-36"
               d="m 2113,2584 q -425,0 -674,-291 -248,-290 -248,-796 0,-503 248,-796 249,-292 674,-292 425,0 673,292 248,293 248,796 0,506 -248,796 -248,291 -673,291 z m 1253,1979 v -575 q -238,112 -480,171 -242,60 -480,60 -625,0 -955,-422 -329,-422 -376,-1275 184,272 462,417 279,145 613,145 703,0 1111,-427 408,-426 408,-1160 0,-719 -425,-1154 -425,-434 -1131,-434 -810,0 -1238,620 -428,621 -428,1799 0,1106 525,1764 525,658 1409,658 238,0 480,-47 242,-47 505,-140 z"
               transform="scale(0.015625)" />
            <path
               id="DejaVuSans-61"
               d="m 2194,1759 q -697,0 -966,-159 -269,-159 -269,-544 0,-306 202,-486 202,-179 548,-179 479,0 768,339 289,339 289,901 v 128 z m 1147,238 V 0 H 2766 V 531 Q 2569,213 2275,61 1981,-91 1556,-91 q -537,0 -855,302 -317,302 -317,808 0,590 395,890 396,300 1180,300 h 807 v 57 q 0,397 -261,614 -261,217 -733,217 -300,0 -585,-72 -284,-72 -546,-216 v 532 q 315,122 612,182 297,61 578,61 760,0 1135,-394 375,-393 375,-1193 z"
               transform="scale(0.015625)" />
            <path
               id="DejaVuSans-6d"
               d="m 3328,2828 q 216,388 516,572 300,184 706,184 547,0 844,-383 297,-382 297,-1088 V 0 h -578 v 2094 q 0,503 -179,746 -178,244 -543,244 -447,0 -707,-297 -259,-296 -259,-809 V 0 h -578 v 2094 q 0,506 -178,748 -178,242 -550,242 -441,0 -701,-298 -259,-298 -259,-808 V 0 H 581 v 3500 h 578 v -544 q 197,322 472,475 275,153 653,153 382,0 649,-194 267,-193 395,-562 z"
               transform="scale(0.015625)" />
          </defs>
          <use
             xlink:href="#DejaVuSans-36"
             id="use30" />
          <use
             xlink:href="#DejaVuSans-61"
             x="63.623047"
             id="use32" />
          <use
             xlink:href="#DejaVuSans-6d"
             x="124.90234"
             id="use34" />
        </g>
      </g>
    </g>
    <g
       id="xtick_3">
      <g
         id="line2d_3">
        <g
           id="g42">
          <use
             xlink:href="#mab4b545424"
             x="198.16852"
             y="307.58401"
             style="stroke:#000000;stroke-width:0.8"
             id="use40" />
        </g>
      </g>
      <g
         id="text_2">
        <!-- 9am -->
        <g
           transform="matrix(0.1,0,0,-0.1,187.05289,322.18244)"
           id="g54">
          <defs
             id="defs46">
            <path
               id="DejaVuSans-39"
               d="m 703,97 v 575 q 238,-113 481,-172 244,-59 479,-59 625,0 954,420 330,420 377,1277 -181,-269 -460,-413 -278,-144 -615,-144 -700,0 -1108,423 -408,424 -408,1159 0,718 425,1152 425,435 1131,435 810,0 1236,-621 427,-620 427,-1801 Q 3622,1225 3098,567 2575,-91 1691,-91 1453,-91 1209,-44 966,3 703,97 Z m 1256,1978 q 425,0 673,290 249,291 249,798 0,503 -249,795 -248,292 -673,292 -425,0 -673,-292 -248,-292 -248,-795 0,-507 248,-798 248,-290 673,-290 z"
               transform="scale(0.015625)" />
          </defs>
          <use
             xlink:href="#DejaVuSans-39"
             id="use48" />
          <use
             xlink:href="#DejaVuSans-61"
             x="63.623047"
             id="use50" />
          <use
             xlink:href="#DejaVuSans-6d"
             x="124.90234"
             id="use52" />
        </g>
      </g>
    </g>
    <g
       id="xtick_4">
      <g
         id="line2d_4">
        <g
           id="g60">
          <use
             xlink:href="#mab4b545424"
             x="239.61377"
             y="307.58401"
             style="stroke:#000000;stroke-width:0.8"
             id="use58" />
        </g>
      </g>
      <g
         id="text_3">
        <!-- noon -->
        <g
           transform="matrix(0.1,0,0,-0.1,227.15752,322.18244)"
           id="g75">
          <defs
             id="defs65">
            <path
               id="DejaVuSans-6e"
               d="M 3513,2113 V 0 h -575 v 2094 q 0,497 -194,743 -194,247 -581,247 -466,0 -735,-297 -269,-296 -269,-809 V 0 H 581 v 3500 h 578 v -544 q 207,316 486,472 280,156 646,156 603,0 912,-373 310,-373 310,-1098 z"
               transform="scale(0.015625)" />
            <path
               id="DejaVuSans-6f"
               d="m 1959,3097 q -462,0 -731,-361 -269,-361 -269,-989 0,-628 267,-989 268,-361 733,-361 460,0 728,362 269,363 269,988 0,622 -269,986 -268,364 -728,364 z m 0,487 q 750,0 1178,-488 429,-487 429,-1349 Q 3566,888 3137,398 2709,-91 1959,-91 1206,-91 779,398 353,888 353,1747 q 0,862 426,1349 427,488 1180,488 z"
               transform="scale(0.015625)" />
          </defs>
          <use
             xlink:href="#DejaVuSans-6e"
             id="use67" />
          <use
             xlink:href="#DejaVuSans-6f"
             x="63.378906"
             id="use69" />
          <use
             xlink:href="#DejaVuSans-6f"
             x="124.56055"
             id="use71" />
          <use
             xlink:href="#DejaVuSans-6e"
             x="185.74219"
             id="use73" />
        </g>
      </g>
    </g>
    <g
       id="xtick_5">
      <g
         id="line2d_5">
        <g
           id="g81">
          <use
             xlink:href="#mab4b545424"
             x="281.05902"
             y="307.58401"
             style="stroke:#000000;stroke-width:0.8"
             id="use79" />
        </g>
      </g>
      <g
         id="text_4">
        <!-- 3pm -->
        <g
           transform="matrix(0.1,0,0,-0.1,269.83325,322.18244)"
           id="g94">
          <defs
             id="defs86">
            <path
               id="DejaVuSans-33"
               d="m 2597,2516 q 453,-97 707,-404 255,-306 255,-756 0,-690 -475,-1069 -475,-378 -1350,-378 -293,0 -604,58 -311,58 -642,174 v 609 q 262,-153 574,-231 313,-78 654,-78 593,0 904,234 311,234 311,681 0,413 -289,645 -289,233 -804,233 h -544 v 519 h 569 q 465,0 712,186 247,186 247,536 0,359 -255,551 -254,193 -729,193 -260,0 -557,-57 -297,-56 -653,-174 v 562 q 360,100 674,150 314,50 592,50 719,0 1137,-327 419,-326 419,-882 0,-388 -222,-655 -222,-267 -631,-370 z"
               transform="scale(0.015625)" />
            <path
               id="DejaVuSans-70"
               d="M 1159,525 V -1331 H 581 v 4831 h 578 v -531 q 182,312 458,463 277,152 661,152 638,0 1036,-506 399,-506 399,-1331 0,-825 -399,-1332 -398,-506 -1036,-506 -384,0 -661,152 -276,152 -458,464 z m 1957,1222 q 0,634 -261,995 -261,361 -717,361 -457,0 -718,-361 -261,-361 -261,-995 0,-634 261,-995 261,-361 718,-361 456,0 717,361 261,361 261,995 z"
               transform="scale(0.015625)" />
          </defs>
          <use
             xlink:href="#DejaVuSans-33"
             id="use88" />
          <use
             xlink:href="#DejaVuSans-70"
             x="63.623047"
             id="use90" />
          <use
             xlink:href="#DejaVuSans-6d"
             x="127.09961"
             id="use92" />
        </g>
      </g>
    </g>
    <g
       id="xtick_6">
      <g
         id="line2d_6">
        <g
           id="g100">
          <use
             xlink:href="#mab4b545424"
             x="322.5043"
             y="307.58401"
             style="stroke:#000000;stroke-width:0.8"
             id="use98" />
        </g>
      </g>
      <g
         id="text_5">
        <!-- 6pm -->
        <g
           transform="matrix(0.1,0,0,-0.1,311.27851,322.18244)"
           id="g109">
          <use
             xlink:href="#DejaVuSans-36"
             id="use103" />
          <use
             xlink:href="#DejaVuSans-70"
             x="63.623047"
             id="use105" />
          <use
             xlink:href="#DejaVuSans-6d"
             x="127.09961"
             id="use107" />
        </g>
      </g>
    </g>
    <g
       id="xtick_7">
      <g
         id="line2d_7">
        <g
           id="g115">
          <use
             xlink:href="#mab4b545424"
             x="363.94955"
             y="307.58401"
             style="stroke:#000000;stroke-width:0.8"
             id="use113" />
        </g>
      </g>
      <g
         id="text_6">
        <!-- 9pm -->
        <g
           transform="matrix(0.1,0,0,-0.1,352.72377,322.18244)"
           id="g124">
          <use
             xlink:href="#DejaVuSans-39"
             id="use118" />
          <use
             xlink:href="#DejaVuSans-70"
             x="63.623047"
             id="use120" />
          <use
             xlink:href="#DejaVuSans-6d"
             x="127.09961"
             id="use122" />
        </g>
      </g>
    </g>
  </g>
  <g
     id="ytick_1">
    <g
       id="line2d_8">
      <defs
         id="defs130">
        <path
           id="mca48f9a366"
           d="M 0,0 H -3.5"
           style="stroke:#000000;stroke-width:0.8" />
      </defs>
      <g
         id="g134">
        <use
           xlink:href="#mca48f9a366"
           x="57.599998"
           y="294.75623"
           style="stroke:#000000;stroke-width:0.8"
           id="use132" />
      </g>
    </g>
    <g
       id="text_7">
      <!-- 5 -->
      <g
         transform="matrix(0.1,0,0,-0.1,44.2375,298.55544)"
         id="g142">
        <defs
           id="defs138">
          <path
             id="DejaVuSans-35"
             d="M 691,4666 H 3169 V 4134 H 1269 V 2991 q 137,47 274,70 138,23 276,23 781,0 1237,-428 457,-428 457,-1159 Q 3513,744 3044,326 2575,-91 1722,-91 1428,-91 1123,-41 819,9 494,109 v 635 q 281,-153 581,-228 300,-75 634,-75 541,0 856,284 316,284 316,772 0,487 -316,771 -315,285 -856,285 -253,0 -505,-56 -251,-56 -513,-175 z"
             transform="scale(0.015625)" />
        </defs>
        <use
           xlink:href="#DejaVuSans-35"
           id="use140" />
      </g>
    </g>
  </g>
  <g
     id="ytick_3">
    <g
       id="line2d_10">
      <g
         id="g165">
        <use
           xlink:href="#mca48f9a366"
           x="57.599998"
           y="217.09563"
           style="stroke:#000000;stroke-width:0.8"
           id="use163" />
      </g>
    </g>
    <g
       id="text_9">
      <!-- 15 -->
      <g
         transform="matrix(0.1,0,0,-0.1,37.875,220.89484)"
         id="g172">
        <path
           id="use168"
           d="m 12.40625,8.296875 h 16.109375 v 55.625 L 10.984375,60.40625 v 8.984375 l 17.4375,3.515625 H 38.28125 V 8.296875 H 54.390625 V 0 H 12.40625 Z"
           style="stroke-width:0.015625" />
        <use
           xlink:href="#DejaVuSans-35"
           x="63.623047"
           id="use170" />
      </g>
    </g>
  </g>
  <g
     id="ytick_5">
    <g
       id="line2d_12">
      <g
         id="g194">
        <use
           xlink:href="#mca48f9a366"
           x="57.599998"
           y="139.43503"
           style="stroke:#000000;stroke-width:0.8"
           id="use192" />
      </g>
    </g>
    <g
       id="text_11">
      <!-- 25 -->
      <g
         transform="matrix(0.1,0,0,-0.1,37.875,143.23425)"
         id="g201">
        <path
           id="use197"
           d="M 19.1875,8.296875 H 53.609375 V 0 H 7.328125 v 8.296875 q 5.609375,5.8125 15.296875,15.59375 9.703125,9.796875 12.1875,12.640625 4.734375,5.3125 6.609375,9 1.890625,3.6875 1.890625,7.25 0,5.8125 -4.078125,9.46875 -4.078125,3.671875 -10.625,3.671875 -4.640625,0 -9.796875,-1.609375 -5.140625,-1.609375 -11,-4.890625 v 9.96875 Q 13.765625,71.78125 18.9375,73 q 5.1875,1.21875 9.484375,1.21875 11.328125,0 18.0625,-5.671875 6.734375,-5.65625 6.734375,-15.125 0,-4.5 -1.6875,-8.53125 Q 49.859375,40.875 45.40625,35.40625 44.1875,33.984375 37.640625,27.21875 31.109375,20.453125 19.1875,8.296875 Z"
           style="stroke-width:0.015625" />
        <use
           xlink:href="#DejaVuSans-35"
           x="63.623047"
           id="use199" />
      </g>
    </g>
  </g>
  <g
     id="ytick_7">
    <g
       id="line2d_14">
      <g
         id="g220">
        <use
           xlink:href="#mca48f9a366"
           x="57.599998"
           y="61.774429"
           style="stroke:#000000;stroke-width:0.8"
           id="use218" />
      </g>
    </g>
    <g
       id="text_13">
      <!-- 35 -->
      <g
         transform="matrix(0.1,0,0,-0.1,37.875,65.573647)"
         id="g227">
        <use
           xlink:href="#DejaVuSans-33"
           id="use223" />
        <use
           xlink:href="#DejaVuSans-35"
           x="63.623047"
           id="use225" />
      </g>
    </g>
  </g>
  <g
     id="line2d_15"
     style="stroke:#00007f">
    <path
       d="m 73.832727,246.26233 6.907544,-2.48708 6.907543,2.13949 6.907544,4.44206 6.907542,1.55604 6.90755,1.15399 6.90754,-0.0328 6.90754,2.05201 6.90754,-4.02712 6.90755,-1.43837 6.90754,-9.33003 6.90755,1.88299 6.90754,-2.01253 6.90754,-10.73254 6.90755,-3.19413 6.90754,-4.39381 6.90754,-3.68934 6.90755,2.91545 6.90754,0.95117 6.90754,5.76766 6.90755,0.40359 6.90754,4.38142 6.90754,-0.95633 6.90755,4.97752 6.90754,0.11018 6.90754,4.66657 6.90755,0.53184 6.90754,1.89357 6.90755,0.28772 6.90754,-2.78951 6.90754,-68.52194 6.90755,-12.99124 6.90754,-32.66184 6.90754,-16.02616 6.90755,-3.99976 6.90754,-4.36852 6.90754,66.63198 6.90755,5.86546 6.90754,32.85899 6.90754,11.35676 6.90755,1.51552 6.90754,11.09329 6.90754,1.95782 6.90755,10.70079 6.90754,-8.75923 6.90755,2.33948 6.90754,4.0555 6.90754,4.08235"
       clip-path="url(#p51c9313b46)"
       style="fill:none;stroke:#00007f;stroke-width:1.5;stroke-linecap:square"
       id="path232" />
  </g>
  <g
     id="line2d_16"
     style="stroke:#00c6ff;stroke-width:2;stroke-dasharray:none">
    <path
       d="m 73.832727,272.63054 6.907544,-4.13639 6.907543,2.02162 6.907544,5.02934 6.907542,-0.67067 6.90755,2.34176 6.90754,-1.14899 6.90754,2.67821 6.90754,-4.12969 6.90755,0.0139 6.90754,-7.97318 6.90755,0.42737 6.90754,-4.86871 6.90754,-5.30279 6.90755,-1.66059 6.90754,-3.6364 6.90754,-1.86009 6.90755,1.90031 6.90754,-1.10229 6.90754,4.07047 6.90755,0.0626 6.90754,3.22243 6.90754,0.15571 6.90755,2.70345 6.90754,0.18833 6.90754,3.19741 6.90755,-0.0409 6.90754,1.56274 6.90755,0.48769 6.90754,-1.92577 6.90754,-55.52071 6.90755,-10.65876 6.90754,-42.32024 6.90754,-14.4511 6.90755,-1.64562 6.90754,-5.72883 6.90754,57.86068 6.90755,3.87611 6.90754,43.43394 6.90754,7.71492 6.90755,2.13957 6.90754,9.54641 6.90754,0.39231 6.90755,7.58311 6.90754,-3.45544 6.90755,3.00237 6.90754,1.58708 6.90754,3.9208"
       clip-path="url(#p51c9313b46)"
       style="fill:none;stroke:#00c6ff;stroke-width:2;stroke-linecap:square;stroke-dasharray:none"
       id="path235" />
  </g>
  <g
     id="line2d_17"
     style="stroke:#9bff62;stroke-width:3;stroke-dasharray:none">
    <path
       d="m 73.832727,287.93728 6.907544,-3.49744 6.907543,0.2252 6.907544,7.2518 6.907542,-1.91259 6.90755,4.48021 6.90754,-3.62724 6.90754,4.63078 6.90754,-4.74785 6.90755,-0.4906 6.90754,-4.75344 6.90755,-4.36627 6.90754,-0.37577 6.90754,-9.99144 6.90755,3.37836 6.90754,-7.65482 6.90754,1.57033 6.90755,-1.5567 6.90754,-0.26541 6.90754,2.49836 6.90755,0.53774 6.90754,0.72094 6.90754,-0.98612 6.90755,1.67868 6.90754,-0.66061 6.90754,5.78043 6.90755,-0.0981 6.90754,3.02605 6.90755,0.28507 6.90754,-2.12148 6.90754,-54.80514 6.90755,-12.98576 6.90754,-41.18534 6.90754,-18.46103 6.90755,-3.15496 6.90754,-3.42238 6.90754,58.05214 6.90755,8.84961 6.90754,43.31732 6.90754,10.79883 6.90755,-2.24212 6.90754,10.0989 6.90754,-3.68099 6.90755,10.72076 6.90754,-5.02206 6.90755,8.32926 6.90754,-2.5963 6.90754,7.73659"
       clip-path="url(#p51c9313b46)"
       style="fill:none;stroke:#9bff62;stroke-width:3;stroke-linecap:square;stroke-dasharray:none"
       id="path238" />
  </g>
  <g
     id="line2d_18"
     style="stroke:#ff8d00;stroke-width:4;stroke-dasharray:none">
    <path
       d="m 73.832727,183.60143 6.907544,-4.22284 6.907543,1.9213 6.907544,9.3965 6.907542,-1.78189 6.90755,6.71986 6.90754,-3.37412 6.90754,6.3021 6.90754,-9.14719 6.90755,-1.68851 6.90754,-9.27989 6.90755,-3.69493 6.90754,-2.26579 6.90754,-13.85237 6.90755,0.14298 6.90754,-7.97161 6.90754,0.46334 6.90755,-2.55801 6.90754,1.88802 6.90754,2.74679 6.90755,0.72049 6.90754,1.38311 6.90754,-1.33061 6.90755,2.50707 6.90754,2.31852 6.90754,8.45462 6.90755,0.30652 6.90754,5.28246 6.90755,1.00645 6.90754,-4.16252 6.90754,-44.62604 6.90755,-10.57051 6.90754,-25.532537 6.90754,-10.403627 6.90755,-2.050654 6.90754,-4.296344 6.90754,33.750352 6.90755,6.30857 6.90754,21.26412 6.90754,14.307 6.90755,-1.69879 6.90754,13.99959 6.90754,-0.16153 6.90755,16.97985 6.90754,-12.68328 6.90755,11.07966 6.90754,-2.3002 6.90754,12.24651"
       clip-path="url(#p51c9313b46)"
       style="fill:none;stroke:#ff8d00;stroke-width:4;stroke-linecap:square;stroke-dasharray:none"
       id="path241" />
  </g>
  <g
     id="line2d_19"
     style="stroke:#c60000;stroke-width:5;stroke-dasharray:none">
    <path
       d="m 73.832727,93.343298 6.907544,-8.850355 6.907543,1.864784 6.907544,13.434025 6.907542,-5.107387 6.90755,9.184565 6.90754,-9.040237 6.90754,12.790487 6.90754,-6.89638 6.90755,-1.444045 6.90754,-4.982584 6.90755,-13.400719 6.90754,3.015583 6.90754,-16.360408 6.90755,6.309103 6.90754,-6.903262 6.90754,6.429314 6.90755,-4.042727 6.90754,4.797675 6.90754,0.950194 6.90755,-0.498833 6.90754,0.600667 6.90754,1.999541 6.90755,4.181696 6.90754,-1.705526 6.90754,9.305162 6.90755,-3.868537 6.90754,4.081393 6.90755,0.783661 6.90754,-6.113475 6.90754,-21.393144 6.90755,-5.078292 6.90754,-2.591786 6.90754,-1.072317 6.90755,0.04173 6.90754,-0.194862 6.90754,5.250185 6.90755,1.96968 6.90754,-0.223575 6.90754,4.064165 6.90755,-4.658323 6.90754,8.084304 6.90754,-5.330197 6.90755,19.578511 6.90754,-14.220743 6.90755,17.723431 6.90754,-8.651702 6.90754,15.264429"
       clip-path="url(#p51c9313b46)"
       style="fill:none;stroke:#c60000;stroke-width:5;stroke-linecap:square;stroke-dasharray:none"
       id="path244" />
  </g>
  <g
     id="text_14"
     transform="translate(13.582474,184.70621)">
    <!-- 2018 -->
    <g
       transform="matrix(0.1,0,0,-0.1,380.27,58.070438)"
       id="g261">
      <defs
         id="defs251">
        <path
           id="DejaVuSans-38"
           d="m 2034,2216 q -450,0 -708,-241 -257,-241 -257,-662 0,-422 257,-663 258,-241 708,-241 450,0 709,242 260,243 260,662 0,421 -258,662 -257,241 -711,241 z m -631,268 q -406,100 -633,378 -226,279 -226,679 0,559 398,884 399,325 1092,325 697,0 1094,-325 397,-325 397,-884 0,-400 -227,-679 -226,-278 -629,-378 456,-106 710,-416 255,-309 255,-755 Q 3634,634 3220,271 2806,-91 2034,-91 1263,-91 848,271 434,634 434,1313 q 0,446 256,755 257,310 713,416 z m -231,997 q 0,-362 226,-565 227,-203 636,-203 407,0 636,203 230,203 230,565 0,363 -230,566 -229,203 -636,203 -409,0 -636,-203 -226,-203 -226,-566 z"
           transform="scale(0.015625)" />
      </defs>
      <path
         id="use253"
         d="M 19.1875,8.296875 H 53.609375 V 0 H 7.328125 v 8.296875 q 5.609375,5.8125 15.296875,15.59375 9.703125,9.796875 12.1875,12.640625 4.734375,5.3125 6.609375,9 1.890625,3.6875 1.890625,7.25 0,5.8125 -4.078125,9.46875 -4.078125,3.671875 -10.625,3.671875 -4.640625,0 -9.796875,-1.609375 -5.140625,-1.609375 -11,-4.890625 v 9.96875 Q 13.765625,71.78125 18.9375,73 q 5.1875,1.21875 9.484375,1.21875 11.328125,0 18.0625,-5.671875 6.734375,-5.65625 6.734375,-15.125 0,-4.5 -1.6875,-8.53125 Q 49.859375,40.875 45.40625,35.40625 44.1875,33.984375 37.640625,27.21875 31.109375,20.453125 19.1875,8.296875 Z"
         style="stroke-width:0.015625" />
      <path
         id="use255"
         d="m 95.404297,66.40625 q -7.609375,0 -11.453125,-7.5 -3.828125,-7.484375 -3.828125,-22.53125 0,-14.984375 3.828125,-22.484375 3.84375,-7.5 11.453125,-7.5 7.671873,0 11.500003,7.5 3.84375,7.5 3.84375,22.484375 0,15.046875 -3.84375,22.53125 -3.82813,7.5 -11.500003,7.5 z m 0,7.8125 q 12.265623,0 18.734373,-9.703125 6.46875,-9.6875 6.46875,-28.140625 0,-18.40625 -6.46875,-28.109375 -6.46875,-9.6875 -18.734373,-9.6875 -12.25,0 -18.71875,9.6875 -6.46875,9.703125 -6.46875,28.109375 0,18.453125 6.46875,28.140625 6.46875,9.703125 18.71875,9.703125 z"
         style="stroke-width:0.015625" />
      <path
         id="use257"
         d="m 139.65234,8.296875 h 16.10938 v 55.625 L 138.23047,60.40625 v 8.984375 l 17.4375,3.515625 h 9.85937 V 8.296875 h 16.10938 V 0 h -41.98438 z"
         style="stroke-width:0.015625" />
      <use
         xlink:href="#DejaVuSans-38"
         x="190.86914"
         id="use259" />
    </g>
  </g>
  <g
     id="text_15"
     transform="translate(-25.484122,183.95722)">
    <!-- 2019 -->
    <g
       transform="matrix(0.1,0,0,-0.1,380.27,72.748563)"
       id="g275">
      <path
         id="use267"
         d="M 19.1875,8.296875 H 53.609375 V 0 H 7.328125 v 8.296875 q 5.609375,5.8125 15.296875,15.59375 9.703125,9.796875 12.1875,12.640625 4.734375,5.3125 6.609375,9 1.890625,3.6875 1.890625,7.25 0,5.8125 -4.078125,9.46875 -4.078125,3.671875 -10.625,3.671875 -4.640625,0 -9.796875,-1.609375 -5.140625,-1.609375 -11,-4.890625 v 9.96875 Q 13.765625,71.78125 18.9375,73 q 5.1875,1.21875 9.484375,1.21875 11.328125,0 18.0625,-5.671875 6.734375,-5.65625 6.734375,-15.125 0,-4.5 -1.6875,-8.53125 Q 49.859375,40.875 45.40625,35.40625 44.1875,33.984375 37.640625,27.21875 31.109375,20.453125 19.1875,8.296875 Z"
         style="stroke-width:0.015625" />
      <path
         id="use269"
         d="m 95.404297,66.40625 q -7.609375,0 -11.453125,-7.5 -3.828125,-7.484375 -3.828125,-22.53125 0,-14.984375 3.828125,-22.484375 3.84375,-7.5 11.453125,-7.5 7.671873,0 11.500003,7.5 3.84375,7.5 3.84375,22.484375 0,15.046875 -3.84375,22.53125 -3.82813,7.5 -11.500003,7.5 z m 0,7.8125 q 12.265623,0 18.734373,-9.703125 6.46875,-9.6875 6.46875,-28.140625 0,-18.40625 -6.46875,-28.109375 -6.46875,-9.6875 -18.734373,-9.6875 -12.25,0 -18.71875,9.6875 -6.46875,9.703125 -6.46875,28.109375 0,18.453125 6.46875,28.140625 6.46875,9.703125 18.71875,9.703125 z"
         style="stroke-width:0.015625" />
      <path
         id="use271"
         d="m 139.65234,8.296875 h 16.10938 v 55.625 L 138.23047,60.40625 v 8.984375 l 17.4375,3.515625 h 9.85937 V 8.296875 h 16.10938 V 0 h -41.98438 z"
         style="stroke-width:0.015625" />
      <use
         xlink:href="#DejaVuSans-39"
         x="190.86914"
         id="use273" />
    </g>
  </g>
  <g
     id="text_16"
     transform="translate(-71.733764,177.71004)">
    <!-- 2020 -->
    <g
       transform="matrix(0.1,0,0,-0.1,380.27,87.426688)"
       id="g289">
      <path
         id="use281"
         d="M 19.1875,8.296875 H 53.609375 V 0 H 7.328125 v 8.296875 q 5.609375,5.8125 15.296875,15.59375 9.703125,9.796875 12.1875,12.640625 4.734375,5.3125 6.609375,9 1.890625,3.6875 1.890625,7.25 0,5.8125 -4.078125,9.46875 -4.078125,3.671875 -10.625,3.671875 -4.640625,0 -9.796875,-1.609375 -5.140625,-1.609375 -11,-4.890625 v 9.96875 Q 13.765625,71.78125 18.9375,73 q 5.1875,1.21875 9.484375,1.21875 11.328125,0 18.0625,-5.671875 6.734375,-5.65625 6.734375,-15.125 0,-4.5 -1.6875,-8.53125 Q 49.859375,40.875 45.40625,35.40625 44.1875,33.984375 37.640625,27.21875 31.109375,20.453125 19.1875,8.296875 Z"
         style="stroke-width:0.015625" />
      <path
         id="use283"
         d="m 95.404297,66.40625 q -7.609375,0 -11.453125,-7.5 -3.828125,-7.484375 -3.828125,-22.53125 0,-14.984375 3.828125,-22.484375 3.84375,-7.5 11.453125,-7.5 7.671873,0 11.500003,7.5 3.84375,7.5 3.84375,22.484375 0,15.046875 -3.84375,22.53125 -3.82813,7.5 -11.500003,7.5 z m 0,7.8125 q 12.265623,0 18.734373,-9.703125 6.46875,-9.6875 6.46875,-28.140625 0,-18.40625 -6.46875,-28.109375 -6.46875,-9.6875 -18.734373,-9.6875 -12.25,0 -18.71875,9.6875 -6.46875,9.703125 -6.46875,28.109375 0,18.453125 6.46875,28.140625 6.46875,9.703125 18.71875,9.703125 z"
         style="stroke-width:0.015625" />
      <path
         id="use285"
         d="m 146.43359,8.296875 h 34.42188 V 0 h -46.28125 v 8.296875 q 5.60937,5.8125 15.29687,15.59375 9.70313,9.796875 12.1875,12.640625 4.73438,5.3125 6.60938,9 1.89062,3.6875 1.89062,7.25 0,5.8125 -4.07812,9.46875 -4.07813,3.671875 -10.625,3.671875 -4.64063,0 -9.79688,-1.609375 -5.14062,-1.609375 -11,-4.890625 v 9.96875 q 5.95313,2.390625 11.125,3.609375 5.1875,1.21875 9.48438,1.21875 11.32812,0 18.0625,-5.671875 6.73437,-5.65625 6.73437,-15.125 0,-4.5 -1.6875,-8.53125 -1.67187,-4.015625 -6.125,-9.484375 -1.21875,-1.421875 -7.76562,-8.1875 -6.53125,-6.765625 -18.45313,-18.921875 z"
         style="stroke-width:0.015625" />
      <path
         id="use287"
         d="m 222.65039,66.40625 q -7.60937,0 -11.45312,-7.5 -3.82813,-7.484375 -3.82813,-22.53125 0,-14.984375 3.82813,-22.484375 3.84375,-7.5 11.45312,-7.5 7.67188,0 11.5,7.5 3.84375,7.5 3.84375,22.484375 0,15.046875 -3.84375,22.53125 -3.82812,7.5 -11.5,7.5 z m 0,7.8125 q 12.26563,0 18.73438,-9.703125 6.46875,-9.6875 6.46875,-28.140625 0,-18.40625 -6.46875,-28.109375 -6.46875,-9.6875 -18.73438,-9.6875 -12.25,0 -18.71875,9.6875 -6.46875,9.703125 -6.46875,28.109375 0,18.453125 6.46875,28.140625 6.46875,9.703125 18.71875,9.703125 z"
         style="stroke-width:0.015625" />
    </g>
  </g>
  <g
     id="text_17"
     transform="translate(-129.40179,19.45494)">
    <!-- 2021 -->
    <g
       transform="matrix(0.1,0,0,-0.1,380.27,102.10481)"
       id="g303">
      <path
         id="use295"
         d="M 19.1875,8.296875 H 53.609375 V 0 H 7.328125 v 8.296875 q 5.609375,5.8125 15.296875,15.59375 9.703125,9.796875 12.1875,12.640625 4.734375,5.3125 6.609375,9 1.890625,3.6875 1.890625,7.25 0,5.8125 -4.078125,9.46875 -4.078125,3.671875 -10.625,3.671875 -4.640625,0 -9.796875,-1.609375 -5.140625,-1.609375 -11,-4.890625 v 9.96875 Q 13.765625,71.78125 18.9375,73 q 5.1875,1.21875 9.484375,1.21875 11.328125,0 18.0625,-5.671875 6.734375,-5.65625 6.734375,-15.125 0,-4.5 -1.6875,-8.53125 Q 49.859375,40.875 45.40625,35.40625 44.1875,33.984375 37.640625,27.21875 31.109375,20.453125 19.1875,8.296875 Z"
         style="stroke-width:0.015625" />
      <path
         id="use297"
         d="m 95.404297,66.40625 q -7.609375,0 -11.453125,-7.5 -3.828125,-7.484375 -3.828125,-22.53125 0,-14.984375 3.828125,-22.484375 3.84375,-7.5 11.453125,-7.5 7.671873,0 11.500003,7.5 3.84375,7.5 3.84375,22.484375 0,15.046875 -3.84375,22.53125 -3.82813,7.5 -11.500003,7.5 z m 0,7.8125 q 12.265623,0 18.734373,-9.703125 6.46875,-9.6875 6.46875,-28.140625 0,-18.40625 -6.46875,-28.109375 -6.46875,-9.6875 -18.734373,-9.6875 -12.25,0 -18.71875,9.6875 -6.46875,9.703125 -6.46875,28.109375 0,18.453125 6.46875,28.140625 6.46875,9.703125 18.71875,9.703125 z"
         style="stroke-width:0.015625" />
      <path
         id="use299"
         d="m 146.43359,8.296875 h 34.42188 V 0 h -46.28125 v 8.296875 q 5.60937,5.8125 15.29687,15.59375 9.70313,9.796875 12.1875,12.640625 4.73438,5.3125 6.60938,9 1.89062,3.6875 1.89062,7.25 0,5.8125 -4.07812,9.46875 -4.07813,3.671875 -10.625,3.671875 -4.64063,0 -9.79688,-1.609375 -5.14062,-1.609375 -11,-4.890625 v 9.96875 q 5.95313,2.390625 11.125,3.609375 5.1875,1.21875 9.48438,1.21875 11.32812,0 18.0625,-5.671875 6.73437,-5.65625 6.73437,-15.125 0,-4.5 -1.6875,-8.53125 -1.67187,-4.015625 -6.125,-9.484375 -1.21875,-1.421875 -7.76562,-8.1875 -6.53125,-6.765625 -18.45313,-18.921875 z"
         style="stroke-width:0.015625" />
      <path
         id="use301"
         d="m 203.27539,8.296875 h 16.10938 v 55.625 L 201.85352,60.40625 v 8.984375 l 17.4375,3.515625 h 9.85937 V 8.296875 h 16.10938 V 0 h -41.98438 z"
         style="stroke-width:0.015625" />
    </g>
  </g>
  <g
     id="text_18"
     transform="translate(-150.60282,-51.209293)">
    <!-- 2022 -->
    <g
       transform="matrix(0.1,0,0,-0.1,380.27,116.78294)"
       id="g317">
      <path
         id="use309"
         d="M 19.1875,8.296875 H 53.609375 V 0 H 7.328125 v 8.296875 q 5.609375,5.8125 15.296875,15.59375 9.703125,9.796875 12.1875,12.640625 4.734375,5.3125 6.609375,9 1.890625,3.6875 1.890625,7.25 0,5.8125 -4.078125,9.46875 -4.078125,3.671875 -10.625,3.671875 -4.640625,0 -9.796875,-1.609375 -5.140625,-1.609375 -11,-4.890625 v 9.96875 Q 13.765625,71.78125 18.9375,73 q 5.1875,1.21875 9.484375,1.21875 11.328125,0 18.0625,-5.671875 6.734375,-5.65625 6.734375,-15.125 0,-4.5 -1.6875,-8.53125 Q 49.859375,40.875 45.40625,35.40625 44.1875,33.984375 37.640625,27.21875 31.109375,20.453125 19.1875,8.296875 Z"
         style="stroke-width:0.015625" />
      <path
         id="use311"
         d="m 95.404297,66.40625 q -7.609375,0 -11.453125,-7.5 -3.828125,-7.484375 -3.828125,-22.53125 0,-14.984375 3.828125,-22.484375 3.84375,-7.5 11.453125,-7.5 7.671873,0 11.500003,7.5 3.84375,7.5 3.84375,22.484375 0,15.046875 -3.84375,22.53125 -3.82813,7.5 -11.500003,7.5 z m 0,7.8125 q 12.265623,0 18.734373,-9.703125 6.46875,-9.6875 6.46875,-28.140625 0,-18.40625 -6.46875,-28.109375 -6.46875,-9.6875 -18.734373,-9.6875 -12.25,0 -18.71875,9.6875 -6.46875,9.703125 -6.46875,28.109375 0,18.453125 6.46875,28.140625 6.46875,9.703125 18.71875,9.703125 z"
         style="stroke-width:0.015625" />
      <path
         id="use313"
         d="m 146.43359,8.296875 h 34.42188 V 0 h -46.28125 v 8.296875 q 5.60937,5.8125 15.29687,15.59375 9.70313,9.796875 12.1875,12.640625 4.73438,5.3125 6.60938,9 1.89062,3.6875 1.89062,7.25 0,5.8125 -4.07812,9.46875 -4.07813,3.671875 -10.625,3.671875 -4.64063,0 -9.79688,-1.609375 -5.14062,-1.609375 -11,-4.890625 v 9.96875 q 5.95313,2.390625 11.125,3.609375 5.1875,1.21875 9.48438,1.21875 11.32812,0 18.0625,-5.671875 6.73437,-5.65625 6.73437,-15.125 0,-4.5 -1.6875,-8.53125 -1.67187,-4.015625 -6.125,-9.484375 -1.21875,-1.421875 -7.76562,-8.1875 -6.53125,-6.765625 -18.45313,-18.921875 z"
         style="stroke-width:0.015625" />
      <path
         id="use315"
         d="m 210.05664,8.296875 h 34.42188 V 0 h -46.28125 v 8.296875 q 5.60937,5.8125 15.29687,15.59375 9.70313,9.796875 12.1875,12.640625 4.73438,5.3125 6.60938,9 1.89062,3.6875 1.89062,7.25 0,5.8125 -4.07812,9.46875 -4.07813,3.671875 -10.625,3.671875 -4.64063,0 -9.79688,-1.609375 -5.14062,-1.609375 -11,-4.890625 v 9.96875 q 5.95313,2.390625 11.125,3.609375 5.1875,1.21875 9.48438,1.21875 11.32812,0 18.0625,-5.671875 6.73437,-5.65625 6.73437,-15.125 0,-4.5 -1.6875,-8.53125 -1.67187,-4.015625 -6.125,-9.484375 -1.21875,-1.421875 -7.76562,-8.1875 -6.53125,-6.765625 -18.45313,-18.921875 z"
         style="stroke-width:0.015625" />
    </g>
  </g>
  <defs
     id="defs326">
    <clipPath
       id="p51c9313b46">
      <rect
         x="57.6"
         y="41.472"
         width="357.12"
         height="266.112"
         id="rect323" />
    </clipPath>
  </defs>
  <text
     xml:space="preserve"
     style="font-size:16px;line-height:1.25;font-family:'Foundry Sterling';-inkscape-font-specification:'Foundry Sterling';stroke-width:0.75"
     x="-195.58397"
     y="23.174719"
     id="text1190"
     transform="rotate(-90)"><tspan
       sodipodi:role="line"
       id="tspan1188"
       style="font-size:16px;stroke-width:0.75"
       x="-195.58397"
       y="23.174719">p/kWh</tspan></text>
</svg>
