<?xml version="1.0" encoding="UTF-8" standalone="no"?>
<!-- Generator: Adobe Illustrator 19.2.1, SVG Export Plug-In . SVG Version: 6.00 Build 0)  -->

<svg
   version="1.1"
   id="layer"
   x="0px"
   y="0px"
   viewBox="0 0 646.4746 254.16948"
   xml:space="preserve"
   sodipodi:docname="ucl.svg"
   width="646.47461"
   height="254.16948"
   inkscape:version="1.2.1 (9c6d41e4, 2022-07-14)"
   xmlns:inkscape="http://www.inkscape.org/namespaces/inkscape"
   xmlns:sodipodi="http://sodipodi.sourceforge.net/DTD/sodipodi-0.dtd"
   xmlns="http://www.w3.org/2000/svg"
   xmlns:svg="http://www.w3.org/2000/svg"><defs
   id="defs29224" /><sodipodi:namedview
   id="namedview29222"
   pagecolor="#ffffff"
   bordercolor="#666666"
   borderopacity="1.0"
   inkscape:showpageshadow="2"
   inkscape:pageopacity="0.0"
   inkscape:pagecheckerboard="0"
   inkscape:deskcolor="#d1d1d1"
   showgrid="false"
   inkscape:zoom="0.36196319"
   inkscape:cx="306.66102"
   inkscape:cy="-91.169492"
   inkscape:current-layer="layer" />
<style
   type="text/css"
   id="style29187">
	.st0{fill:#FFFFFF;}
</style>
<rect
   x="20.5"
   y="25.347458"
   width="600"
   height="200"
   id="rect29189" />
<path
   class="st0"
   d="M 466.6,225.34746 V 79.647458 h 49.3 V 194.44746 h 64 v 31.2"
   id="path29191" />
<path
   class="st0"
   d="m 322.5,225.54746 c -21.8,-15.7 -32.1,-42 -32.1,-67.2 0,-41.7 28,-84.400002 81,-84.400002 23.6,0 46.1,8.3 62.6,25 6.6,6.900002 9.8,12.000002 13,18.200002 l -41.5,20.4 c -3.9,-9.3 -11.5,-25.8 -32.4,-25.8 -10.8,0 -17.7,5.2 -21.1,8.3 -11.8,11.3 -11.8,28.9 -11.8,35.1 0,23.1 8.6,44.9 32.9,44.9 23.1,0 29.9,-20.4 31.6,-25.5 l 42,20.4 c -3.9,7.4 -7.9,14.5 -15.2,22.1 -3.2,3.2 -6.6,5.9 -10.3,8.3"
   id="path29193" />
<path
   class="st0"
   d="m 152.5,225.54746 c -2.2,-1.5 -3.9,-2.9 -5.9,-4.7 -15.5,-15 -15.7,-32.4 -16.2,-48.6 V 79.847458 H 180 v 97.100002 c 0,6.6 0.2,13.5 5.6,18.6 3.9,4.2 10.1,5.6 15.7,5.6 7.9,0 12.8,-2.9 15.7,-5.4 5.6,-5.4 5.9,-12.3 5.9,-18.9 V 79.847458 h 49.8 v 82.700002 c 0,17.9 0,41 -18.4,58.4 -1.7,1.7 -3.7,3.2 -5.9,4.7"
   id="path29195" />
<g
   id="g29219"
   transform="translate(0,-196.15254)">
	<g
   id="g29217">
		<path
   class="st0"
   d="m 105.4,310.9 -26.7,-5.6 c 0,0 -26.5,5.6 -26.7,5.6 -0.2,0 0,0.2 0,0.2 l 0.2,1.5 v 0 0 c 0,0 0.5,0 0.7,0.2 l 0.5,2.2 c 0,0 0,0.2 0.2,0.2 0.2,0 1,0 1,0 H 103 c 0,0 0.7,0 1,0 0.3,0 0.2,0 0.2,0 l 0.5,-2.2 c 0.2,-0.5 0.7,-0.5 0.7,-0.5 v 0 0 l 0.2,-1.5 c 0,0 0,0 0,-0.2 h -0.2 z"
   id="path29197" />
		<path
   class="st0"
   d="m 102.7,315.8 v 0 -0.8 0 h -4.2 v 0 0.7 0 h 0.2 c 0,0 0,0 0,0.2 0,0 0,0.7 0.5,1 v 0.2 c 0,0 0,0 -0.2,0 v 0 0.2 0.2 0 0 0 0 15 l -0.2,0.2 v 0 0.2 0 0 h -0.2 v 0 0.5 h 3.9 v -0.5 0 h -0.2 v 0 0 0 0 l -0.2,-0.2 v -15 0 0 0 0 -0.2 -0.2 0 0 c 0,0 -0.2,-0.2 0,-0.2 0.5,-0.2 0.5,-0.7 0.5,-1 V 316 h 0.2 v -0.2 z"
   id="path29199" />
		<path
   class="st0"
   d="m 93.9,315.8 v 0 -0.8 0 h -4.2 v 0 0.7 0 H 90 c 0,0 0,0 0,0.2 0,0 0,0.7 0.5,1 v 0.2 c 0,0 0,0 -0.2,0 v 0 0.2 0.2 0 0 0 0 15 l -0.2,0.2 v 0 0.2 0 0 h -0.2 v 0 0.5 h 3.9 v -0.5 0 h -0.2 v 0 0 0 0 l -0.2,-0.2 v -15 0 0 0 0 -0.2 -0.2 0 0 c 0,0 -0.2,-0.2 0,-0.2 0.5,-0.2 0.5,-0.7 0.5,-1 V 316 h 0.2 v -0.2 z"
   id="path29201" />
		<path
   class="st0"
   d="m 85.3,315.8 v 0 -0.8 0 h -4.2 v 0 0.7 0 h 0.2 c 0,0 0,0 0,0.2 0,0 0,0.7 0.5,1 v 0.2 c 0,0 0,0 -0.2,0 v 0 0.2 0.2 0 0 0 0 15 l -0.2,0.2 v 0 0.2 0 0 h -0.2 v 0 0.5 h 3.9 v -0.5 0 h -0.2 v 0 0 0 0 l -0.2,-0.2 v -15 0 0 0 0 -0.2 -0.2 0 c 0,0 0,0 -0.2,0 0,0 -0.2,-0.2 0,-0.2 0.2,-0.2 0.5,-0.7 0.5,-1 V 316 h 0.2 z"
   id="path29203" />
		<path
   class="st0"
   d="m 76.5,315.8 v 0 -0.8 0 h -4.2 v 0 0.7 0 h 0.2 c 0,0 0,0 0,0.2 0,0 0,0.7 0.5,1 v 0.2 c 0,0 0,0 -0.2,0 v 0 0.2 0.2 0 0 0 0 15 l -0.2,0.2 v 0 0.2 0 0 h -0.2 v 0 0.5 h 3.9 v -0.5 0 H 76 v 0 0 0 0 l -0.2,-0.2 v -15 0 0 0 0 -0.2 -0.2 0 0 c 0,0 -0.2,-0.2 0,-0.2 0.5,-0.2 0.5,-0.7 0.5,-1 V 316 h 0.2 z"
   id="path29205" />
		<path
   class="st0"
   d="m 67.7,315.8 v 0 -0.8 0 h -4.2 v 0 0.7 0 h 0.2 c 0,0 0,0 0,0.2 0,0 0,0.7 0.5,1 v 0.2 c 0,0 0,0 -0.2,0 v 0 0.2 0.2 0 0 0 0 15 l -0.2,0.2 v 0 0.2 0 0 h -0.2 v 0 0.5 h 3.9 v -0.5 0 h -0.2 v 0 0 0 0 l -0.2,-0.2 v -15 0 0 0 0 -0.2 -0.2 0 c 0,0 0,0 -0.2,0 0,0 -0.2,-0.2 0,-0.2 0.5,-0.2 0.5,-0.7 0.5,-1 V 316 h 0.2 z"
   id="path29207" />
		<path
   class="st0"
   d="m 59.1,315.8 v 0 -0.8 0 h -4.2 v 0 0.7 0 h 0.2 c 0,0 0,0 0,0.2 0,0 0,0.7 0.5,1 v 0.2 c 0,0 0,0 -0.2,0 v 0 0.2 0.2 0 0 0 0 15 l -0.2,0.2 v 0 0.2 0 0 H 55 v 0 0.5 h 3.9 v -0.5 0 h -0.2 v 0 0 0 0 l -0.2,-0.2 v -15 0 0 0 0 -0.2 -0.2 0 c 0,0 0,0 -0.2,0 0,0 -0.2,-0.2 0,-0.2 0.2,-0.2 0.5,-0.7 0.5,-1 V 316 H 59 Z"
   id="path29209" />
		<g
   id="g29213">
			<path
   class="st0"
   d="m 91.2,299.8 c 0,0 -0.2,0 -0.5,0 v 0 c 0,0 0,-0.2 0,-0.5 v 0 c 0,0 -0.2,0 -0.5,0 v 0 -0.5 0 H 90 c 0,0 -0.2,0 -0.2,-0.2 0,-0.5 0.2,-4.7 -2,-7.4 -1.7,-2.5 -3.9,-3.7 -5.2,-4.4 0,-0.5 -0.7,-0.7 -1.2,-1 -0.2,0 -0.2,-0.2 -0.2,-0.2 v -0.2 c 0,-0.2 0.2,-0.2 0.5,-0.2 h 0.2 v -0.5 c 0,0 0,-0.2 -0.2,-0.2 -0.2,0 -0.2,0 -0.5,0 0,0 -0.2,0 -0.2,-0.2 0,0 0,0 0,-0.2 0,-0.2 0,-0.2 -0.2,-0.2 V 281 c 0,0 0,0 0.2,0 v 0 0 0 -0.2 0 h -0.2 c 0,0 0,0 0,-0.2 0,-0.2 0,-0.2 0,-0.2 v 0 0 -0.5 0 h -0.2 c 0,0 0,0 -0.2,0 -0.5,-0.5 -1,-1 -1,-1 v 0 c 0,0 0,-0.2 -0.2,-0.2 -0.2,0 0,-0.2 0,-0.2 v 0 c 0,0 0,0 0,-0.2 L 79,277.8 v 0 c 0,0 -0.2,0.2 -0.2,0.5 v 0.2 0 0.2 c -0.2,0 -0.2,0 -0.2,0.2 v 0 c 0,0 -0.5,0.7 -1,1 0,0 0,0 -0.2,0 h -0.2 v 0 0.2 0 0 c 0,0 0,0 0,0.2 0,0.2 0,0.2 0,0.2 H 77 v 0 0.2 0 0 0 h 0.2 v 2.9 l -0.2,0.2 c 0,0.2 0,0.2 0,0.2 0,0 0,0.2 -0.2,0.2 0,0 -0.2,0 -0.5,0 0,0 -0.2,0 -0.2,0.2 v 0.5 c 0,0 0,0 0.2,0 0.2,0 0.5,0 0.5,0.2 v 0.2 c 0,0.2 -0.2,0.2 -0.2,0.2 -0.2,0 -1,0.2 -1.2,1 -1.2,0.5 -3.7,2 -5.2,4.4 -2.2,2.9 -2,6.9 -2,7.4 0,0 0,0.2 -0.2,0.2 h -0.2 v 0 0.5 0 h -0.5 v 0 0.5 0 h -0.5 v 0 c 0,0 0,0.2 0,0.5 v 0 c 0.2,0 0.5,0.2 0.5,0.5 0,0.5 0.2,0.5 0.5,0.5 v 1.7 c 0,0.5 -0.2,0.5 -0.5,0.5 v 0 1.7 l 12.3,-2.7 v 0 l 12.3,2.7 v -1.7 0 c -0.2,0 -0.5,-0.2 -0.5,-0.5 V 301 c 0,0 0.5,0 0.5,-0.5 0,-0.2 0.2,-0.5 0.5,-0.5 v 0 c 0,-0.2 0,-0.5 0,-0.5 v 0 z"
   id="path29211" />
		</g>
		<polygon
   class="st0"
   points="54.9,335.4 52.9,335.4 52.9,339.1 50.7,339.1 50.7,342.5 106.9,342.5 106.9,339.1 104.7,339.1 104.7,335.4 102.7,335.4 102.7,333.9 54.9,333.9 "
   id="polygon29215" />
	</g>
</g>
</svg>
