<?xml version="1.0" encoding="UTF-8" standalone="no"?>
<svg
   width="460.8pt"
   height="345.6pt"
   viewBox="0 0 460.8 345.6"
   version="1.1"
   id="svg387"
   sodipodi:docname="E_seasons_priceByHour.svg"
   inkscape:version="1.2.1 (9c6d41e4, 2022-07-14)"
   xmlns:inkscape="http://www.inkscape.org/namespaces/inkscape"
   xmlns:sodipodi="http://sodipodi.sourceforge.net/DTD/sodipodi-0.dtd"
   xmlns:xlink="http://www.w3.org/1999/xlink"
   xmlns="http://www.w3.org/2000/svg"
   xmlns:svg="http://www.w3.org/2000/svg"
   xmlns:rdf="http://www.w3.org/1999/02/22-rdf-syntax-ns#"
   xmlns:cc="http://creativecommons.org/ns#"
   xmlns:dc="http://purl.org/dc/elements/1.1/">
  <sodipodi:namedview
     id="namedview389"
     pagecolor="#ffffff"
     bordercolor="#666666"
     borderopacity="1.0"
     inkscape:showpageshadow="2"
     inkscape:pageopacity="0.0"
     inkscape:pagecheckerboard="0"
     inkscape:deskcolor="#d1d1d1"
     inkscape:document-units="pt"
     showgrid="false"
     inkscape:zoom="1.3993733"
     inkscape:cx="194.37272"
     inkscape:cy="221.52774"
     inkscape:current-layer="g315" />
  <metadata
     id="metadata2">
    <rdf:RDF>
      <cc:Work>
        <dc:type
           rdf:resource="http://purl.org/dc/dcmitype/StillImage" />
        <dc:date>2022-08-04T11:44:37.795559</dc:date>
        <dc:format>image/svg+xml</dc:format>
        <dc:creator>
          <cc:Agent>
            <dc:title>Matplotlib v3.5.2, https://matplotlib.org/</dc:title>
          </cc:Agent>
        </dc:creator>
      </cc:Work>
    </rdf:RDF>
  </metadata>
  <defs
     id="defs6">
    <style
       type="text/css"
       id="style4">*{stroke-linejoin: round; stroke-linecap: butt}</style>
  </defs>
  <g
     id="matplotlib.axis_1">
    <g
       id="xtick_1">
      <g
         id="line2d_1">
        <defs
           id="defs12">
          <path
             id="ma1d3b27e68"
             d="M 0,0 V 3.5"
             style="stroke:#000000;stroke-width:0.8" />
        </defs>
        <g
           id="g16">
          <use
             xlink:href="#ma1d3b27e68"
             x="73.832726"
             y="307.58401"
             style="stroke:#000000;stroke-width:0.8"
             id="use14" />
        </g>
      </g>
    </g>
    <g
       id="xtick_2">
      <g
         id="line2d_2">
        <g
           id="g22">
          <use
             xlink:href="#ma1d3b27e68"
             x="156.72325"
             y="307.58401"
             style="stroke:#000000;stroke-width:0.8"
             id="use20" />
        </g>
      </g>
      <g
         id="text_1">
        <!-- 6am -->
        <g
           transform="matrix(0.1,0,0,-0.1,145.60763,322.18244)"
           id="g36">
          <defs
             id="defs28">
            <path
               id="DejaVuSans-36"
               d="m 2113,2584 q -425,0 -674,-291 -248,-290 -248,-796 0,-503 248,-796 249,-292 674,-292 425,0 673,292 248,293 248,796 0,506 -248,796 -248,291 -673,291 z m 1253,1979 v -575 q -238,112 -480,171 -242,60 -480,60 -625,0 -955,-422 -329,-422 -376,-1275 184,272 462,417 279,145 613,145 703,0 1111,-427 408,-426 408,-1160 0,-719 -425,-1154 -425,-434 -1131,-434 -810,0 -1238,620 -428,621 -428,1799 0,1106 525,1764 525,658 1409,658 238,0 480,-47 242,-47 505,-140 z"
               transform="scale(0.015625)" />
            <path
               id="DejaVuSans-61"
               d="m 2194,1759 q -697,0 -966,-159 -269,-159 -269,-544 0,-306 202,-486 202,-179 548,-179 479,0 768,339 289,339 289,901 v 128 z m 1147,238 V 0 H 2766 V 531 Q 2569,213 2275,61 1981,-91 1556,-91 q -537,0 -855,302 -317,302 -317,808 0,590 395,890 396,300 1180,300 h 807 v 57 q 0,397 -261,614 -261,217 -733,217 -300,0 -585,-72 -284,-72 -546,-216 v 532 q 315,122 612,182 297,61 578,61 760,0 1135,-394 375,-393 375,-1193 z"
               transform="scale(0.015625)" />
            <path
               id="DejaVuSans-6d"
               d="m 3328,2828 q 216,388 516,572 300,184 706,184 547,0 844,-383 297,-382 297,-1088 V 0 h -578 v 2094 q 0,503 -179,746 -178,244 -543,244 -447,0 -707,-297 -259,-296 -259,-809 V 0 h -578 v 2094 q 0,506 -178,748 -178,242 -550,242 -441,0 -701,-298 -259,-298 -259,-808 V 0 H 581 v 3500 h 578 v -544 q 197,322 472,475 275,153 653,153 382,0 649,-194 267,-193 395,-562 z"
               transform="scale(0.015625)" />
          </defs>
          <use
             xlink:href="#DejaVuSans-36"
             id="use30" />
          <use
             xlink:href="#DejaVuSans-61"
             x="63.623047"
             id="use32" />
          <use
             xlink:href="#DejaVuSans-6d"
             x="124.90234"
             id="use34" />
        </g>
      </g>
    </g>
    <g
       id="xtick_3">
      <g
         id="line2d_3">
        <g
           id="g42">
          <use
             xlink:href="#ma1d3b27e68"
             x="198.16852"
             y="307.58401"
             style="stroke:#000000;stroke-width:0.8"
             id="use40" />
        </g>
      </g>
      <g
         id="text_2">
        <!-- 9am -->
        <g
           transform="matrix(0.1,0,0,-0.1,187.05289,322.18244)"
           id="g54">
          <defs
             id="defs46">
            <path
               id="DejaVuSans-39"
               d="m 703,97 v 575 q 238,-113 481,-172 244,-59 479,-59 625,0 954,420 330,420 377,1277 -181,-269 -460,-413 -278,-144 -615,-144 -700,0 -1108,423 -408,424 -408,1159 0,718 425,1152 425,435 1131,435 810,0 1236,-621 427,-620 427,-1801 Q 3622,1225 3098,567 2575,-91 1691,-91 1453,-91 1209,-44 966,3 703,97 Z m 1256,1978 q 425,0 673,290 249,291 249,798 0,503 -249,795 -248,292 -673,292 -425,0 -673,-292 -248,-292 -248,-795 0,-507 248,-798 248,-290 673,-290 z"
               transform="scale(0.015625)" />
          </defs>
          <use
             xlink:href="#DejaVuSans-39"
             id="use48" />
          <use
             xlink:href="#DejaVuSans-61"
             x="63.623047"
             id="use50" />
          <use
             xlink:href="#DejaVuSans-6d"
             x="124.90234"
             id="use52" />
        </g>
      </g>
    </g>
    <g
       id="xtick_4">
      <g
         id="line2d_4">
        <g
           id="g60">
          <use
             xlink:href="#ma1d3b27e68"
             x="239.61377"
             y="307.58401"
             style="stroke:#000000;stroke-width:0.8"
             id="use58" />
        </g>
      </g>
      <g
         id="text_3">
        <!-- noon -->
        <g
           transform="matrix(0.1,0,0,-0.1,227.15752,322.18244)"
           id="g75">
          <defs
             id="defs65">
            <path
               id="DejaVuSans-6e"
               d="M 3513,2113 V 0 h -575 v 2094 q 0,497 -194,743 -194,247 -581,247 -466,0 -735,-297 -269,-296 -269,-809 V 0 H 581 v 3500 h 578 v -544 q 207,316 486,472 280,156 646,156 603,0 912,-373 310,-373 310,-1098 z"
               transform="scale(0.015625)" />
            <path
               id="DejaVuSans-6f"
               d="m 1959,3097 q -462,0 -731,-361 -269,-361 -269,-989 0,-628 267,-989 268,-361 733,-361 460,0 728,362 269,363 269,988 0,622 -269,986 -268,364 -728,364 z m 0,487 q 750,0 1178,-488 429,-487 429,-1349 Q 3566,888 3137,398 2709,-91 1959,-91 1206,-91 779,398 353,888 353,1747 q 0,862 426,1349 427,488 1180,488 z"
               transform="scale(0.015625)" />
          </defs>
          <use
             xlink:href="#DejaVuSans-6e"
             id="use67" />
          <use
             xlink:href="#DejaVuSans-6f"
             x="63.378906"
             id="use69" />
          <use
             xlink:href="#DejaVuSans-6f"
             x="124.56055"
             id="use71" />
          <use
             xlink:href="#DejaVuSans-6e"
             x="185.74219"
             id="use73" />
        </g>
      </g>
    </g>
    <g
       id="xtick_5">
      <g
         id="line2d_5">
        <g
           id="g81">
          <use
             xlink:href="#ma1d3b27e68"
             x="281.05902"
             y="307.58401"
             style="stroke:#000000;stroke-width:0.8"
             id="use79" />
        </g>
      </g>
      <g
         id="text_4">
        <!-- 3pm -->
        <g
           transform="matrix(0.1,0,0,-0.1,269.83325,322.18244)"
           id="g94">
          <defs
             id="defs86">
            <path
               id="DejaVuSans-33"
               d="m 2597,2516 q 453,-97 707,-404 255,-306 255,-756 0,-690 -475,-1069 -475,-378 -1350,-378 -293,0 -604,58 -311,58 -642,174 v 609 q 262,-153 574,-231 313,-78 654,-78 593,0 904,234 311,234 311,681 0,413 -289,645 -289,233 -804,233 h -544 v 519 h 569 q 465,0 712,186 247,186 247,536 0,359 -255,551 -254,193 -729,193 -260,0 -557,-57 -297,-56 -653,-174 v 562 q 360,100 674,150 314,50 592,50 719,0 1137,-327 419,-326 419,-882 0,-388 -222,-655 -222,-267 -631,-370 z"
               transform="scale(0.015625)" />
            <path
               id="DejaVuSans-70"
               d="M 1159,525 V -1331 H 581 v 4831 h 578 v -531 q 182,312 458,463 277,152 661,152 638,0 1036,-506 399,-506 399,-1331 0,-825 -399,-1332 -398,-506 -1036,-506 -384,0 -661,152 -276,152 -458,464 z m 1957,1222 q 0,634 -261,995 -261,361 -717,361 -457,0 -718,-361 -261,-361 -261,-995 0,-634 261,-995 261,-361 718,-361 456,0 717,361 261,361 261,995 z"
               transform="scale(0.015625)" />
          </defs>
          <use
             xlink:href="#DejaVuSans-33"
             id="use88" />
          <use
             xlink:href="#DejaVuSans-70"
             x="63.623047"
             id="use90" />
          <use
             xlink:href="#DejaVuSans-6d"
             x="127.09961"
             id="use92" />
        </g>
      </g>
    </g>
    <g
       id="xtick_6">
      <g
         id="line2d_6">
        <g
           id="g100">
          <use
             xlink:href="#ma1d3b27e68"
             x="322.5043"
             y="307.58401"
             style="stroke:#000000;stroke-width:0.8"
             id="use98" />
        </g>
      </g>
      <g
         id="text_5">
        <!-- 6pm -->
        <g
           transform="matrix(0.1,0,0,-0.1,311.27851,322.18244)"
           id="g109">
          <use
             xlink:href="#DejaVuSans-36"
             id="use103" />
          <use
             xlink:href="#DejaVuSans-70"
             x="63.623047"
             id="use105" />
          <use
             xlink:href="#DejaVuSans-6d"
             x="127.09961"
             id="use107" />
        </g>
      </g>
    </g>
    <g
       id="xtick_7">
      <g
         id="line2d_7">
        <g
           id="g115">
          <use
             xlink:href="#ma1d3b27e68"
             x="363.94955"
             y="307.58401"
             style="stroke:#000000;stroke-width:0.8"
             id="use113" />
        </g>
      </g>
      <g
         id="text_6">
        <!-- 9pm -->
        <g
           transform="matrix(0.1,0,0,-0.1,352.72377,322.18244)"
           id="g124">
          <use
             xlink:href="#DejaVuSans-39"
             id="use118" />
          <use
             xlink:href="#DejaVuSans-70"
             x="63.623047"
             id="use120" />
          <use
             xlink:href="#DejaVuSans-6d"
             x="127.09961"
             id="use122" />
        </g>
      </g>
    </g>
  </g>
  <g
     id="ytick_2">
    <g
       id="line2d_9">
      <g
         id="g157">
        <path
           id="use155"
           d="m 57.599998,257.20377 h -3.5"
           style="stroke:#000000;stroke-width:0.8" />
      </g>
    </g>
    <g
       id="text_8">
      <!-- 15.0 -->
      <g
         transform="matrix(0.1,0,0,-0.1,28.334375,261.00299)"
         id="g171">
        <defs
           id="defs161">
          <path
             id="DejaVuSans-30"
             d="m 2034,4250 q -487,0 -733,-480 -245,-479 -245,-1442 0,-959 245,-1439 246,-480 733,-480 491,0 736,480 246,480 246,1439 0,963 -246,1442 -245,480 -736,480 z m 0,500 q 785,0 1199,-621 414,-620 414,-1801 0,-1178 -414,-1799 -414,-620 -1199,-620 -784,0 -1198,620 -414,621 -414,1799 0,1181 414,1801 414,621 1198,621 z"
             transform="scale(0.015625)" />
        </defs>
        <path
           id="use163"
           d="m 12.40625,8.296875 h 16.109375 v 55.625 L 10.984375,60.40625 v 8.984375 l 17.4375,3.515625 H 38.28125 V 8.296875 H 54.390625 V 0 H 12.40625 Z"
           style="stroke-width:0.015625" />
        <path
           id="use165"
           d="m 74.419922,72.90625 h 38.718748 v -8.3125 H 83.451172 V 46.734375 q 2.140625,0.734375 4.28125,1.09375 2.15625,0.359375 4.3125,0.359375 12.203128,0 19.328128,-6.6875 7.14062,-6.6875 7.14062,-18.109375 0,-11.765625 -7.32812,-18.296875 -7.32813,-6.515625 -20.656253,-6.515625 -4.59375,0 -9.359375,0.78125 -4.75,0.78125 -9.828125,2.34375 V 11.625 q 4.390625,-2.390625 9.078125,-3.5625 4.6875,-1.171875 9.90625,-1.171875 8.453125,0 13.374998,4.4375 4.9375,4.4375 4.9375,12.0625 0,7.609375 -4.9375,12.046875 -4.921873,4.453125 -13.374998,4.453125 -3.953125,0 -7.890625,-0.875 -3.921875,-0.875 -8.015625,-2.734375 z"
           style="stroke-width:0.015625" />
        <path
           id="use167"
           d="m 137.93359,12.40625 h 10.3125 V 0 h -10.3125 z"
           style="stroke-width:0.015625" />
        <use
           xlink:href="#DejaVuSans-30"
           x="159.0332"
           id="use169" />
      </g>
    </g>
  </g>
  <g
     id="ytick_4">
    <g
       id="line2d_11">
      <g
         id="g197">
        <path
           id="use195"
           d="m 57.599998,191.71518 h -3.5"
           style="stroke:#000000;stroke-width:0.8" />
      </g>
    </g>
    <g
       id="text_10">
      <!-- 20.0 -->
      <g
         transform="matrix(0.1,0,0,-0.1,28.334375,195.51439)"
         id="g208">
        <path
           id="use200"
           d="M 19.1875,8.296875 H 53.609375 V 0 H 7.328125 v 8.296875 q 5.609375,5.8125 15.296875,15.59375 9.703125,9.796875 12.1875,12.640625 4.734375,5.3125 6.609375,9 1.890625,3.6875 1.890625,7.25 0,5.8125 -4.078125,9.46875 -4.078125,3.671875 -10.625,3.671875 -4.640625,0 -9.796875,-1.609375 -5.140625,-1.609375 -11,-4.890625 v 9.96875 Q 13.765625,71.78125 18.9375,73 q 5.1875,1.21875 9.484375,1.21875 11.328125,0 18.0625,-5.671875 6.734375,-5.65625 6.734375,-15.125 0,-4.5 -1.6875,-8.53125 Q 49.859375,40.875 45.40625,35.40625 44.1875,33.984375 37.640625,27.21875 31.109375,20.453125 19.1875,8.296875 Z"
           style="stroke-width:0.015625" />
        <use
           xlink:href="#DejaVuSans-30"
           x="63.623047"
           id="use202" />
        <path
           id="use204"
           d="m 137.93359,12.40625 h 10.3125 V 0 h -10.3125 z"
           style="stroke-width:0.015625" />
        <use
           xlink:href="#DejaVuSans-30"
           x="159.0332"
           id="use206" />
      </g>
    </g>
  </g>
  <g
     id="ytick_6">
    <g
       id="line2d_13">
      <g
         id="g231">
        <path
           id="use229"
           d="m 57.599998,126.22658 h -3.5"
           style="stroke:#000000;stroke-width:0.8" />
      </g>
    </g>
    <g
       id="text_12">
      <!-- 25.0 -->
      <g
         transform="matrix(0.1,0,0,-0.1,28.334375,130.02579)"
         id="g242">
        <path
           id="use234"
           d="M 19.1875,8.296875 H 53.609375 V 0 H 7.328125 v 8.296875 q 5.609375,5.8125 15.296875,15.59375 9.703125,9.796875 12.1875,12.640625 4.734375,5.3125 6.609375,9 1.890625,3.6875 1.890625,7.25 0,5.8125 -4.078125,9.46875 -4.078125,3.671875 -10.625,3.671875 -4.640625,0 -9.796875,-1.609375 -5.140625,-1.609375 -11,-4.890625 v 9.96875 Q 13.765625,71.78125 18.9375,73 q 5.1875,1.21875 9.484375,1.21875 11.328125,0 18.0625,-5.671875 6.734375,-5.65625 6.734375,-15.125 0,-4.5 -1.6875,-8.53125 Q 49.859375,40.875 45.40625,35.40625 44.1875,33.984375 37.640625,27.21875 31.109375,20.453125 19.1875,8.296875 Z"
           style="stroke-width:0.015625" />
        <path
           id="use236"
           d="m 74.419922,72.90625 h 38.718748 v -8.3125 H 83.451172 V 46.734375 q 2.140625,0.734375 4.28125,1.09375 2.15625,0.359375 4.3125,0.359375 12.203128,0 19.328128,-6.6875 7.14062,-6.6875 7.14062,-18.109375 0,-11.765625 -7.32812,-18.296875 -7.32813,-6.515625 -20.656253,-6.515625 -4.59375,0 -9.359375,0.78125 -4.75,0.78125 -9.828125,2.34375 V 11.625 q 4.390625,-2.390625 9.078125,-3.5625 4.6875,-1.171875 9.90625,-1.171875 8.453125,0 13.374998,4.4375 4.9375,4.4375 4.9375,12.0625 0,7.609375 -4.9375,12.046875 -4.921873,4.453125 -13.374998,4.453125 -3.953125,0 -7.890625,-0.875 -3.921875,-0.875 -8.015625,-2.734375 z"
           style="stroke-width:0.015625" />
        <path
           id="use238"
           d="m 137.93359,12.40625 h 10.3125 V 0 h -10.3125 z"
           style="stroke-width:0.015625" />
        <use
           xlink:href="#DejaVuSans-30"
           x="159.0332"
           id="use240" />
      </g>
    </g>
  </g>
  <g
     id="ytick_8">
    <g
       id="line2d_15">
      <g
         id="g265">
        <path
           id="use263"
           d="m 57.599998,60.737972 h -3.5"
           style="stroke:#000000;stroke-width:0.8" />
      </g>
    </g>
    <g
       id="text_14">
      <!-- 30.0 -->
      <g
         transform="matrix(0.1,0,0,-0.1,28.334375,64.537192)"
         id="g276">
        <use
           xlink:href="#DejaVuSans-33"
           id="use268" />
        <use
           xlink:href="#DejaVuSans-30"
           x="63.623047"
           id="use270" />
        <path
           id="use272"
           d="m 137.93359,12.40625 h 10.3125 V 0 h -10.3125 z"
           style="stroke-width:0.015625" />
        <use
           xlink:href="#DejaVuSans-30"
           x="159.0332"
           id="use274" />
      </g>
    </g>
  </g>
  <g
     id="line2d_16"
     style="stroke-width:3;stroke-dasharray:none;stroke:#4d4d4d">
    <path
       d="m 73.832727,266.64896 6.907544,-16.34002 6.907543,2.76349 6.907544,18.60902 6.907542,-2.7646 6.90755,11.96254 6.90754,-6.75064 6.90754,18.37252 6.90754,-11.20967 6.90755,6.82477 6.90754,-9.31025 6.90755,-10.65994 6.90754,-12.87185 6.90754,-5.43394 6.90755,0.21611 6.90754,-17.93511 6.90754,3.24725 6.90755,-12.23722 6.90754,0.25095 6.90754,-2.14666 6.90755,2.51402 6.90754,2.87359 6.90754,2.50216 6.90755,-1.05017 6.90754,-2.2753 6.90754,1.04164 6.90755,-0.25725 6.90754,7.07721 6.90755,0.11714 6.90754,3.60163 6.90754,5.90954 6.90755,-15.25946 6.90754,-131.495676 6.90754,-31.494209 6.90755,-3.95267 6.90754,-7.334476 6.90754,4.959093 6.90755,17.84725 6.90754,124.058888 6.90754,19.47458 6.90755,3.37513 6.90754,14.90397 6.90754,-8.88544 6.90755,16.71034 6.90754,-3.07191 6.90755,23.60333 6.90754,-17.38055 6.90754,15.76768"
       clip-path="url(#pa0d2018f03)"
       style="fill:none;stroke:#4d4d4d;stroke-width:3;stroke-linecap:square;stroke-dasharray:none"
       id="path281" />
  </g>
  <g
     id="line2d_17"
     style="stroke:#87de87;stroke-dasharray:8.80000019,1.10000003;stroke-dashoffset:0;stroke-width:1.1">
    <path
       d="m 73.832727,286.04474 6.907544,-10.38052 6.907543,3.18492 6.907544,10.18111 6.907542,-2.51642 6.90755,6.90081 6.90754,-3.82262 6.90754,5.89598 6.90754,-5.0496 6.90755,-3.13171 6.90754,-10.96022 6.90755,-6.28375 6.90754,-2.60163 6.90754,-18.04671 6.90755,-1.19947 6.90754,-4.91387 6.90754,-0.0135 6.90755,2.53885 6.90754,3.60767 6.90754,7.66648 6.90755,1.84225 6.90754,2.82586 6.90754,-0.39673 6.90755,5.91452 6.90754,2.36724 6.90754,11.48372 6.90755,0.98302 6.90754,4.69143 6.90755,0.98451 6.90754,-6.2401 6.90754,-105.93274 6.90755,-15.44567 6.90754,-43.00649 6.90754,-14.85282 6.90755,-3.57089 6.90754,-10.794301 6.90754,87.456711 6.90755,1.94838 6.90754,36.82859 6.90754,15.87798 6.90755,2.26978 6.90754,22.12286 6.90754,1.67333 6.90755,20.73983 6.90754,-15.29111 6.90755,13.12687 6.90754,1.55972 6.90754,10.58173"
       clip-path="url(#pa0d2018f03)"
       style="fill:none;stroke:#87de87;stroke-width:1.1;stroke-linecap:square;stroke-dasharray:8.80000019,1.10000003;stroke-dashoffset:0"
       id="path284" />
  </g>
  <g
     id="line2d_18"
     style="stroke-width:3;stroke-dasharray:none;stroke:#ffd42a">
    <path
       d="m 73.832727,269.99809 6.907544,3.65787 6.907543,0.94541 6.907544,9.27534 6.907542,-2.16396 6.90755,3.23122 6.90754,-3.89039 6.90754,4.52109 6.90754,-6.54816 6.90755,-4.78143 6.90754,-12.95879 6.90755,-1.77121 6.90754,5.30947 6.90754,-27.42846 6.90755,1.74563 6.90754,-10.48621 6.90754,-1.40756 6.90755,2.75916 6.90754,3.1842 6.90754,8.0891 6.90755,-1.10213 6.90754,2.87077 6.90754,-2.82791 6.90755,8.87746 6.90754,1.77121 6.90754,17.78852 6.90755,-1.49936 6.90754,5.28548 6.90755,1.78656 6.90754,-10.08002 6.90754,-150.09882 6.90755,-23.190095 6.90754,0.08124 6.90754,-13.199623 6.90755,-1.412361 6.90754,-1.541571 6.90754,131.84079 6.90755,8.04496 6.90754,2.06865 6.90754,12.01082 6.90755,-7.70466 6.90754,15.18672 6.90754,2.88165 6.90755,23.871 6.90754,-18.79442 6.90755,3.14066 6.90754,8.20636 6.90754,14.15012"
       clip-path="url(#pa0d2018f03)"
       style="fill:none;stroke:#ffd42a;stroke-width:3;stroke-linecap:square;stroke-dasharray:none"
       id="path287" />
  </g>
  <g
     id="line2d_19"
     style="stroke:#ff9955;stroke-width:1;stroke-dasharray:none">
    <path
       d="m 73.832727,273.71313 6.907544,-6.99527 6.907543,4.07464 6.907544,13.66963 6.907542,-1.59461 6.90755,8.94942 6.90754,-6.46411 6.90754,7.14795 6.90754,-17.69161 6.90755,-4.55541 6.90754,-17.19303 6.90755,-2.48684 6.90754,-2.54366 6.90754,-20.46145 6.90755,3.9409 6.90754,-8.96989 6.90754,-0.39401 6.90755,2.54556 6.90754,-1.57341 6.90754,8.10268 6.90755,-1.25971 6.90754,6.14131 6.90754,-1.79466 6.90755,6.19133 6.90754,-1.16765 6.90754,8.93351 6.90755,-1.97007 6.90754,4.11973 6.90755,0.73157 6.90754,-7.90074 6.90754,-78.54102 6.90755,-19.48248 6.90754,-46.631562 6.90754,-31.400268 6.90755,-7.211594 6.90754,-6.410306 6.90754,84.75508 6.90755,12.60011 6.90754,55.28321 6.90754,22.10153 6.90755,-2.63876 6.90754,20.08639 6.90754,-4.42358 6.90755,23.26911 6.90754,-17.357 6.90755,14.42664 6.90754,-2.38079 6.90754,15.31806"
       clip-path="url(#pa0d2018f03)"
       style="fill:none;stroke:#ff9955;stroke-width:1;stroke-linecap:square;stroke-dasharray:none"
       id="path290" />
  </g>
  <g
     id="text_15"
     transform="translate(-29.66246,4.350206)">
    <!-- winter -->
    <g
       transform="matrix(0.1,0,0,-0.1,364.42781,58.070438)"
       id="g315">
      <defs
         id="defs301">
        <path
           id="DejaVuSans-77"
           d="m 269,3500 h 575 l 719,-2731 715,2731 h 678 l 719,-2731 716,2731 h 575 L 4050,0 H 3372 L 2619,2869 1863,0 h -679 z"
           transform="scale(0.015625)" />
        <path
           id="DejaVuSans-69"
           d="m 603,3500 h 575 V 0 H 603 Z m 0,1363 h 575 V 4134 H 603 Z"
           transform="scale(0.015625)" />
        <path
           id="DejaVuSans-74"
           d="M 1172,4494 V 3500 H 2356 V 3053 H 1172 V 1153 q 0,-428 117,-550 117,-122 477,-122 h 590 V 0 H 1766 Q 1100,0 847,248 594,497 594,1153 V 3053 H 172 v 447 h 422 v 994 z"
           transform="scale(0.015625)" />
        <path
           id="DejaVuSans-65"
           d="M 3597,1894 V 1613 H 953 q 38,-594 358,-905 320,-311 892,-311 331,0 642,81 311,81 618,244 V 178 Q 3153,47 2828,-22 2503,-91 2169,-91 1331,-91 842,396 353,884 353,1716 q 0,859 464,1363 464,505 1252,505 706,0 1117,-455 411,-454 411,-1235 z m -575,169 q -6,471 -264,752 -258,282 -683,282 -481,0 -770,-272 -289,-272 -333,-766 z"
           transform="scale(0.015625)" />
        <path
           id="DejaVuSans-72"
           d="m 2631,2963 q -97,56 -211,82 -114,27 -251,27 -488,0 -749,-317 -261,-317 -261,-911 V 0 H 581 v 3500 h 578 v -544 q 182,319 472,473 291,155 707,155 59,0 131,-8 72,-7 159,-23 z"
           transform="scale(0.015625)" />
      </defs>
      <text
         xml:space="preserve"
         style="font-size:160px;line-height:1.25;font-family:'Foundry Sterling';-inkscape-font-specification:'Foundry Sterling';stroke-width:7.5"
         x="-2.036875"
         y="60.842373"
         id="text1915"
         transform="scale(1,-1)"><tspan
           sodipodi:role="line"
           id="tspan1913"
           style="font-size:160px;stroke-width:7.5"
           x="-2.036875"
           y="60.842373">Winter</tspan></text>
      <text
         xml:space="preserve"
         style="font-size:160px;line-height:1.25;font-family:'Foundry Sterling';-inkscape-font-specification:'Foundry Sterling';stroke-width:7.5"
         x="-1140.911"
         y="559.27979"
         id="text1969"
         transform="scale(1,-1)"><tspan
           sodipodi:role="line"
           id="tspan1967"
           style="font-size:160px;stroke-width:7.5"
           x="-1140.911"
           y="559.27979">Summer</tspan></text>
      <text
         xml:space="preserve"
         style="font-size:160px;line-height:1.25;font-family:'Foundry Sterling';-inkscape-font-specification:'Foundry Sterling';stroke-width:7.5"
         x="-2293.2126"
         y="1679.4241"
         id="text1973"
         transform="scale(1,-1)"><tspan
           sodipodi:role="line"
           id="tspan1971"
           style="font-size:160px;stroke-width:7.5"
           x="-2293.2126"
           y="1679.4241">Autumn</tspan></text>
      <text
         xml:space="preserve"
         style="font-size:160px;line-height:1.25;font-family:'Foundry Sterling';-inkscape-font-specification:'Foundry Sterling';stroke-width:7.5"
         x="-631.75458"
         y="2358.281"
         id="text1977"
         transform="scale(1,-1)"><tspan
           sodipodi:role="line"
           id="tspan1975"
           style="font-size:160px;stroke-width:7.5"
           x="-631.75458"
           y="2358.281">Spring</tspan></text>
    </g>
  </g>
  <defs
     id="defs385">
    <clipPath
       id="pa0d2018f03">
      <rect
         x="57.6"
         y="41.472"
         width="357.12"
         height="266.112"
         id="rect382" />
    </clipPath>
  </defs>
</svg>
