<?xml version="1.0" encoding="utf-8"?>
<!-- Generator: Adobe Illustrator 25.4.1, SVG Export Plug-In . SVG Version: 6.00 Build 0)  -->
<svg version="1.1" id="circle" xmlns="http://www.w3.org/2000/svg" xmlns:xlink="http://www.w3.org/1999/xlink" x="0px" y="0px"
	 viewBox="0 0 154.3 152.8" style="enable-background:new 0 0 154.3 152.8;" xml:space="preserve">
<style type="text/css">
	.st0{fill:#888888;}
</style>
<path class="st0" d="M74.1,39.5c2.1,0,4.2,0,6.3,0c0.3,0.1,0.7,0.2,1,0.2c7.2,0.5,14.1,2.5,20.5,5.8c9.9,5.2,17.4,12.7,22.8,22.5
	c3,5.5,4.9,11.3,5.7,17.5c0.2,1.8,0.4,3.6,0.6,5.4c0,1.8,0,3.6,0,5.5c-0.1,0.3-0.1,0.5-0.2,0.8c-0.3,2.1-0.5,4.3-0.9,6.4
	c-2.8,13.8-10,25-21.4,33.2c-12.2,8.7-25.8,11.9-40.6,9.3c-14.1-2.5-25.5-9.7-34-21.2c-6.2-8.3-9.5-17.6-10.3-28
	c-0.5-7.8,0.6-15.4,3.3-22.7c2.9-7.7,7.4-14.4,13.4-20.1c7.8-7.4,16.9-12,27.5-13.9C69.9,39.9,72,39.7,74.1,39.5z M68.8,55
	c-0.1-0.9-0.1-1.4-0.1-2c0-0.2,0.1-0.6,0.3-0.7c0.7-0.3,1.5-0.7,2.2-0.9c1.9-0.6,3.6,0.1,5.3,0.9c1.2,0.5,2.3,0.9,1.8,2.6
	c0.5,0.2,0.9,0.3,1.4,0.4c-0.2,1-0.7,1.6-1.7,1.4c-0.8-0.1-1.2,0.2-1.3,0.9c0,0.2-0.2,0.4-0.3,0.7c-1.5-0.4-2.9-0.7-4.6-1.1
	c0.8-0.4,1.3-0.7,1.9-1.1c0.6-0.3,1.1-0.6,1.9-1c-0.7-0.5-1.3-1.1-1.8-1.1c-1.1,0-2.2,0.2-3.2,0.6c-0.8,0.3-1.6,1-2.5,1.6
	c0,0.1,0.2,0.4,0.4,0.7c-0.8,0.4-1.5,0.8-2.3,1.2c-0.2-0.7-0.3-1.1-0.5-1.8c-1.9,1-3.6,1.9-5.4,2.9c-1.1,0.6-1.2,2.1,0,2.7
	c0.9,0.5,2,0.7,3.2,1c0,0.7,0,1.6,0,2.4c0.1,0.1,0.2,0.2,0.3,0.2c0.4-0.3,0.9-0.5,1.1-0.8c0.5-1.3,1.4-2,2.7-2.2
	c0.6-0.1,0.8-0.4,0.8-1c0-0.7,0-1.3,0-2s1.1-1.7,1.7-1.6c1.1,0.2,2.1,0.5,3.2,0.8c-0.1,0.8-0.1,1.4-0.2,2.5c1.3-0.5,2.4-1,3.6-1.5
	c0,0.7-0.1,1.4,0,2c0.1,0.4,0.3,1,0.7,1.2c1.1,0.5,1.4,1.3,1,2.5c0,0-0.1,0.1-0.2,0.1c-0.5,0.3-1,0.5-1.5,0.8
	c0.5,0.3,0.9,0.7,1.4,0.9c0.8,0.3,0.9,0.8,0.6,1.7c-0.8-0.2-1.6-0.5-2.4-0.7c-1.1-0.3-1.1-0.6-0.4-1.5c0.2-0.2,0.1-0.7,0.1-1
	c-0.3,0.1-0.6,0.1-0.8,0.3c-0.6,0.6-2,0.5-2.6-0.1c-0.4-0.3-1-0.4-1.5-0.4c-0.2,0-0.5,0.4-0.6,0.7c0,0.2,0.3,0.5,0.5,0.7
	c0.3,0.2,0.6,0.2,1,0.3c-0.3,0.3-0.5,0.6-0.8,0.9c-0.8-0.8-1.4-0.6-2,0.1c-0.7,0.7-1.3,1.7-2.2,2.1c-2,1-3.4,2.5-4.9,4.1
	c-0.2,0.2-0.4,0.4-0.3,0.6c0.1,1-0.6,1.4-1.3,1.8c-0.6,0.3-1.1,0.7-1.7,1.1c-1.1,0.8-2.1,1.7-1.7,3.4c0.1,0.4,0,0.8,0,1.2
	c-1.5-0.3-2.4-0.9-2-2.6c-2,0-3.9-0.2-5.7,0.1c-1.2,0.2-2.4,0.9-3.2,1.7c-0.8,0.8-1,2.1-1.5,3.2c-0.5,1,0.1,1.8,0.7,2.6
	c0.3,0.5,2.4,0.4,3,0c1-0.7,2-1.3,3-2c1,1.4-0.5,2.2-0.6,3.3c0.9,0.2,1.8,0.3,2.7,0.5c0.1,1,0.3,2,0.2,2.9c-0.1,1.3,0.5,1.5,1.6,1.8
	c1.8,0.4,3.1,0.2,4-1.5c0.5-0.9,1.2-1.2,2.2-0.8c0.8,0.3,1.7,0.1,2.3,1c0.7,1.1,3,1,3.8,0c1.3,0.2,1.9,1.2,2.4,2.3
	c0.5,0.9,1.1,1.3,2.1,1.2c1.9-0.1,2.1,0.1,2.7,1.8c0.2,0.6,0.3,1.2,0.2,1.9c0,0.6,0.3,0.9,0.8,1.1c1.9,0.9,3.8,1.2,5.8,1
	c0.9-0.1,1.5,0.2,1.8,1s0.9,1.3,1.8,1.4c0.3,0,0.5,0.2,0.7,0.3c0.1,1.6-1,2.5-1.7,3.5c-0.3,0.5-0.6,1-0.7,1.6
	c-0.2,1.2-0.4,2.4-0.4,3.6s-0.5,1.9-1.4,2.6s-1.7,0.4-2.6,0.4c-0.6,0-1,0.2-1.3,0.7c-0.7,1-0.3,1.9,0,2.8c0.2,0.8,0.1,1.4-0.4,2.1
	c-0.9,1.1-1.9,2.1-2.5,3.3c-1,2-2.7,2.4-4.5,3c-0.4,0.2-0.8,0.4-1.3,0.6c0.4,0.2,0.7,0.5,1.1,0.7c0.1,0,0.1,0.1,0.3,0.4
	c-0.4,0.6-0.9,1.2-1.5,2c0.7,0.3,1.4,0.6,2.2,1c0,0.1,0.1,0.3,0,0.5c-0.8,1.7-0.3,3,1.3,3.9c0.2,0.1,0.2,0.6,0.1,0.8
	s-0.4,0.4-0.6,0.4c-1.4,0.1-2.6-0.1-3.7-1.1c-1.3-1.2-2.2-2.5-3-4c-0.7-1.1-1-2.2-0.7-3.4c0.3-1.4,0.1-2.5-1-3.5
	c-0.5-0.5-0.6-1-0.4-1.7c0.3-0.9,0.3-1.9,0.5-3c-1-0.1-1-0.7-1-1.5c0-2.2,0-4.3,0-6.5c0-0.3-0.1-0.8-0.4-1c-1.2-0.8-2.4-1.5-3.6-2.2
	c-0.2-0.1-0.6-0.3-0.6-0.5c-0.1-1.6-1.3-2.5-2.2-3.6c-1.2-1.3-1.8-2.6-1.5-4.6c0.3-1.6,0.5-2.8,2-3.5c0.7-0.3,0.7-0.8,0.6-1.5
	c-0.3-2.1-0.3-2.2-2.5-2.2c-1.1,0-2-0.3-2.6-1.3c-1.2-1.9-2.9-2.9-5.1-3c-0.1,0-0.2-0.1-0.3-0.2c0-0.3,0-0.7,0.1-1.3
	c-0.7,0.2-1.2,0.3-1.7,0.4c-0.2,0-0.3,0.2-0.5,0.1c-1.9-0.5-4.2-0.4-5.1-2.8c-0.2-0.5-0.5-0.9-0.1-1.5c0.2-0.3,0.1-0.8-0.1-1.1
	c-1.3-1.9-2.9-3.7-2.7-6.3c-0.5,0-0.8,0-1.1,0c-0.2,1.9,0.6,3.4,1.6,4.9c0.3,0.5,0.4,1.1,0.5,1.7c-0.1,0.1-0.2,0.2-0.4,0.3
	c-0.5-0.2-1.3-0.3-1.6-0.7c-1.1-1.6-2.2-3.2-1.8-5.3c0.1-0.3,0.1-0.7,0-0.9c-0.1-0.3-0.3-0.8-0.6-0.9c-1.3-0.4-1.6-1.2-1.4-2.4
	c0-0.2,0-0.4,0-0.8C23.4,93,28,121,51.9,135.5c23.4,14.1,50.6,5.5,63.4-11.1c-0.5,0-0.9-0.1-1.4-0.1c0-0.9,0-1.7,0-2.6
	c0-0.4-0.1-0.9-0.4-1.1c-1.3-1.4-1.7-3-1.5-4.8c0.1-0.8-0.2-1.5-0.8-2c-0.9-0.8-1-1.8-0.4-2.8c0.3-0.7,0.7-1.4,1.1-2
	s0.3-1.1-0.1-1.7c-0.9-1.5-1.8-3-2.6-4.6c-0.2-0.4-0.3-1-0.3-1.5c0-1.1,0.2-2.2,0.3-3.4c-0.5-0.1-0.9-0.1-1.3-0.1s-0.8-0.1-1.2-0.2
	c-0.3-0.1-0.6-0.1-0.8-0.3c-1.4-1.1-2.3-1.2-3.8-0.1c-0.3,0.2-0.6,0.2-1,0.3c-1.2,0.1-2.3,0.3-3.5,0.4c-1,0.1-1.8,0.1-2.5-0.9
	c-0.9-1.2-1.9-2.4-3-3.5c-1.5-1.5-0.6-3.4-0.8-5.1c0-0.1,0.1-0.2,0.2-0.2c0.9-0.3,0.6-1.1,0.7-1.8c-0.9,0.2-1.1-0.3-1.3-1
	c-0.2-0.7,0.2-0.9,0.6-1.2c1.3-0.9,2.6-1.9,3.9-2.8c0.6-0.4,0.8-0.8,0.7-1.5c0-0.6-0.2-1.6,0.1-1.8c0.9-0.7,1.9-1.6,3.2-1.5
	c0.9,0.1,2,0.3,2.8-0.1c2.2-1.2,4.6-0.7,7-1.2c0,1.1,0,2,0,2.8c2.1,0.6,4,1.2,6,1.8c0-0.6,0.1-1,0.1-1.5c2.1-0.5,2.3-0.5,3.7,0.7
	c1.6,1.4,3.4,0.5,5.4,0.8c-0.4-1.2-0.8-2.1-1-3.1c-0.2-0.9-0.7-1.2-1.6-1.1c-1.8,0.1-2.6-0.7-2.8-2.5c0-0.3-0.1-0.6-0.2-0.9
	c-1.9,0.4-1.4,2.1-2.1,3.2c-1-1-2.2-1.7-1.9-3.4c0-0.2,0-0.4-0.1-0.5c-0.8-1.3-2.9-2.3-4.4-2.1c-0.1,2.3,2.2,2.4,3.3,3.5
	c-0.1,0.5-0.3,0.9-0.3,1.2c0.1,1-0.6,1.2-1.2,1.2c-0.7,0.1-1.4-0.1-1.5-1c0.6-0.3,1.6,0.4,1.8-0.7c-1.3-1.3-3.3-1.7-4.1-3.6
	c-0.4,0.3-0.7,0.7-1.1,1c-0.2,0.2-0.5,0.3-0.7,0.3c-1.1-0.5-1.7,0.2-2.2,1c-0.3,0.5-0.9,0.9-1.1,1.4c-0.7,2-2.2,2-3.8,1.9
	c-0.2,0-0.4,0-0.5,0c-1.1-0.1-1.7-0.6-1.9-1.7c-0.1-0.4-0.2-0.9-0.2-1.3c-0.1-1,0.4-1.7,1.4-1.8c1.3-0.1,2.6,0,3.9,0
	c0.1-0.3,0.2-0.7,0.2-1.1c-0.4-0.2-0.7-0.3-1-0.4c0.1-0.5,0.1-1,0.2-1.4c0.2-0.3,0.5-0.8,0.8-0.8c1.3-0.1,2.3-0.6,2.9-1.8
	c0.4-0.8,1-1.2,1.9-1.2s1.9,0,2.9,0c-0.1-0.7-0.2-1.4-0.3-2.2c-0.7,0.3-1.3,0.5-2,0.7c-0.2-0.4-0.2-0.8-0.4-1.1
	c-0.2-0.3-0.5-0.6-0.8-0.7c-0.8-0.3-1.2-1.1-0.5-1.7c0.6-0.5,1.4-0.8,2-1.2c0.5-0.4,1-0.8,1.6-1.2c-19.4-17.7-46-15.1-60.9-3.5
	c0,0,0.1,0,0.1,0.1c2,0.1,4,0.2,5.5,1.9c0.1,0.1,0.2,0.1,0.3,0.1c0.9,0,1.8,0,2.8,0c-0.6-1.8-2.1-0.6-3-1.2c0.6-1,0.4-1.3-0.9-1.3
	c-0.4,0-0.9,0-1.3,0c0.7-0.8,1.5-1.4,2.3-1.9c1-0.6,3.1-0.2,3.7,0.7c0.9,1.3,2.4,1.4,3.5,0.3c0.5-0.5,1-0.6,1.4,0
	c-0.9,1.5-2.2,2.1-4,1.7c0.1,0.7,0.1,1.2,0.2,1.7c0.8,0,1.5,0,2.3,0c0.3,0,0.7-0.1,0.7-0.2c0.3-0.8,0.9-0.7,1.5-0.7
	c0.9,0,1.2-0.4,1-1.3c-0.4-0.1-0.7-0.2-1-0.3c0.4-1.4,2.2-1.8,4.2-1c-0.4,0.8-1.9,1.1-1.3,2.3C67.1,54.5,68,54.6,68.8,55z
	 M113.2,59.5c0,0.3-0.1,0.5-0.1,0.6c0.3,1.3-0.3,2.1-1.6,2.5h-0.1c-0.1,0.2-0.3,0.4-0.4,0.6c0,0.1,0.3,0.3,0.5,0.3
	c0.9,0,1.7,0.1,2.6,0c0.6,0,1.3-1.3,1-1.7C114.7,61.1,114,60.4,113.2,59.5z M59.5,68.6c0.3-0.9,0-1.5-0.7-1.6
	c-1.3-0.4-2.8,0.3-3.1,1.5C57,68.5,58.3,68.6,59.5,68.6z M58.3,69.1c-1.6-0.2-2.4,0.4-2.7,1.6c-0.2,0.7,0.1,1,0.8,1.1
	C57,70.9,57.6,70.1,58.3,69.1z M48.3,56.7c2.1,0.2,3,0.3,2.8-1.4c-0.9,0.2-1.8,0.3-2.8,0.5C48.3,56.1,48.3,56.4,48.3,56.7z
	 M52.8,63.7c0.2,0.5,0.3,0.7,0.4,1c0.1,0.3,0.3,0.5,0.4,0.8c1.4-0.4,1.5-0.5,1.4-2.1C54.4,63.4,53.7,63.6,52.8,63.7z M58.5,72.6
	c1.9,0.2,2.4-0.3,2-1.6C59.7,71.3,58.5,71.2,58.5,72.6z M51.3,58c-1.1,0.3-2,0.5-2.8,0.7c0,0.1,0,0.2,0,0.3c0.8,0.5,1.6,0.2,2.5,0.1
	C51.1,59.1,51.1,58.5,51.3,58z M63.4,71.5c0.1-1.5-1.2-1-1.8-1.5C61.4,71.5,61.6,71.7,63.4,71.5z M59.4,70.5
	c1.4-0.1,1.6-0.4,1.5-1.5c-0.5,0-0.9,0-1.5,0C59.4,69.6,59.4,70,59.4,70.5z M122.3,73.2c-0.4-0.8-0.7-1.5-1.1-2.3
	c-0.1,0-0.2,0-0.2,0.1c0,0.7,0,1.5,0,2.2C121.4,73.2,121.8,73.2,122.3,73.2z"/>
</svg>
