<?xml version="1.0" encoding="UTF-8" standalone="no"?>
<!-- Created with Inkscape (http://www.inkscape.org/) -->

<svg
   version="1.1"
   id="svg28474"
   width="320.26398"
   height="148.25572"
   viewBox="0 0 320.26397 148.25572"
   sodipodi:docname="ox_eci.svg"
   inkscape:version="1.2.1 (9c6d41e4, 2022-07-14)"
   xmlns:inkscape="http://www.inkscape.org/namespaces/inkscape"
   xmlns:sodipodi="http://sodipodi.sourceforge.net/DTD/sodipodi-0.dtd"
   xmlns="http://www.w3.org/2000/svg"
   xmlns:svg="http://www.w3.org/2000/svg">
  <defs
     id="defs28478" />
  <sodipodi:namedview
     id="namedview28476"
     pagecolor="#ffffff"
     bordercolor="#666666"
     borderopacity="1.0"
     inkscape:showpageshadow="2"
     inkscape:pageopacity="0.0"
     inkscape:pagecheckerboard="0"
     inkscape:deskcolor="#d1d1d1"
     showgrid="false"
     inkscape:zoom="2.0940516"
     inkscape:cx="234.95123"
     inkscape:cy="108.40229"
     inkscape:current-layer="g28482">
    <inkscape:page
       x="0"
       y="0"
       id="page28480"
       width="320.26398"
       height="148.25572" />
  </sodipodi:namedview>
  <g
     id="g28482"
     inkscape:groupmode="layer"
     inkscape:label="Page 1"
     transform="matrix(1.3333333,0,0,-1.3333333,0,165.66666)">
    <path
       d="M 240.198,13.0582 H 129.114 V 124.142 h 111.084 v -111.0838 0"
       style="fill:#0f1f47;fill-opacity:1;fill-rule:nonzero;stroke:none;stroke-width:0.1"
       id="path28486" />
    <path
       d="m 144.204,45.477 c -0.37,-0.3688 -0.949,-0.659 -1.819,-0.659 -0.709,0 -1.389,0.2199 -1.849,0.6789 -0.598,0.598 -0.579,1.359 -0.579,2.0179 v 4.0973 h 0.9 v -4.198 c 0,-0.5071 -0.02,-1.0082 0.379,-1.4082 0.269,-0.2707 0.689,-0.4188 1.179,-0.4188 0.49,0 0.86,0.1688 1.1,0.409 0.45,0.45 0.41,0.9598 0.41,2.0891 v 3.5269 h 0.879 V 48.225 c 0,-1.2398 0.04,-2.109 -0.6,-2.748 v 0"
       style="fill:#ffffff;fill-opacity:1;fill-rule:nonzero;stroke:none;stroke-width:0.1"
       id="path28488" />
    <path
       d="m 151.228,44.948 -3.148,5.3051 0.02,-5.3051 h -0.82 v 6.6641 h 0.889 l 3.148,-5.3262 -0.02,5.3262 h 0.82 V 44.948 h -0.889 v 0"
       style="fill:#ffffff;fill-opacity:1;fill-rule:nonzero;stroke:none;stroke-width:0.1"
       id="path28490" />
    <path
       d="m 154.805,44.948 v 6.6641 h 0.9 V 44.948 h -0.9 v 0"
       style="fill:#ffffff;fill-opacity:1;fill-rule:nonzero;stroke:none;stroke-width:0.1"
       id="path28492" />
    <path
       d="m 160.703,44.948 h -0.989 l -2.299,6.6641 h 0.93 l 1.888,-5.7449 1.939,5.7449 h 0.869 l -2.338,-6.6641 v 0"
       style="fill:#ffffff;fill-opacity:1;fill-rule:nonzero;stroke:none;stroke-width:0.1"
       id="path28494" />
    <path
       d="m 164.788,44.948 v 6.6641 h 3.687 v -0.7383 h -2.808 v -2.1 h 2.638 v -0.7199 h -2.638 v -2.348 h 2.888 V 44.948 h -3.767 v 0"
       style="fill:#ffffff;fill-opacity:1;fill-rule:nonzero;stroke:none;stroke-width:0.1"
       id="path28496" />
    <path
       d="m 174.255,44.948 -0.769,1.736 c -0.459,1.0301 -0.678,1.1219 -1.578,1.1219 h -0.42 V 44.948 h -0.879 v 6.6641 h 1.479 c 0.889,0 1.578,0.0098 2.118,-0.5281 0.33,-0.3309 0.52,-0.7699 0.52,-1.3289 0,-0.461 -0.13,-0.8512 -0.41,-1.15 -0.24,-0.259 -0.629,-0.4813 -1.069,-0.5313 0.219,-0.0078 0.44,-0.1386 0.568,-0.2679 0.201,-0.2 0.341,-0.52 0.521,-0.9297 l 0.859,-1.9282 z m -0.709,5.604 c -0.359,0.3601 -0.829,0.3511 -1.368,0.3511 h -0.69 v -2.3883 h 0.31 c 0.639,0 1.289,-0.0207 1.708,0.3993 0.21,0.2121 0.33,0.5199 0.33,0.841 0,0.3578 -0.14,0.648 -0.29,0.7969 v 0"
       style="fill:#ffffff;fill-opacity:1;fill-rule:nonzero;stroke:none;stroke-width:0.1"
       id="path28498" />
    <path
       d="m 178.629,44.807 c -1.18,0 -1.969,0.6391 -2.048,0.72 l 0.429,0.6191 c 0.12,-0.0801 0.769,-0.5699 1.579,-0.5699 0.819,0 1.299,0.4898 1.299,1.1 0,0.7277 -0.816,1.0879 -1.536,1.4398 -0.849,0.409 -1.582,0.8488 -1.582,1.8281 0,1.0598 0.859,1.7989 2.089,1.7989 1.228,0 1.838,-0.6098 1.898,-0.6801 l -0.449,-0.5797 c -0.08,0.0688 -0.61,0.4988 -1.389,0.4988 -0.73,0 -1.25,-0.3601 -1.25,-0.9582 0,-0.6289 0.59,-0.8617 1.25,-1.2027 0.589,-0.3 1.898,-0.7551 1.898,-2.0652 0,-1.1 -0.81,-1.9489 -2.188,-1.9489 v 0"
       style="fill:#ffffff;fill-opacity:1;fill-rule:nonzero;stroke:none;stroke-width:0.1"
       id="path28500" />
    <path
       d="m 182.924,44.948 v 6.6641 h 0.899 V 44.948 h -0.899 v 0"
       style="fill:#ffffff;fill-opacity:1;fill-rule:nonzero;stroke:none;stroke-width:0.1"
       id="path28502" />
    <path
       d="M 188.416,50.8738 V 44.948 h -0.9 v 5.9258 h -1.958 v 0.7383 h 4.807 v -0.7383 h -1.949 v 0"
       style="fill:#ffffff;fill-opacity:1;fill-rule:nonzero;stroke:none;stroke-width:0.1"
       id="path28504" />
    <path
       d="M 194.245,47.5852 V 44.948 h -0.889 v 2.6372 l -2.108,4.0269 h 0.982 l 1.625,-3.1359 1.595,3.1359 h 0.904 l -2.109,-4.0269 v 0"
       style="fill:#ffffff;fill-opacity:1;fill-rule:nonzero;stroke:none;stroke-width:0.1"
       id="path28506" />
    <path
       d="m 203.811,44.818 c -1.759,0 -3.027,1.4281 -3.027,3.4468 0,2.0582 1.259,3.4782 3.078,3.4782 1.778,0 3.017,-1.42 3.017,-3.4289 0,-2.077 -1.249,-3.4961 -3.068,-3.4961 z m -0.01,6.164 c -1.268,0 -2.098,-1.0699 -2.098,-2.698 0,-1.618 0.929,-2.6969 2.148,-2.6969 1.389,0 2.109,1.1899 2.109,2.759 0,1.5871 -0.89,2.6359 -2.159,2.6359 v 0"
       style="fill:#ffffff;fill-opacity:1;fill-rule:nonzero;stroke:none;stroke-width:0.1"
       id="path28508" />
    <path
       d="m 209.9,50.8738 v -2.1 h 2.559 V 48.0539 H 209.9 V 44.948 h -0.889 v 6.6641 h 3.608 V 50.8738 H 209.9 v 0"
       style="fill:#ffffff;fill-opacity:1;fill-rule:nonzero;stroke:none;stroke-width:0.1"
       id="path28510" />
    <path
       d="m 153.465,31.8469 c 0,-4.2688 -3.288,-7.3598 -7.4,-7.3598 -4.186,0 -7.398,3.1309 -7.398,7.2027 0,4.2653 3.291,7.3602 7.398,7.3602 4.192,0 7.4,-3.1301 7.4,-7.2031 z m -2.382,-0.0778 c 0,3.875 -1.842,6.4938 -5.018,6.4938 -3.443,0 -5.008,-3.1688 -5.008,-6.4938 0,-3.8793 1.84,-6.5101 5.008,-6.5101 3.449,0 5.018,3.1742 5.018,6.5101 v 0 0 0"
       style="fill:#ffffff;fill-opacity:1;fill-rule:nonzero;stroke:none;stroke-width:0.1"
       id="path28512" />
    <path
       d="m 198.648,31.8469 c 0,-4.2688 -3.29,-7.3598 -7.399,-7.3598 -4.186,0 -7.399,3.1309 -7.399,7.2027 0,4.2653 3.29,7.3602 7.399,7.3602 4.188,0 7.399,-3.1301 7.399,-7.2031 z m -2.385,-0.0778 c 0,3.875 -1.841,6.4938 -5.014,6.4938 -3.447,0 -5.012,-3.1688 -5.012,-6.4938 0,-3.8793 1.84,-6.5101 5.012,-6.5101 3.445,0 5.014,3.1742 5.014,6.5101 v 0 0 0"
       style="fill:#ffffff;fill-opacity:1;fill-rule:nonzero;stroke:none;stroke-width:0.1"
       id="path28514" />
    <path
       d="m 204.364,31.7301 h 1.761 c 2.663,0 3.213,1.634 3.213,3.2437 0,1.2051 -0.51,2.1871 -1.76,2.7403 -0.67,0.2718 -1.296,0.3121 -2.156,0.3121 h -1.058 z m 3.214,-2.3199 c -0.824,1.1789 -1.139,1.5339 -2.156,1.5339 h -1.058 v -4.705 c 0,-0.3942 0.117,-0.5871 0.587,-0.668 l 1.606,-0.3121 v -0.5531 h -6.341 v 0.5531 l 1.448,0.3121 c 0.471,0.1199 0.585,0.2738 0.585,0.668 V 37.277 c 0,0.3949 -0.153,0.5929 -0.585,0.671 l -1.448,0.3149 v 0.548 h 6.185 c 1.294,0 2.193,-0.1148 2.937,-0.3918 1.525,-0.5882 2.386,-2.041 2.386,-3.4062 0,-1.7258 -1.29,-3.166 -3.445,-3.6777 v -0.0793 c 0.433,-0.1938 0.667,-0.4739 2.194,-2.4727 l 1.957,-2.5441 c 0.274,-0.3942 0.588,-0.668 1.094,-0.7481 l 1.334,-0.232 v -0.5531 h -3.405 c -0.393,0 -0.59,0.1179 -0.941,0.5921 l -2.934,4.1122 v 0 0"
       style="fill:#ffffff;fill-opacity:1;fill-rule:nonzero;stroke:none;stroke-width:0.1"
       id="path28516" />
    <path
       d="m 179.974,33.9551 h 0.665 v -4.666 h -0.665 l -0.277,1.3398 c -0.112,0.5082 -0.426,0.7063 -0.898,0.7063 h -3.404 v -5.0961 c 0,-0.3942 0.117,-0.5871 0.584,-0.668 l 1.608,-0.3121 v -0.5531 h -6.344 v 0.5531 l 1.446,0.3121 c 0.473,0.1199 0.59,0.2738 0.59,0.668 V 37.277 c 0,0.3949 -0.157,0.5929 -0.59,0.671 l -1.446,0.3149 v 0.548 h 10.688 v -3.5211 h -0.663 l -0.551,1.9872 c -0.156,0.5539 -0.471,0.7492 -0.94,0.7492 h -4.382 V 32.123 h 3.404 c 0.472,0 0.786,0.184 0.898,0.6918 l 0.277,1.1403 v 0 0"
       style="fill:#ffffff;fill-opacity:1;fill-rule:nonzero;stroke:none;stroke-width:0.1"
       id="path28518" />
    <path
       d="m 215.993,24.7059 v 0.5531 l 1.448,0.3121 c 0.471,0.1199 0.588,0.2738 0.588,0.668 V 37.277 c 0,0.3949 -0.157,0.5929 -0.588,0.671 l -1.448,0.3149 v 0.548 h 6.618 c 1.8,0 3.093,-0.2308 4.146,-0.7058 2.666,-1.2199 3.877,-3.8371 3.877,-6.4153 0,-2.5128 -0.936,-4.8566 -3.326,-6.1187 -1.097,-0.5859 -2.622,-0.8652 -4.619,-0.8652 z m 4.112,13.3203 V 26.125 c 0,-0.5129 0.117,-0.634 0.627,-0.634 h 1.722 c 1.643,0 2.857,0.2 3.718,0.8281 1.451,1.0598 2.077,2.893 2.077,5.3297 0,2.3844 -0.626,4.6492 -2.584,5.7883 -0.826,0.4719 -1.88,0.5891 -3.525,0.5891 h -2.035 v 0 0"
       style="fill:#ffffff;fill-opacity:1;fill-rule:nonzero;stroke:none;stroke-width:0.1"
       id="path28520" />
    <path
       d="m 159.028,25.259 v -0.5531 h -5.053 v 0.5531 l 1.252,0.2742 c 0.47,0.1188 0.824,0.2719 1.1,0.6309 l 4.23,5.405 -4.23,5.7079 c -0.276,0.3949 -0.63,0.5929 -1.06,0.7089 l -1.172,0.277 v 0.548 h 6.227 v -0.548 l -1.334,-0.2367 c -0.429,-0.0782 -0.389,-0.1953 -0.153,-0.509 l 3.128,-4.4281 h 0.08 l 3.248,4.348 c 0.235,0.3141 0.235,0.4719 -0.119,0.5488 l -1.25,0.277 v 0.548 h 5.048 v -0.548 l -1.25,-0.277 c -0.471,-0.116 -0.825,-0.2718 -1.098,-0.6277 l -4.029,-5.0512 4.498,-6.0679 c 0.275,-0.3942 0.629,-0.5871 1.061,-0.7059 l 1.172,-0.2742 v -0.5531 h -6.227 v 0.5531 l 1.336,0.232 c 0.425,0.0801 0.385,0.2 0.155,0.516 l -3.411,4.775 h -0.076 l -3.484,-4.775 c -0.238,-0.316 -0.274,-0.3949 0.155,-0.4738 l 1.256,-0.2742 v 0 0"
       style="fill:#ffffff;fill-opacity:1;fill-rule:nonzero;stroke:none;stroke-width:0.1"
       id="path28522" />
    <path
       d="m 207.408,96.732 c 0,0.8227 -0.278,1.4856 -0.88,1.8395 -0.378,0.2211 -0.889,0.2937 -1.518,0.2937 h -4.562 v -9.2504 h 4.967 c 1.149,0 1.825,-0.2593 1.884,-1.2906 h 0.11 l -0.001,8.4078 v 0"
       style="fill:#ffffff;fill-opacity:1;fill-rule:nonzero;stroke:none;stroke-width:0.1"
       id="path28524" />
    <path
       d="m 208.204,96.732 c 0,0.8227 0.277,1.4856 0.879,1.8395 0.378,0.2211 0.891,0.2937 1.52,0.2937 h 4.594 v -9.2504 h -4.999 c -1.15,0 -1.826,-0.2593 -1.885,-1.2906 h -0.111 l 0.002,8.4078 v 0"
       style="fill:#ffffff;fill-opacity:1;fill-rule:nonzero;stroke:none;stroke-width:0.1"
       id="path28526" />
    <path
       d="m 216.212,98.2762 c 0,0 0,-9.1922 0,-9.9172 -0.7,0 -7.22,0 -7.22,0 l -0.098,-0.2442 c -0.118,-0.2898 -0.331,-0.5589 -1.081,-0.5589 -0.75,0 -0.962,0.2691 -1.08,0.5589 l -0.099,0.2442 c 0,0 -6.496,0 -7.197,0 0,0.725 0,9.9172 0,9.9172 h -0.784 v -0.2563 l -0.549,0.1688 c -0.081,0.2441 -0.308,0.4211 -0.58,0.4211 -0.336,0 -0.611,-0.2743 -0.611,-0.6125 0,-0.3379 0.275,-0.6125 0.611,-0.6125 0.141,0 0.27,0.0496 0.374,0.13 l 0.755,-0.2324 v -0.757 l -0.545,0.0969 c -0.093,0.1992 -0.287,0.3418 -0.522,0.3531 -0.337,0.0152 -0.625,-0.2449 -0.641,-0.5828 -0.017,-0.3379 0.245,-0.625 0.583,-0.641 0.178,-0.0086 0.34,0.0609 0.457,0.1765 l 0.668,-0.1195 v -0.7738 l -0.57,0.0254 c -0.108,0.1695 -0.299,0.2816 -0.515,0.2816 -0.338,0 -0.613,-0.2742 -0.613,-0.6121 0,-0.3391 0.275,-0.6129 0.613,-0.6129 0.197,0 0.369,0.0945 0.482,0.2379 l 0.603,-0.0258 v -0.8414 l -0.59,-0.0223 c -0.112,0.1465 -0.287,0.2422 -0.484,0.2422 -0.338,0 -0.613,-0.2754 -0.613,-0.6121 0,-0.3379 0.275,-0.6133 0.613,-0.6133 0.213,0 0.402,0.1114 0.512,0.2782 l 0.562,0.0211 v -0.7758 l -0.652,-0.1129 c -0.11,0.1125 -0.264,0.1808 -0.433,0.1808 -0.338,0 -0.613,-0.2742 -0.613,-0.6121 0,-0.339 0.275,-0.6125 0.613,-0.6125 0.244,0 0.453,0.1426 0.551,0.3496 l 0.534,0.0911 v -0.7586 l -0.724,-0.2211 c -0.102,0.0793 -0.231,0.1293 -0.372,0.1293 -0.338,0 -0.613,-0.2739 -0.613,-0.6125 0,-0.3383 0.275,-0.6129 0.613,-0.6129 0.271,0 0.498,0.1781 0.579,0.4215 l 0.517,0.1578 v -0.7309 l -0.808,-0.3476 c -0.1,0.0617 -0.219,0.0957 -0.345,0.0898 -0.337,-0.0133 -0.601,-0.2988 -0.587,-0.6367 0.013,-0.3379 0.299,-0.6004 0.637,-0.5875 0.284,0.0113 0.515,0.2172 0.572,0.4859 l 0.531,0.2297 v -0.7199 c 0,0 7.087,0 7.499,0 0.318,-0.5289 0.855,-0.8043 1.661,-0.8043 0.807,0 1.344,0.2754 1.663,0.8043 0.412,0 7.521,0 7.521,0 v 10.7004 h -0.785 v 0"
       style="fill:#ffffff;fill-opacity:1;fill-rule:nonzero;stroke:none;stroke-width:0.1"
       id="path28528" />
    <path
       d="m 202.899,101.494 c -1.51,0 -2.733,-0.235 -2.733,-0.525 0,-0.288 1.223,-0.524 2.733,-0.524 1.509,0 2.733,0.236 2.733,0.524 0,0.29 -1.224,0.525 -2.733,0.525 v 0"
       style="fill:#ffffff;fill-opacity:1;fill-rule:nonzero;stroke:none;stroke-width:0.1"
       id="path28530" />
    <path
       d="m 206.663,104.88 -1.579,-1.109 -0.014,-0.112 0.376,-0.169 c 0.075,-0.037 0.075,-0.097 0.037,-0.132 l -0.991,-0.837 -0.095,0.008 -0.701,1.035 c -0.048,0.068 -0.031,0.133 0.054,0.149 l 0.471,0.076 v 0.119 L 203,105.634 h -0.203 l -1.22,-1.726 v -0.119 l 0.471,-0.076 c 0.084,-0.016 0.102,-0.081 0.053,-0.149 l -0.702,-1.035 -0.094,-0.008 -0.926,0.837 c -0.038,0.035 -0.037,0.095 0.038,0.132 l 0.374,0.169 -0.013,0.112 -1.643,1.109 -0.134,-0.051 0.965,-2.95 c 0.491,0.22 1.615,0.376 2.933,0.382 1.317,-0.006 2.443,-0.162 2.933,-0.382 l 0.964,2.95 -0.133,0.051 v 0"
       style="fill:#ffffff;fill-opacity:1;fill-rule:nonzero;stroke:none;stroke-width:0.1"
       id="path28532" />
    <path
       d="m 207.802,81.7203 c -1.51,0 -2.734,-0.234 -2.734,-0.5234 0,-0.2903 1.224,-0.5246 2.734,-0.5246 1.509,0 2.733,0.2343 2.733,0.5246 0,0.2894 -1.224,0.5234 -2.733,0.5234 v 0"
       style="fill:#ffffff;fill-opacity:1;fill-rule:nonzero;stroke:none;stroke-width:0.1"
       id="path28534" />
    <path
       d="m 211.565,85.1074 -1.578,-1.1097 -0.013,-0.1129 0.376,-0.168 c 0.073,-0.0371 0.074,-0.0973 0.036,-0.1328 l -0.992,-0.8363 -0.094,0.0086 -0.702,1.0343 c -0.048,0.068 -0.031,0.1344 0.054,0.1485 l 0.472,0.0765 v 0.1188 l -1.223,1.7269 h -0.2 l -1.222,-1.7269 v -0.1188 l 0.472,-0.0765 c 0.084,-0.0141 0.102,-0.0805 0.053,-0.1485 l -0.703,-1.0343 -0.094,-0.0086 -0.925,0.8363 c -0.038,0.0355 -0.037,0.0957 0.037,0.1328 l 0.375,0.168 -0.014,0.1129 -1.643,1.1097 -0.133,-0.0527 0.965,-2.9481 c 0.49,0.22 1.615,0.3743 2.931,0.3805 1.319,-0.0062 2.444,-0.1605 2.933,-0.3805 l 0.965,2.9481 -0.133,0.0527 v 0"
       style="fill:#ffffff;fill-opacity:1;fill-rule:nonzero;stroke:none;stroke-width:0.1"
       id="path28536" />
    <path
       d="m 212.692,101.494 c -1.51,0 -2.734,-0.235 -2.734,-0.525 0,-0.288 1.224,-0.524 2.734,-0.524 1.51,0 2.733,0.236 2.733,0.524 0,0.29 -1.223,0.525 -2.733,0.525 v 0"
       style="fill:#ffffff;fill-opacity:1;fill-rule:nonzero;stroke:none;stroke-width:0.1"
       id="path28538" />
    <path
       d="m 216.456,104.88 -1.578,-1.109 -0.014,-0.112 0.375,-0.169 c 0.074,-0.037 0.076,-0.097 0.038,-0.132 l -0.992,-0.837 -0.094,0.008 -0.702,1.035 c -0.048,0.068 -0.031,0.133 0.054,0.149 l 0.471,0.076 v 0.119 l -1.222,1.726 h -0.2 l -1.222,-1.726 v -0.119 l 0.472,-0.076 c 0.084,-0.016 0.101,-0.081 0.053,-0.149 l -0.703,-1.035 -0.094,-0.008 -0.925,0.848 c -0.038,0.035 -0.038,0.095 0.036,0.132 l 0.376,0.158 -0.015,0.112 -1.642,1.109 -0.133,-0.051 0.964,-2.95 c 0.49,0.22 1.615,0.376 2.932,0.382 1.319,-0.006 2.443,-0.162 2.933,-0.382 l 0.965,2.95 -0.133,0.051 v 0"
       style="fill:#ffffff;fill-opacity:1;fill-rule:nonzero;stroke:none;stroke-width:0.1"
       id="path28540" />
    <path
       d="m 208.341,112.817 c 0,-0.309 -0.251,-0.561 -0.56,-0.561 -0.311,0 -0.561,0.252 -0.561,0.561 0,0.31 0.25,0.562 0.561,0.562 0.309,0 0.56,-0.252 0.56,-0.562 v 0"
       style="fill:#ffffff;fill-opacity:1;fill-rule:nonzero;stroke:none;stroke-width:0.1"
       id="path28542" />
    <path
       d="m 221.43,107.591 c -0.014,-0.31 -0.279,-0.547 -0.589,-0.53 -0.31,0.016 -0.546,0.279 -0.531,0.589 0.016,0.309 0.281,0.546 0.589,0.529 0.309,-0.015 0.547,-0.279 0.531,-0.588 v 0"
       style="fill:#ffffff;fill-opacity:1;fill-rule:nonzero;stroke:none;stroke-width:0.1"
       id="path28544" />
    <path
       d="m 201.61,97.4422 c 0.251,0 0.458,-0.0496 0.596,-0.182 0.096,-0.0918 0.176,-0.2418 0.176,-0.4172 0,-0.509 -0.386,-0.7278 -0.858,-0.7278 h -0.525 v 0.0801 c 0.148,0.0121 0.164,0.027 0.164,0.2461 v 0.6738 c 0,0.2207 -0.016,0.2352 -0.148,0.2465 v 0.0805 z m -0.1,-1.0027 c 0,-0.1801 0.045,-0.2153 0.142,-0.2153 0.176,0 0.354,0.1938 0.354,0.5547 0,0.4387 -0.223,0.5609 -0.396,0.5609 -0.047,0 -0.073,-0.0058 -0.088,-0.0144 -0.01,-0.0039 -0.012,-0.0516 -0.012,-0.1024 v -0.7835 0"
       style="fill:#0f1f47;fill-opacity:1;fill-rule:nonzero;stroke:none;stroke-width:0.1"
       id="path28546" />
    <path
       d="m 203.927,96.7945 c 0,-0.4355 -0.298,-0.709 -0.689,-0.709 -0.412,0 -0.679,0.2993 -0.679,0.6754 0,0.3301 0.22,0.7118 0.708,0.7118 0.373,0 0.66,-0.2739 0.66,-0.6782 z m -0.989,0.0364 c 0,-0.3704 0.139,-0.6395 0.338,-0.6395 0.175,0 0.271,0.1695 0.271,0.5387 0,0.409 -0.147,0.6355 -0.322,0.6355 -0.157,0 -0.287,-0.1789 -0.287,-0.5347 v 0"
       style="fill:#0f1f47;fill-opacity:1;fill-rule:nonzero;stroke:none;stroke-width:0.1"
       id="path28548" />
    <path
       d="m 205.729,97.4422 v -0.0805 c -0.156,-0.0137 -0.164,-0.0219 -0.158,-0.2359 l 0.021,-0.6844 c 0.006,-0.2262 0.01,-0.2316 0.158,-0.2461 v -0.0801 h -0.64 v 0.0801 c 0.153,0.0145 0.161,0.0199 0.158,0.2461 l -0.006,0.7191 h -0.009 l -0.394,-1.0218 h -0.109 l -0.374,0.9504 h -0.004 l -0.014,-0.4528 c -0.006,-0.1758 -0.004,-0.2734 0.004,-0.3363 0.008,-0.0758 0.053,-0.0949 0.185,-0.1047 v -0.0801 h -0.504 v 0.0801 c 0.098,0.0078 0.137,0.0289 0.149,0.1047 0.011,0.0629 0.023,0.1715 0.033,0.3559 l 0.023,0.4129 c 0.014,0.2566 -0.002,0.2792 -0.164,0.2929 v 0.0805 h 0.48 l 0.356,-0.8082 0.313,0.8082 h 0.496 v 0"
       style="fill:#0f1f47;fill-opacity:1;fill-rule:nonzero;stroke:none;stroke-width:0.1"
       id="path28550" />
    <path
       d="m 206.391,96.4414 c 0,-0.2191 0.015,-0.234 0.157,-0.2461 v -0.0801 h -0.661 v 0.0801 c 0.142,0.0121 0.158,0.027 0.158,0.2461 v 0.6738 c 0,0.2207 -0.016,0.2352 -0.158,0.2465 v 0.0805 h 0.661 v -0.0805 c -0.142,-0.0113 -0.157,-0.0258 -0.157,-0.2465 v -0.6738 0"
       style="fill:#0f1f47;fill-opacity:1;fill-rule:nonzero;stroke:none;stroke-width:0.1"
       id="path28552" />
    <path
       d="m 203.106,93.6535 h -0.176 l -0.754,0.9633 h -0.005 v -0.3762 c 0,-0.2136 0.009,-0.3261 0.017,-0.3886 0.011,-0.0711 0.066,-0.0981 0.2,-0.1043 v -0.0801 h -0.508 v 0.0801 c 0.09,0.0039 0.142,0.0332 0.154,0.1043 0.007,0.0625 0.016,0.175 0.016,0.3886 v 0.3762 c 0,0.1508 -0.004,0.1773 -0.046,0.2348 -0.03,0.0425 -0.082,0.0566 -0.155,0.0625 v 0.08 h 0.451 l 0.679,-0.8464 h 0.005 v 0.273 c 0,0.2141 -0.008,0.327 -0.016,0.3895 -0.011,0.0711 -0.066,0.098 -0.201,0.1039 v 0.08 h 0.52 v -0.08 c -0.1,-0.0039 -0.155,-0.0328 -0.164,-0.1039 -0.009,-0.0625 -0.017,-0.1754 -0.017,-0.3895 v -0.7672 0"
       style="fill:#0f1f47;fill-opacity:1;fill-rule:nonzero;stroke:none;stroke-width:0.1"
       id="path28554" />
    <path
       d="m 203.932,93.6535 c -0.141,0.3672 -0.333,0.8703 -0.406,1.0633 -0.067,0.1754 -0.108,0.1852 -0.206,0.1973 v 0.08 h 0.659 v -0.08 l -0.069,-0.0078 c -0.076,-0.0083 -0.076,-0.0262 -0.053,-0.0993 0.036,-0.1136 0.197,-0.5148 0.273,-0.714 0.063,0.1734 0.194,0.5629 0.226,0.6586 0.042,0.1246 0.032,0.1464 -0.06,0.1566 l -0.062,0.0059 v 0.08 h 0.494 v -0.08 c -0.117,-0.0141 -0.145,-0.0239 -0.225,-0.2098 -0.012,-0.0289 -0.261,-0.6332 -0.413,-1.0508 h -0.158 v 0"
       style="fill:#0f1f47;fill-opacity:1;fill-rule:nonzero;stroke:none;stroke-width:0.1"
       id="path28556" />
    <path
       d="m 204.853,94.0879 c 0.042,-0.1188 0.163,-0.3449 0.362,-0.3449 0.107,0 0.187,0.0691 0.187,0.2031 0,0.1195 -0.078,0.1867 -0.204,0.2437 l -0.029,0.0149 c -0.168,0.0769 -0.358,0.1828 -0.358,0.4023 0,0.2305 0.168,0.418 0.488,0.418 0.063,0 0.129,-0.0082 0.189,-0.025 0.045,-0.0121 0.078,-0.0199 0.105,-0.0277 0.008,-0.0801 0.022,-0.1797 0.045,-0.3184 l -0.091,-0.0152 c -0.044,0.1347 -0.115,0.2793 -0.276,0.2793 -0.104,0 -0.179,-0.0785 -0.179,-0.1774 0,-0.1019 0.08,-0.1605 0.211,-0.2191 L 205.348,94.5 c 0.188,-0.0855 0.349,-0.1898 0.349,-0.4285 0,-0.25 -0.201,-0.4332 -0.519,-0.4332 -0.08,0 -0.164,0.0152 -0.22,0.0332 -0.061,0.0215 -0.104,0.0371 -0.127,0.0492 -0.018,0.0949 -0.043,0.2031 -0.069,0.341 l 0.091,0.0262 v 0"
       style="fill:#0f1f47;fill-opacity:1;fill-rule:nonzero;stroke:none;stroke-width:0.1"
       id="path28558" />
    <path
       d="m 202.199,91.5469 c 0,-0.2203 0.016,-0.2344 0.156,-0.2473 v -0.0789 h -0.659 v 0.0789 c 0.139,0.0129 0.156,0.027 0.156,0.2473 v 0.6734 c 0,0.2195 -0.017,0.234 -0.156,0.2461 v 0.0797 h 0.659 v -0.0797 c -0.14,-0.0121 -0.156,-0.0266 -0.156,-0.2461 v -0.6734 0"
       style="fill:#0f1f47;fill-opacity:1;fill-rule:nonzero;stroke:none;stroke-width:0.1"
       id="path28560" />
    <path
       d="m 203.006,91.5199 c 0,-0.1058 0.004,-0.1566 0.042,-0.175 0.033,-0.016 0.079,-0.0183 0.142,-0.0183 0.066,0 0.152,0.0058 0.196,0.0597 0.032,0.0383 0.067,0.0934 0.1,0.2012 l 0.088,-0.0148 c -0.011,-0.0766 -0.055,-0.2895 -0.074,-0.352 h -1.012 v 0.0789 c 0.156,0.0129 0.172,0.027 0.172,0.2473 v 0.6734 c 0,0.2195 -0.016,0.234 -0.153,0.2461 v 0.0797 h 0.663 v -0.0797 c -0.148,-0.0121 -0.164,-0.0266 -0.164,-0.2461 v -0.7004 0"
       style="fill:#0f1f47;fill-opacity:1;fill-rule:nonzero;stroke:none;stroke-width:0.1"
       id="path28562" />
    <path
       d="m 204.145,91.5199 c 0,-0.1058 0.004,-0.1566 0.04,-0.175 0.033,-0.016 0.08,-0.0183 0.144,-0.0183 0.065,0 0.152,0.0058 0.195,0.0597 0.033,0.0383 0.067,0.0934 0.1,0.2012 l 0.088,-0.0148 c -0.012,-0.0766 -0.055,-0.2895 -0.073,-0.352 h -1.012 v 0.0789 c 0.155,0.0129 0.171,0.027 0.171,0.2473 v 0.6734 c 0,0.2195 -0.016,0.234 -0.153,0.2461 v 0.0797 h 0.663 v -0.0797 c -0.147,-0.0121 -0.163,-0.0266 -0.163,-0.2461 v -0.7004 0"
       style="fill:#0f1f47;fill-opacity:1;fill-rule:nonzero;stroke:none;stroke-width:0.1"
       id="path28564" />
    <path
       d="m 205.12,91.2063 c -0.141,0.3664 -0.332,0.871 -0.406,1.0625 -0.067,0.175 -0.108,0.1855 -0.206,0.1976 v 0.0797 h 0.659 v -0.0797 l -0.069,-0.0082 c -0.077,-0.0078 -0.077,-0.0262 -0.054,-0.0973 0.038,-0.114 0.198,-0.5168 0.274,-0.7164 0.062,0.1735 0.194,0.5637 0.226,0.6586 0.043,0.125 0.03,0.1473 -0.062,0.1571 l -0.06,0.0062 v 0.0797 h 0.493 v -0.0797 c -0.115,-0.0141 -0.144,-0.0242 -0.224,-0.2109 -0.012,-0.0274 -0.261,-0.6336 -0.414,-1.0492 h -0.157 v 0"
       style="fill:#0f1f47;fill-opacity:1;fill-rule:nonzero;stroke:none;stroke-width:0.1"
       id="path28566" />
    <path
       d="m 210.754,97.398 v -0.08 c -0.156,-0.0149 -0.164,-0.0223 -0.158,-0.2371 l 0.022,-0.6829 c 0.004,-0.2265 0.008,-0.2324 0.156,-0.248 v -0.0785 h -0.638 V 96.15 c 0.152,0.0156 0.159,0.0215 0.156,0.248 l -0.006,0.7172 h -0.009 l -0.393,-1.0218 h -0.109 l -0.374,0.9515 h -0.004 l -0.014,-0.4535 c -0.007,-0.1754 -0.004,-0.2734 0.004,-0.3359 0.007,-0.0762 0.052,-0.0942 0.185,-0.1055 v -0.0785 h -0.504 V 96.15 c 0.099,0.0094 0.138,0.0293 0.15,0.1055 0.01,0.0625 0.022,0.1715 0.032,0.3562 l 0.023,0.4121 c 0.015,0.2575 -0.002,0.2793 -0.164,0.2942 v 0.08 h 0.479 l 0.358,-0.8082 0.312,0.8082 h 0.496 v 0"
       style="fill:#0f1f47;fill-opacity:1;fill-rule:nonzero;stroke:none;stroke-width:0.1"
       id="path28568" />
    <path
       d="m 211.416,96.398 c 0,-0.2207 0.017,-0.2347 0.158,-0.248 v -0.0785 h -0.662 V 96.15 c 0.142,0.0133 0.157,0.0273 0.157,0.248 v 0.6731 c 0,0.2211 -0.015,0.2352 -0.157,0.2469 v 0.08 h 0.662 v -0.08 c -0.141,-0.0117 -0.158,-0.0258 -0.158,-0.2469 v -0.6731 0"
       style="fill:#0f1f47;fill-opacity:1;fill-rule:nonzero;stroke:none;stroke-width:0.1"
       id="path28570" />
    <path
       d="m 212.935,96.0566 h -0.177 l -0.754,0.9633 H 212 v -0.3754 c 0,-0.2136 0.008,-0.3265 0.016,-0.389 0.01,-0.0723 0.065,-0.0981 0.2,-0.1055 v -0.0785 h -0.508 V 96.15 c 0.09,0.0055 0.143,0.0332 0.153,0.1055 0.009,0.0625 0.016,0.1754 0.016,0.389 v 0.3754 c 0,0.1508 -0.003,0.1774 -0.044,0.234 -0.031,0.0434 -0.082,0.057 -0.155,0.0641 v 0.08 h 0.451 l 0.679,-0.8464 h 0.004 v 0.2734 c 0,0.2137 -0.008,0.3254 -0.017,0.3891 -0.009,0.0711 -0.065,0.0968 -0.199,0.1039 v 0.08 h 0.52 v -0.08 c -0.102,-0.0039 -0.155,-0.0328 -0.165,-0.1039 -0.008,-0.0637 -0.016,-0.1754 -0.016,-0.3891 v -0.7684 0"
       style="fill:#0f1f47;fill-opacity:1;fill-rule:nonzero;stroke:none;stroke-width:0.1"
       id="path28572" />
    <path
       d="m 213.786,96.15 0.063,0.0094 c 0.075,0.0101 0.079,0.0304 0.052,0.1039 l -0.073,0.2082 h -0.336 l -0.06,-0.1961 c -0.027,-0.0879 -0.027,-0.1078 0.067,-0.118 l 0.059,-0.0074 v -0.0785 h -0.476 V 96.15 c 0.105,0.0156 0.136,0.0234 0.203,0.1949 l 0.408,1.0551 0.141,0.0273 0.139,-0.3847 c 0.087,-0.2434 0.174,-0.4832 0.252,-0.6918 0.066,-0.1774 0.103,-0.1875 0.203,-0.2008 v -0.0785 h -0.642 z m -0.259,0.4434 h 0.263 l -0.13,0.3902 h -0.005 l -0.128,-0.3902 v 0"
       style="fill:#0f1f47;fill-opacity:1;fill-rule:nonzero;stroke:none;stroke-width:0.1"
       id="path28574" />
    <path
       d="m 210.737,93.9504 c 0,-0.2199 0.017,-0.2352 0.189,-0.2477 v -0.0785 h -0.715 v 0.0785 c 0.163,0.0125 0.179,0.0278 0.179,0.2477 v 0.8937 h -0.034 c -0.136,0 -0.192,-0.0261 -0.224,-0.0628 -0.024,-0.0297 -0.049,-0.0825 -0.076,-0.1973 h -0.086 c 0.009,0.1715 0.02,0.3121 0.026,0.4168 h 0.062 c 0.031,-0.0465 0.051,-0.0504 0.106,-0.0504 h 0.814 c 0.054,0 0.063,0.0117 0.096,0.0504 h 0.064 c 0.002,-0.0863 0.011,-0.2594 0.021,-0.411 L 211.07,94.584 c -0.03,0.1226 -0.052,0.1754 -0.084,0.2101 -0.034,0.0375 -0.101,0.05 -0.199,0.05 h -0.05 v -0.8937 0"
       style="fill:#0f1f47;fill-opacity:1;fill-rule:nonzero;stroke:none;stroke-width:0.1"
       id="path28576" />
    <path
       d="m 211.806,93.9504 c 0,-0.2199 0.016,-0.2352 0.157,-0.2477 v -0.0785 h -0.661 v 0.0785 c 0.14,0.0125 0.157,0.0278 0.157,0.2477 v 0.6723 c 0,0.2214 -0.017,0.2347 -0.157,0.2476 v 0.0801 h 0.661 v -0.0801 c -0.141,-0.0129 -0.157,-0.0262 -0.157,-0.2476 v -0.6723 0"
       style="fill:#0f1f47;fill-opacity:1;fill-rule:nonzero;stroke:none;stroke-width:0.1"
       id="path28578" />
    <path
       d="m 213.502,94.3027 c 0,-0.4363 -0.298,-0.7097 -0.69,-0.7097 -0.412,0 -0.679,0.2996 -0.679,0.6754 0,0.3304 0.221,0.7117 0.708,0.7117 0.373,0 0.661,-0.2735 0.661,-0.6774 z m -0.99,0.0348 c 0,-0.3687 0.139,-0.6387 0.339,-0.6387 0.175,0 0.271,0.1696 0.271,0.5391 0,0.4101 -0.146,0.6363 -0.322,0.6363 -0.158,0 -0.288,-0.1793 -0.288,-0.5367 v 0"
       style="fill:#0f1f47;fill-opacity:1;fill-rule:nonzero;stroke:none;stroke-width:0.1"
       id="path28580" />
    <path
       d="m 211.339,92.502 v -0.0801 c -0.154,-0.0137 -0.162,-0.0223 -0.157,-0.236 l 0.022,-0.6839 c 0.005,-0.2266 0.009,-0.2325 0.156,-0.2469 v -0.0785 h -0.639 v 0.0785 c 0.154,0.0144 0.16,0.0203 0.158,0.2469 l -0.006,0.7183 h -0.009 l -0.394,-1.0219 h -0.11 l -0.374,0.9512 h -0.004 l -0.014,-0.4543 c -0.006,-0.1742 -0.004,-0.2719 0.006,-0.3359 0.006,-0.0762 0.051,-0.0938 0.185,-0.1043 v -0.0785 h -0.505 v 0.0785 c 0.099,0.009 0.137,0.0281 0.149,0.1043 0.01,0.064 0.023,0.1715 0.032,0.357 l 0.024,0.4117 c 0.014,0.2571 -0.002,0.2801 -0.164,0.2938 v 0.0801 h 0.48 l 0.358,-0.8071 0.311,0.8071 h 0.495 v 0"
       style="fill:#0f1f47;fill-opacity:1;fill-rule:nonzero;stroke:none;stroke-width:0.1"
       id="path28582" />
    <path
       d="m 211.656,92.1766 c 0,0.2191 -0.016,0.2336 -0.155,0.2453 v 0.0801 h 0.968 c 0.002,-0.0344 0.013,-0.1844 0.023,-0.3364 l -0.09,-0.0066 c -0.021,0.1 -0.043,0.1566 -0.076,0.1898 -0.031,0.0348 -0.099,0.0469 -0.207,0.0469 h -0.035 c -0.078,0 -0.082,0 -0.082,-0.0723 v -0.3925 h 0.102 c 0.176,0 0.182,0.0121 0.202,0.1671 h 0.09 v -0.4812 h -0.09 c -0.02,0.1793 -0.026,0.1914 -0.202,0.1914 h -0.102 v -0.3336 c 0,-0.1051 0.004,-0.1558 0.041,-0.1738 0.033,-0.0176 0.08,-0.018 0.143,-0.018 0.082,0 0.171,0.0106 0.216,0.0602 0.034,0.0367 0.069,0.1117 0.099,0.2113 l 0.091,-0.0156 c -0.01,-0.0992 -0.053,-0.3078 -0.071,-0.3621 h -1.04 v 0.0785 c 0.159,0.0125 0.175,0.0277 0.175,0.2469 v 0.6746 0"
       style="fill:#0f1f47;fill-opacity:1;fill-rule:nonzero;stroke:none;stroke-width:0.1"
       id="path28584" />
    <path
       d="m 213.308,91.2551 0.062,0.009 c 0.074,0.0093 0.078,0.0293 0.052,0.1031 l -0.074,0.209 h -0.334 l -0.061,-0.1965 c -0.026,-0.0879 -0.026,-0.1082 0.067,-0.1184 l 0.06,-0.0062 v -0.0785 h -0.476 v 0.0785 c 0.104,0.0144 0.135,0.0222 0.202,0.1937 l 0.408,1.0547 0.141,0.0289 0.138,-0.3863 c 0.088,-0.2422 0.176,-0.4824 0.253,-0.6914 0.065,-0.1774 0.103,-0.1871 0.203,-0.1996 v -0.0785 h -0.641 z m -0.259,0.4437 h 0.261 l -0.129,0.3887 h -0.006 l -0.126,-0.3887 v 0"
       style="fill:#0f1f47;fill-opacity:1;fill-rule:nonzero;stroke:none;stroke-width:0.1"
       id="path28586" />
    <path
       d="m 205.94,74.3809 c 0,-0.3106 -0.25,-0.5606 -0.56,-0.5606 -0.31,0 -0.56,0.25 -0.56,0.5606 0,0.3101 0.25,0.5617 0.56,0.5617 0.31,0 0.56,-0.2516 0.56,-0.5617 v 0"
       style="fill:#ffffff;fill-opacity:1;fill-rule:nonzero;stroke:none;stroke-width:0.1"
       id="path28588" />
    <path
       d="m 211.462,73.4754 c 0,-0.3086 -0.251,-0.5609 -0.561,-0.5609 -0.309,0 -0.561,0.2523 -0.561,0.5609 0,0.3101 0.252,0.5601 0.561,0.5601 0.31,0 0.561,-0.25 0.561,-0.5601 v 0"
       style="fill:#ffffff;fill-opacity:1;fill-rule:nonzero;stroke:none;stroke-width:0.1"
       id="path28590" />
    <path
       d="M 190.291,104.068 Z"
       style="fill:#ffffff;fill-opacity:1;fill-rule:nonzero;stroke:none;stroke-width:0.1"
       id="path28592" />
    <path
       d="M 212.114,110.212 Z"
       style="fill:#ffffff;fill-opacity:1;fill-rule:nonzero;stroke:none;stroke-width:0.1"
       id="path28594" />
    <path
       d="M 213.165,113.906 Z"
       style="fill:#ffffff;fill-opacity:1;fill-rule:nonzero;stroke:none;stroke-width:0.1"
       id="path28596" />
    <path
       d="M 221.949,103.089 Z"
       style="fill:#ffffff;fill-opacity:1;fill-rule:nonzero;stroke:none;stroke-width:0.1"
       id="path28598" />
    <path
       d="M 228.104,90.9211 Z"
       style="fill:#ffffff;fill-opacity:1;fill-rule:nonzero;stroke:none;stroke-width:0.1"
       id="path28600" />
    <path
       d="M 226.182,85.3848 Z"
       style="fill:#ffffff;fill-opacity:1;fill-rule:nonzero;stroke:none;stroke-width:0.1"
       id="path28602" />
    <path
       d="m 192.791,84.943 c 0.191,-4e-4 0.733,-0.0532 1.193,-0.7067 0.189,-0.2695 0.323,-0.5867 0.322,-0.9175 -0.001,-0.5493 -0.268,-0.8665 -0.912,-1.3196 l -1.708,-1.2062 -0.465,0.6613 1.914,1.35 c 0.176,0.1246 0.412,0.3293 0.413,0.5914 0,0.1445 -0.02,0.2621 -0.15,0.4484 -0.203,0.2895 -0.416,0.3137 -0.551,0.3137 -0.203,0 -0.394,-0.123 -0.805,-0.4121 l -1.659,-1.0801 -0.451,0.6422 1.76,1.152 c 0.465,0.3281 0.766,0.4847 1.099,0.4832 v 0"
       style="fill:#ffffff;fill-opacity:1;fill-rule:nonzero;stroke:none;stroke-width:0.1"
       id="path28604" />
    <path
       d="m 189.747,86.5051 2.339,0.9179 0.252,-0.6562 -3.53,-1.3691 -0.25,0.6839 1.827,2.3274 -2.356,-0.8235 -0.252,0.6895 3.564,1.2457 0.236,-0.6473 -1.83,-2.3683 v 0"
       style="fill:#ffffff;fill-opacity:1;fill-rule:nonzero;stroke:none;stroke-width:0.1"
       id="path28606" />
    <path
       d="m 187.209,91.2023 3.751,0.57 0.123,-0.7985 -3.751,-0.5703 -0.123,0.7988 v 0"
       style="fill:#ffffff;fill-opacity:1;fill-rule:nonzero;stroke:none;stroke-width:0.1"
       id="path28608" />
    <path
       d="m 190.827,94.2625 -3.847,-1.1531 0.034,0.8136 2.886,0.7762 -2.809,1.0356 0.034,0.7906 3.735,-1.4785 -0.033,-0.7844 v 0"
       style="fill:#ffffff;fill-opacity:1;fill-rule:nonzero;stroke:none;stroke-width:0.1"
       id="path28610" />
    <path
       d="m 187.527,98.5793 0.629,2.2097 0.623,-0.176 -0.411,-1.445 0.849,-0.2426 0.386,1.3576 0.612,-0.174 -0.386,-1.357 0.93,-0.2653 0.423,1.4887 0.635,-0.1809 -0.641,-2.2539 -3.649,1.0387 v 0"
       style="fill:#ffffff;fill-opacity:1;fill-rule:nonzero;stroke:none;stroke-width:0.1"
       id="path28612" />
    <path
       d="m 193.32,102.834 -1.124,0.1 c -0.532,0.05 -0.583,-0.078 -0.733,-0.348 l -0.045,-0.078 1.334,-0.709 -0.396,-0.702 -3.336,1.827 0.548,0.96 c 0.246,0.442 0.509,0.912 1.177,0.912 0.418,0 1.003,-0.353 1.003,-0.987 0,-0.112 -0.029,-0.231 -0.075,-0.354 0.149,0.216 0.422,0.248 0.668,0.244 0.138,-0.001 0.272,-0.02 0.382,-0.031 l 1.013,-0.088 z m -2.801,1.15 c -0.192,-0.055 -0.293,-0.205 -0.437,-0.463 l -0.125,-0.214 0.92,-0.497 0.156,0.279 c 0.13,0.233 0.158,0.366 0.112,0.529 -0.035,0.125 -0.152,0.254 -0.265,0.318 -0.135,0.075 -0.267,0.075 -0.361,0.048 v 0"
       style="fill:#ffffff;fill-opacity:1;fill-rule:nonzero;stroke:none;stroke-width:0.1"
       id="path28614" />
    <path
       d="m 195,110.305 0.645,0.486 2.284,-3.031 -0.644,-0.485 -2.285,3.03 v 0"
       style="fill:#ffffff;fill-opacity:1;fill-rule:nonzero;stroke:none;stroke-width:0.1"
       id="path28616" />
    <path
       d="m 199.258,112.185 1.441,-2.795 -0.717,-0.37 -1.442,2.795 -0.925,-0.476 -0.297,0.575 2.564,1.322 0.296,-0.576 -0.92,-0.475 v 0"
       style="fill:#ffffff;fill-opacity:1;fill-rule:nonzero;stroke:none;stroke-width:0.1"
       id="path28618" />
    <path
       d="m 203.698,111.982 0.366,-1.467 -0.75,-0.188 -0.366,1.469 -1.712,1.924 0.796,0.199 1.131,-1.325 0.381,1.704 0.762,0.187 -0.608,-2.503 v 0"
       style="fill:#ffffff;fill-opacity:1;fill-rule:nonzero;stroke:none;stroke-width:0.1"
       id="path28620" />
    <path
       d="m 217.431,110.621 1.197,-0.713 -0.326,-0.549 -1.197,0.713 -0.832,-1.397 -0.684,0.407 1.94,3.261 1.946,-1.159 -0.332,-0.557 -1.261,0.75 -0.451,-0.756 v 0"
       style="fill:#ffffff;fill-opacity:1;fill-rule:nonzero;stroke:none;stroke-width:0.1"
       id="path28622" />
    <path
       d="m 224.25,98.2941 1.037,1.1418 -1.508,0.3563 -0.247,0.7928 2.239,-0.5858 1.404,1.6438 0.261,-0.83 -0.963,-1.0532 1.398,-0.3364 0.244,-0.7757 -2.084,0.557 -1.523,-1.7359 -0.258,0.8253 v 0 0"
       style="fill:#ffffff;fill-opacity:1;fill-rule:nonzero;stroke:none;stroke-width:0.1"
       id="path28624" />
    <path
       d="m 227.878,95.5898 -0.88,-0.0703 0.093,-1.4023 -0.635,-0.0418 -0.093,1.3898 -1.624,-0.1093 -0.053,0.7629 3.787,0.3085 0.151,-2.2812 -0.648,-0.0426 -0.098,1.4863 v 0 0"
       style="fill:#ffffff;fill-opacity:1;fill-rule:nonzero;stroke:none;stroke-width:0.1"
       id="path28626" />
    <path
       d="m 230.544,93.7285 c 0.102,12.5155 -10.015,22.7805 -22.552,22.8825 -5.859,0.047 -11.439,-2.126 -15.716,-6.119 -4.596,-4.293 -7.154,-10.115 -7.205,-16.3951 -0.061,-7.4875 3.571,-14.4989 9.72,-18.7926 0.583,-2.4316 2.778,-4.2477 5.397,-4.2477 0.749,0 1.476,0.1481 2.16,0.4336 0.729,-0.2304 1.476,-0.4257 2.222,-0.5808 -0.241,-0.6676 -0.585,-1.2953 -0.92,-1.8629 l 0.544,-0.5442 c 0.131,0.0856 0.283,0.1282 0.437,0.1282 0.417,0 0.815,-0.2832 0.811,-0.7985 0,-0.4168 -0.282,-0.8074 -0.867,-0.8074 -0.318,8e-4 -0.728,0.1676 -0.95,0.6426 0,0 -0.146,-0.4633 -0.146,-1.0195 0,-1.6887 1.832,-3.5457 4.287,-4.3239 2.468,0.7715 4.296,2.6352 4.296,4.3239 0,0.5562 -0.148,1.0195 -0.148,1.0195 -0.222,-0.475 -0.634,-0.6418 -0.952,-0.6426 -0.584,0 -0.866,0.3906 -0.866,0.8074 -0.002,0.5153 0.396,0.7985 0.812,0.7985 0.153,0 0.307,-0.0426 0.436,-0.1282 l 0.5,0.4961 0.013,0.0075 0.02,0.0269 c 0.004,-0.0023 0.006,-0.0023 0.008,-0.0043 l 0.001,0.0145 0.003,0.0035 -0.003,0.0039 v 0 c -0.246,0.5894 -0.424,1.125 -0.551,1.6367 4.07,0.5586 7.508,2.2859 10.244,5.1617 l -0.006,0.0059 c 5.646,4.2902 8.914,10.7836 8.971,17.8738 z M 200.188,71.8203 c -2.62,0 -4.75,2.1387 -4.75,4.7668 0,0.8227 0.208,1.5961 0.574,2.2719 0.243,-0.2207 0.503,-0.4496 0.772,-0.6813 -0.231,-0.4886 -0.364,-1.0304 -0.364,-1.6058 0,-1.4274 0.719,-2.6059 2.08,-3.4086 0.789,-0.4656 1.684,-0.8856 2.633,-1.2481 -0.309,-0.0625 -0.624,-0.0949 -0.945,-0.0949 z m 7.62,6.9621 c -0.89,0 -1.764,0.0797 -2.626,0.2301 -0.926,1.8887 -2.882,3.1078 -4.994,3.1078 -0.542,0 -1.064,-0.082 -1.559,-0.2265 -3.727,2.8554 -5.944,7.3171 -5.944,12.0191 0,8.3431 6.784,15.1311 15.123,15.1311 8.338,0 15.123,-6.788 15.123,-15.1311 0,-8.3441 -6.785,-15.1305 -15.123,-15.1305 z m 3.228,-0.4359 c -0.394,-0.632 -0.633,-1.4527 -0.717,-2.2844 -1.385,0.3629 -2.643,0.8418 -3.747,1.3422 0.152,0.3199 0.511,0.6164 1.121,0.6164 0.039,0 0.076,-0.0019 0.115,-0.0019 1.104,0 2.184,0.1121 3.228,0.3277 z m -4.838,-0.2492 c -0.126,-0.1094 -0.23,-0.2348 -0.315,-0.368 -0.486,0.2055 -1.422,0.643 -1.726,0.825 0.48,-0.1539 1.554,-0.4086 2.041,-0.457 z m -6.01,3.2582 c 1.591,0 3.082,-0.8164 3.955,-2.1246 -0.768,0.1902 -1.523,0.4414 -2.258,0.7546 l -0.002,-0.0039 -0.021,0.0122 c -0.513,0.241 -1.062,0.3636 -1.632,0.3636 -1.268,0 -2.39,-0.6203 -3.084,-1.5683 -0.288,0.1609 -0.579,0.33 -0.863,0.5074 0.858,1.2426 2.287,2.059 3.905,2.059 z m 10.653,-12.0207 c -0.871,0 -1.519,-0.6805 -1.519,-1.5188 0,-0.9797 0.686,-1.5687 1.568,-1.5687 0.111,0 0.217,0.0121 0.321,0.034 -0.263,-1.2204 -1.706,-2.5434 -3.445,-3.1348 -1.708,0.5914 -3.175,1.9144 -3.438,3.1348 0.102,-0.0219 0.21,-0.034 0.32,-0.034 0.883,0 1.568,0.589 1.568,1.5687 0,0.8383 -0.646,1.5188 -1.518,1.5188 0.22,0.4047 0.469,0.9027 0.653,1.4246 1.026,-0.1762 2.036,-0.2719 2.978,-0.2719 0.759,0 1.498,0.0387 2.219,0.1098 0.097,-0.3715 0.331,-1.084 0.393,-1.2684 -0.031,0.0024 -0.064,0.0059 -0.1,0.0059 z m -2.512,1.9164 c -3.028,0 -6.808,1.0289 -9.405,2.5597 -0.776,0.4582 -1.699,1.3086 -1.699,2.761 0,0.3781 0.071,0.7363 0.198,1.0703 0.981,-0.8074 1.986,-1.5582 2.621,-1.9051 0.15,-0.0828 0.236,-0.1226 0.41,-0.1226 0.417,0 0.755,0.3386 0.755,0.7585 0,0.3196 -0.174,0.5786 -0.46,0.7043 -0.545,0.2375 -1.674,0.7055 -2.898,1.3348 0.55,0.7168 1.409,1.1817 2.379,1.1817 0.444,0 0.873,-0.0961 1.273,-0.284 l 0.827,-0.4825 c 2.628,-1.6054 9.344,-5.7054 17.485,-3.5761 -3.075,-2.6848 -6.846,-4 -11.486,-4 z m 12.719,5.1804 c -3.638,-1.2812 -7.036,-1.2007 -9.941,-0.5589 0.093,1.2445 0.555,2.6226 1.323,2.8296 6.534,1.9813 11.305,8.0493 11.305,15.2106 0,8.7641 -7.145,15.8951 -15.927,15.8951 -8.784,0 -15.929,-7.131 -15.929,-15.8951 0,-4.7867 2.194,-9.3418 5.902,-12.3465 -0.868,-0.4191 -1.611,-1.0562 -2.157,-1.8394 -0.261,0.182 -0.512,0.3695 -0.748,0.5621 l -0.147,-0.1489 c 0.16,-0.1957 0.399,-0.4457 0.691,-0.7281 -0.497,-0.8266 -0.787,-1.7902 -0.787,-2.825 0,-0.0699 0.008,-0.1394 0.011,-0.2101 -5.561,4.18 -8.825,10.7285 -8.769,17.714 0.05,6.076 2.523,11.707 6.965,15.855 4.123,3.851 9.502,5.947 15.145,5.901 12.094,-0.099 21.853,-10.018 21.755,-22.1122 -0.056,-6.8684 -3.223,-13.1555 -8.692,-17.3032 v 0"
       style="fill:#ffffff;fill-opacity:1;fill-rule:nonzero;stroke:none;stroke-width:0.1"
       id="path28628" />
    <path
       d="m 195.69,106.232 c 0,-0.325 -0.143,-0.668 -0.427,-0.979 -0.545,-0.596 -1.126,-0.65 -1.186,-0.648 l -0.165,0.628 c 0.09,0.025 0.517,0.112 0.82,0.444 0.139,0.149 0.209,0.309 0.209,0.45 0,0.15 -0.099,0.41 -0.408,0.41 -0.328,0 -0.881,-0.477 -1.446,-0.477 -0.217,0 -0.459,0.03 -0.709,0.26 -0.243,0.223 -0.356,0.505 -0.356,0.794 0,0.314 0.144,0.644 0.411,0.936 0.507,0.555 1.064,0.599 1.113,0.601 l 0.136,-0.618 c -0.064,-0.011 -0.479,-0.102 -0.736,-0.383 -0.133,-0.145 -0.203,-0.301 -0.203,-0.439 0,-0.149 0.095,-0.332 0.342,-0.336 0.271,-0.002 0.953,0.496 1.508,0.496 0.258,0 0.445,-0.046 0.705,-0.285 0.261,-0.237 0.392,-0.538 0.392,-0.854 v 0"
       style="fill:#ffffff;fill-opacity:1;fill-rule:nonzero;stroke:none;stroke-width:0.1"
       id="path28630" />
    <path
       d="m 213.166,110.047 c -0.966,0 -1.844,0.737 -1.844,1.845 0,0.99 0.662,2.138 1.867,2.138 0.981,0 1.889,-0.694 1.889,-1.807 0,-0.839 -0.567,-2.176 -1.912,-2.176 z m 1.103,2.185 c 0,0.263 -0.059,0.537 -0.219,0.749 -0.164,0.222 -0.434,0.376 -0.755,0.376 -0.679,0 -1.177,-0.844 -1.177,-1.54 0,-0.646 0.437,-1.086 1.023,-1.086 0.769,0 1.128,0.999 1.128,1.501 v 0"
       style="fill:#ffffff;fill-opacity:1;fill-rule:nonzero;stroke:none;stroke-width:0.1"
       id="path28632" />
    <path
       d="m 223.691,101.941 c -1.154,0 -1.79,1.113 -1.79,1.859 0,1.131 1.217,1.996 2.17,1.996 1.036,0 1.798,-0.987 1.798,-1.88 0,-1.016 -1.062,-1.975 -2.178,-1.975 z m -0.134,0.77 c 0.666,0 1.59,0.576 1.59,1.352 0,0.534 -0.416,0.951 -0.947,0.951 -0.624,0 -1.575,-0.555 -1.575,-1.337 0,-0.417 0.32,-0.966 0.932,-0.966 v 0"
       style="fill:#ffffff;fill-opacity:1;fill-rule:nonzero;stroke:none;stroke-width:0.1"
       id="path28634" />
    <path
       d="m 224.438,90.7641 c 0,0.9371 0.635,1.8582 1.896,1.8582 1.06,0 2.084,-0.6535 2.084,-1.8282 0,-0.964 -0.617,-1.8914 -1.87,-1.8914 -1.071,0 -2.11,0.677 -2.11,1.8614 z m 2.152,-1.0504 c 0.673,0 1.165,0.4113 1.165,1.016 0,0.7207 -0.834,1.0875 -1.478,1.0875 -0.826,0 -1.16,-0.5363 -1.16,-1.041 0,-0.7891 0.967,-1.0625 1.473,-1.0625 v 0"
       style="fill:#ffffff;fill-opacity:1;fill-rule:nonzero;stroke:none;stroke-width:0.1"
       id="path28636" />
    <path
       d="m 222.996,86.2918 1.127,-0.0039 c 0.536,-0.0055 0.576,0.125 0.702,0.4051 l 0.038,0.0824 -1.357,0.6309 0.325,0.7195 3.435,-1.5856 -0.439,-0.9879 c -0.303,-0.6656 -0.56,-1 -1.19,-1 -0.404,0 -0.997,0.336 -0.993,0.954 0.001,0.0953 0.015,0.1976 0.045,0.3054 -0.202,-0.3508 -0.71,-0.3023 -1.028,-0.3023 l -1.017,0.0043 z m 2.2,-0.4223 c 0,-0.2898 0.243,-0.5207 0.513,-0.5207 0.243,0 0.395,0.1328 0.537,0.4485 l 0.119,0.2824 -0.938,0.4418 -0.156,-0.35 c -0.052,-0.1152 -0.075,-0.2152 -0.075,-0.302 v 0"
       style="fill:#ffffff;fill-opacity:1;fill-rule:nonzero;stroke:none;stroke-width:0.1"
       id="path28638" />
    <path
       d="m 220.686,82.0965 c 0,0.7758 0.359,1.1984 0.816,1.7586 l 0.491,0.6047 2.943,-2.3953 -0.661,-0.8114 c -0.372,-0.4582 -0.812,-1.0222 -1.656,-1.0222 -0.481,0 -0.903,0.2234 -1.202,0.4656 -0.374,0.3043 -0.731,0.8199 -0.731,1.4 z m 2.022,-1.1129 c 0.4,0 0.631,0.1195 1.092,0.6855 l 0.143,0.1758 -1.954,1.5906 -0.241,-0.2953 c -0.235,-0.289 -0.357,-0.5754 -0.357,-0.8484 0,-0.3652 0.18,-0.6863 0.55,-0.9879 0.267,-0.2168 0.512,-0.3203 0.767,-0.3203 v 0"
       style="fill:#ffffff;fill-opacity:1;fill-rule:nonzero;stroke:none;stroke-width:0.1"
       id="path28640" />
    <path
       d="M 114.877,13.1879 H 0 V 124.25 h 114.877 v -111.0621 0"
       style="fill:#3687ab;fill-opacity:1;fill-rule:nonzero;stroke:none;stroke-width:0.1"
       id="path28642" />
    <text
       xml:space="preserve"
       transform="scale(1,-1)"
       style="font-variant:normal;font-weight:normal;font-size:90.6043px;font-family:BookAntiqua;-inkscape-font-specification:BookAntiqua;writing-mode:lr-tb;fill:#ffffff;fill-opacity:1;fill-rule:nonzero;stroke:none"
       id="text28648"
       x="3.6378901"
       y="-28.180901"><tspan
         x="3.6378901 47.03735 87.265663"
         y="-28.180901"
         sodipodi:role="line"
         id="tspan28646">eci</tspan></text>
    <path
       d="m 108.645,106.607 c 0.705,-1.678 1.057,-3.948 1.057,-6.8121 0,-1.6566 -0.097,-3.2644 -0.289,-4.8191 l -1.039,0.1262 c 0.159,1.7406 0.242,3.1726 0.242,4.296 0,2.769 -0.637,4.913 -1.91,6.429 -1.273,1.517 -2.966,2.274 -5.083,2.274 -1.428,0 -2.6125,-0.306 -3.5562,-0.921 -0.9418,-0.613 -1.7875,-1.528 -2.5254,-2.743 h -0.9226 c 1.0343,2.433 2.1542,4.199 3.3515,5.299 1.1992,1.102 2.6467,1.653 4.3427,1.653 1.209,0 2.393,-0.379 3.543,-1.132 1.152,-0.755 2.079,-1.972 2.789,-3.65"
       style="fill:#faf8f2;fill-opacity:1;fill-rule:nonzero;stroke:none;stroke-width:0.1"
       id="path28650" />
    <path
       d="m 108.03,93.05 c -0.524,1.7078 -1.309,2.998 -2.353,3.8777 -1.045,0.8754 -2.193,1.3145 -3.445,1.3145 -1.212,0 -2.4039,-0.4766 -3.5765,-1.4301 -1.1711,-0.957 -2.1887,-2.6273 -3.0516,-5.0219 -0.8621,-2.3914 -1.2918,-4.7785 -1.2918,-7.1617 0,-1.7535 0.3692,-3.1019 1.1082,-4.0476 0.7438,-0.9481 1.6856,-1.4207 2.8301,-1.4207 1.6566,0 3.3486,1.0003 5.0696,3 2.198,2.5539 3.768,6.1836 4.71,10.8898 z m 0.344,2.052 1.039,-0.1262 c -0.437,-3.5563 -1.379,-6.8438 -2.823,-9.8649 -2.332,-4.8519 -5.283,-7.275 -8.856,-7.275 -2.0996,0 -3.7684,0.6946 -5.0016,2.0786 -1.2328,1.3828 -1.8496,3.2707 -1.8496,5.6578 0,1.8007 0.3141,3.5679 0.9399,5.2984 0.6261,1.7328 1.4171,3.1988 2.3761,4.4 0.9571,1.2012 2.0219,2.1563 3.195,2.8617 1.5242,0.9254 3.0732,1.3867 4.6512,1.3867 1.104,0 2.107,-0.2421 3.002,-0.7285 0.896,-0.4859 1.634,-1.0742 2.213,-1.7683 0.365,-0.4313 0.736,-1.0707 1.114,-1.9203"
       style="fill:#faf8f2;fill-opacity:1;fill-rule:nonzero;stroke:none;stroke-width:0.1"
       id="path28652" />
    <path
       d="m 105.677,96.9277 c 1.044,-0.8797 1.829,-2.1699 2.353,-3.8777 -0.942,-4.7062 -2.512,-8.3359 -4.71,-10.8898 -1.721,-1.9997 -3.413,-3 -5.0696,-3 -1.1445,0 -2.0863,0.4726 -2.8301,1.4207 -0.739,0.9457 -1.1082,2.2941 -1.1082,4.0476 0,2.3832 0.4297,4.7703 1.2918,7.1617 0.8629,2.3946 1.8805,4.0649 3.0516,5.0219 1.1726,0.9535 2.3645,1.4301 3.5765,1.4301 1.252,0 2.4,-0.4391 3.445,-1.3145"
       style="fill:#faf8f2;fill-opacity:1;fill-rule:nonzero;stroke:none;stroke-width:0.1"
       id="path28654" />
  </g>
</svg>
