<?xml version="1.0" encoding="UTF-8" standalone="no"?>
<svg
   viewBox="0 0 154.29 152.75"
   version="1.1"
   id="svg2350"
   sodipodi:docname="home.svg"
   inkscape:version="1.1.2 (b8e25be8, 2022-02-05)"
   xmlns:inkscape="http://www.inkscape.org/namespaces/inkscape"
   xmlns:sodipodi="http://sodipodi.sourceforge.net/DTD/sodipodi-0.dtd"
   xmlns="http://www.w3.org/2000/svg"
   xmlns:svg="http://www.w3.org/2000/svg">
  <sodipodi:namedview
     id="namedview2352"
     pagecolor="#ffffff"
     bordercolor="#666666"
     borderopacity="1.0"
     inkscape:pageshadow="2"
     inkscape:pageopacity="0.0"
     inkscape:pagecheckerboard="0"
     showgrid="false"
     inkscape:zoom="4.7070376"
     inkscape:cx="77.118567"
     inkscape:cy="76.268776"
     inkscape:window-width="1920"
     inkscape:window-height="1080"
     inkscape:window-x="0"
     inkscape:window-y="0"
     inkscape:window-maximized="0"
     inkscape:current-layer="circle" />
  <defs
     id="defs2333">
    <style
       id="style2331">.cls-1{isolation:isolate;}.cls-2{mix-blend-mode:multiply;opacity:0.75;}.cls-3,.cls-4{fill:none;stroke-miterlimit:10;stroke-width:5px;}.cls-3{stroke:#ccc;}.cls-4{stroke:#999;}</style>
  </defs>
  <g
     class="cls-1"
     id="g2348">
    <g
       id="circle">
      <polyline
         class="cls-4"
         points="98.85 75.98 98.85 59.42 110.19 59.42 110.19 86.12"
         id="polyline2339"
         style="stroke-linecap:round"
         transform="matrix(1,0,0,0.85341327,0,8.7101834)" />
      <path
         class="cls-4"
         d="m 73.34,50.91 51.1,45.73 a 1.41,1.41 0 0 1 -0.94,2.46 h -9.06 a 1.41,1.41 0 0 0 -1.41,1.42 V 143 a 1.43,1.43 0 0 1 -1.42,1.42 H 90.35 A 1.42,1.42 0 0 1 88.94,143 V 122.32 A 11.88,11.88 0 0 0 77.06,110.44 H 69.62 A 11.87,11.87 0 0 0 57.75,122.32 V 143 a 1.43,1.43 0 0 1 -1.42,1.42 H 35.07 A 1.42,1.42 0 0 1 33.66,143 V 100.52 A 1.42,1.42 0 0 0 32.24,99.1 h -9.06 a 1.41,1.41 0 0 1 -0.94,-2.46 z"
         id="path2345" />
    </g>
  </g>
</svg>
